<svg width="24" height="24" viewBox="0 0 24 24" fill="none" xmlns="http://www.w3.org/2000/svg">
<path d="M11.0002 1.98999C6.03023 1.98999 1.99023 6.02999 1.99023 11C1.99023 15.97 6.03023 20.01 11.0002 20.01C15.9702 20.01 20.0102 15.97 20.0102 11C20.0102 6.02999 15.9702 1.98999 11.0002 1.98999ZM14.1802 11.56C13.6202 13.34 11.6702 14.31 11.0002 14.31C10.3102 14.31 8.40023 13.38 7.82023 11.56C7.44023 10.37 7.87023 8.81999 9.23023 8.38999C9.85023 8.18999 10.5102 8.30999 11.0002 8.67999C11.4802 8.30999 12.1502 8.18999 12.7802 8.38999C14.1302 8.82999 14.5602 10.38 14.1802 11.56Z" fill="white"/>
<path d="M21.9901 18.95C21.6601 18.34 20.9601 18 20.0201 18C19.3101 18 18.7001 18.29 18.3401 18.79C17.9801 19.29 17.9001 19.96 18.1201 20.63C18.5501 21.93 19.3001 22.22 19.7101 22.27C19.7701 22.28 19.8301 22.28 19.9001 22.28C20.3401 22.28 21.0201 22.09 21.6801 21.1C22.2101 20.33 22.3101 19.56 21.9901 18.95Z" fill="white"/>
</svg>
