<svg width="24" height="24" viewBox="0 0 24 24" fill="none" xmlns="http://www.w3.org/2000/svg">
<path d="M11.0002 1.98999C6.03023 1.98999 1.99023 6.02999 1.99023 11C1.99023 15.97 6.03023 20.01 11.0002 20.01C15.9702 20.01 20.0102 15.97 20.0102 11C20.0102 6.02999 15.9702 1.98999 11.0002 1.98999ZM11.0002 13.25H8.00023C7.59023 13.25 7.25023 12.91 7.25023 12.5C7.25023 12.09 7.59023 11.75 8.00023 11.75H11.0002C11.4102 11.75 11.7502 12.09 11.7502 12.5C11.7502 12.91 11.4102 13.25 11.0002 13.25ZM14.0002 10.25H8.00023C7.59023 10.25 7.25023 9.90999 7.25023 9.49999C7.25023 9.08999 7.59023 8.74999 8.00023 8.74999H14.0002C14.4102 8.74999 14.7502 9.08999 14.7502 9.49999C14.7502 9.90999 14.4102 10.25 14.0002 10.25Z" fill="white"/>
<path d="M21.9901 18.95C21.6601 18.34 20.9601 18 20.0201 18C19.3101 18 18.7001 18.29 18.3401 18.79C17.9801 19.29 17.9001 19.96 18.1201 20.63C18.5501 21.93 19.3001 22.22 19.7101 22.27C19.7701 22.28 19.8301 22.28 19.9001 22.28C20.3401 22.28 21.0201 22.09 21.6801 21.1C22.2101 20.33 22.3101 19.56 21.9901 18.95Z" fill="white"/>
</svg>
