<svg width="24" height="24" viewBox="0 0 24 24" fill="none" xmlns="http://www.w3.org/2000/svg">
<path d="M21.2996 22.0001C21.1196 22.0001 20.9396 21.9301 20.8096 21.8001L18.9496 19.9401C18.6796 19.6701 18.6796 19.2301 18.9496 18.9501C19.2196 18.6801 19.6596 18.6801 19.9396 18.9501L21.7996 20.8101C22.0696 21.0801 22.0696 21.5201 21.7996 21.8001C21.6596 21.9301 21.4796 22.0001 21.2996 22.0001Z" fill="white"/>
<path d="M11.5 2C6.26 2 2 6.26 2 11.5C2 16.74 6.26 21 11.5 21C16.74 21 21 16.74 21 11.5C21 6.26 16.74 2 11.5 2ZM14.2 12.45H12.45V14.2C12.45 14.61 12.11 14.95 11.7 14.95C11.29 14.95 10.95 14.61 10.95 14.2V12.45H9.2C8.79 12.45 8.45 12.11 8.45 11.7C8.45 11.29 8.79 10.95 9.2 10.95H10.95V9.2C10.95 8.79 11.29 8.45 11.7 8.45C12.11 8.45 12.45 8.79 12.45 9.2V10.95H14.2C14.61 10.95 14.95 11.29 14.95 11.7C14.95 12.11 14.61 12.45 14.2 12.45Z" fill="white"/>
</svg>
