<svg width="24" height="24" viewBox="0 0 24 24" fill="none" xmlns="http://www.w3.org/2000/svg">
<g clip-path="url(#clip0_37_56406)">
<path d="M21.2897 17.0201L19.5497 13.5401C19.0697 12.5701 19.0697 11.4401 19.5497 10.4701L21.2897 6.99007C22.7797 4.00007 19.5697 0.860073 16.6197 2.42007L15.0797 3.24007C14.8697 3.35007 14.6997 3.53007 14.5997 3.75007L8.89969 16.3901C8.66969 16.9101 8.87969 17.5201 9.37969 17.7801L16.6197 21.5901C19.5697 23.1501 22.7797 20.0001 21.2897 17.0201Z" fill="white"/>
<path d="M7.68953 15.6L11.4195 7.31996C11.8395 6.38996 10.8395 5.44996 9.93953 5.92996L4.16953 8.95996C1.71953 10.25 1.71953 13.75 4.16953 15.04L6.20953 16.11C6.75953 16.4 7.42953 16.17 7.68953 15.6Z" fill="white"/>
</g>
<defs>
<clipPath id="clip0_37_56406">
<rect width="24" height="24" fill="white"/>
</clipPath>
</defs>
</svg>
