<svg width="24" height="24" viewBox="0 0 24 24" fill="none" xmlns="http://www.w3.org/2000/svg">
<g clip-path="url(#clip0_37_56404)">
<path d="M17.0202 21.2899L13.5402 19.5499C12.5702 19.0699 11.4402 19.0699 10.4702 19.5499L6.99016 21.2899C4.00016 22.7799 0.850157 19.5699 2.41016 16.6199L3.23016 15.0799C3.34016 14.8699 3.52016 14.6999 3.74016 14.5999L16.3802 8.89993C16.9002 8.66993 17.5102 8.87993 17.7702 9.37993L21.5802 16.6199C23.1402 19.5699 20.0002 22.7799 17.0202 21.2899Z" fill="white"/>
<path d="M15.6004 7.69002L7.32045 11.42C6.39045 11.84 5.45045 10.84 5.93045 9.94002L8.97045 4.17002C10.2604 1.72002 13.7604 1.72002 15.0504 4.17002L16.1204 6.21002C16.4004 6.76002 16.1604 7.44002 15.6004 7.69002Z" fill="white"/>
</g>
<defs>
<clipPath id="clip0_37_56404">
<rect width="24" height="24" fill="white"/>
</clipPath>
</defs>
</svg>
