<svg width="24" height="24" viewBox="0 0 24 24" fill="none" xmlns="http://www.w3.org/2000/svg">
<g clip-path="url(#clip0_37_56405)">
<path d="M17.0202 2.71996L13.5402 4.45996C12.5702 4.93996 11.4402 4.93996 10.4702 4.45996L6.98022 2.70996C4.00022 1.21996 0.850218 4.43996 2.41022 7.38996L3.23022 8.92996C3.34022 9.13996 3.52022 9.30996 3.74022 9.40996L16.3902 15.1C16.9102 15.33 17.5202 15.12 17.7802 14.62L21.5902 7.37996C23.1402 4.43996 20.0002 1.21996 17.0202 2.71996Z" fill="white"/>
<path d="M15.6004 16.31L7.32045 12.58C6.39045 12.16 5.45045 13.16 5.93045 14.06L8.97045 19.83C10.2604 22.28 13.7604 22.28 15.0504 19.83L16.1204 17.79C16.4004 17.24 16.1604 16.57 15.6004 16.31Z" fill="white"/>
</g>
<defs>
<clipPath id="clip0_37_56405">
<rect width="24" height="24" fill="white"/>
</clipPath>
</defs>
</svg>
