<svg width="24" height="24" viewBox="0 0 24 24" fill="none" xmlns="http://www.w3.org/2000/svg">
<g clip-path="url(#clip0_37_56407)">
<path d="M2.71008 17.02L4.45008 13.54C4.93008 12.57 4.93008 11.44 4.45008 10.47L2.71008 6.97997C1.22008 3.99997 4.43008 0.849974 7.38008 2.40997L8.92008 3.22997C9.14008 3.33997 9.31008 3.51997 9.40008 3.73997L15.0901 16.39C15.3201 16.91 15.1101 17.52 14.6101 17.78L7.37008 21.59C4.43008 23.15 1.22008 20 2.71008 17.02Z" fill="white"/>
<path d="M16.3102 15.6L12.5802 7.31996C12.1602 6.38996 13.1602 5.44996 14.0602 5.92996L19.8302 8.96996C22.2802 10.26 22.2802 13.76 19.8302 15.05L17.7902 16.12C17.2402 16.4 16.5702 16.17 16.3102 15.6Z" fill="white"/>
</g>
<defs>
<clipPath id="clip0_37_56407">
<rect width="24" height="24" fill="white"/>
</clipPath>
</defs>
</svg>
