<svg width="24" height="24" viewBox="0 0 24 24" fill="none" xmlns="http://www.w3.org/2000/svg">
<g clip-path="url(#clip0_37_56401)">
<path d="M18.7304 14.6701L14.5804 18.8201C14.4204 18.9801 14.2704 19.2901 14.2304 19.5101L14.0004 21.1001C13.9204 21.6701 14.3204 22.0801 14.8904 21.9901L16.4804 21.7601C16.7004 21.7301 17.0104 21.5701 17.1704 21.4101L21.3204 17.2601C22.0304 16.5501 22.3704 15.7101 21.3204 14.6601C20.2804 13.6201 19.4504 13.9501 18.7304 14.6701Z" fill="white"/>
<path d="M18.1396 15.26C18.4896 16.52 19.4796 17.5 20.7396 17.86Z" fill="white"/>
<path d="M2.02977 14.6299C2.02977 14.6599 2.00977 14.6999 2.00977 14.7299C2.92977 16.5699 4.42977 18.0799 6.26977 18.9899C6.29977 18.9899 6.33977 18.9699 6.36977 18.9699C6.02977 17.8099 5.76977 16.6199 5.57977 15.4299C4.37977 15.2299 3.18977 14.9699 2.02977 14.6299Z" fill="white"/>
<path d="M19.0701 6.42994C18.1301 4.45994 16.5401 2.86994 14.5801 1.93994C14.9401 3.12994 15.2401 4.34994 15.4401 5.56994C16.6601 5.76994 17.8801 6.05994 19.0701 6.42994Z" fill="white"/>
<path d="M1.92969 6.43002C3.12969 6.07002 4.34969 5.77002 5.56969 5.57002C5.76969 4.38002 6.01969 3.20002 6.35969 2.04002C6.32969 2.04002 6.28969 2.02002 6.25969 2.02002C4.37969 2.95002 2.84969 4.52002 1.92969 6.43002Z" fill="white"/>
<path d="M13.8197 5.36C13.5797 4.06 13.2797 2.76 12.8497 1.5C12.8297 1.43 12.8297 1.37 12.8197 1.29C12.0797 1.11 11.2997 1 10.4997 1C9.68969 1 8.91969 1.11 8.16969 1.3C8.15969 1.37 8.16969 1.43 8.14969 1.51C7.72969 2.77 7.41969 4.06 7.17969 5.36C9.38969 5.12 11.6097 5.12 13.8197 5.36Z" fill="white"/>
<path d="M5.36 7.17993C4.05 7.41993 2.77 7.72993 1.5 8.14993C1.43 8.16993 1.37 8.16993 1.3 8.17993C1.11 8.91993 1 9.69993 1 10.4999C1 11.3099 1.11 12.0799 1.3 12.8299C1.37 12.8399 1.43 12.8299 1.51 12.8499C2.77 13.2699 4.06 13.5799 5.37 13.8199C5.12 11.6099 5.12 9.38993 5.36 7.17993Z" fill="white"/>
<path d="M19.6999 8.17993C19.6299 8.17993 19.5699 8.16993 19.4899 8.14993C18.2299 7.72993 16.9299 7.41993 15.6299 7.17993C15.8799 9.38993 15.8799 11.6099 15.6299 13.8099C16.9299 13.5699 18.2299 13.2699 19.4899 12.8399C19.5599 12.8199 19.6199 12.8299 19.6999 12.8199C19.8799 12.0699 19.9999 11.2999 19.9999 10.4899C19.9999 9.69993 19.8899 8.92993 19.6999 8.17993Z" fill="white"/>
<path d="M7.17969 15.6399C7.41969 16.9499 7.71969 18.2399 8.14969 19.4999C8.16969 19.5699 8.15969 19.6299 8.16969 19.7099C8.91969 19.8899 9.68969 19.9999 10.4997 19.9999C11.2997 19.9999 12.0797 19.8899 12.8197 19.6999C12.8297 19.6299 12.8297 19.5699 12.8497 19.4899C13.2697 18.2299 13.5797 16.9399 13.8197 15.6299C12.7197 15.7499 11.6097 15.8399 10.4997 15.8399C9.38969 15.8399 8.27969 15.7599 7.17969 15.6399Z" fill="white"/>
<path d="M6.94961 6.9501C6.64961 9.3101 6.64961 11.6901 6.94961 14.0601C9.30961 14.3601 11.6896 14.3601 14.0596 14.0601C14.3596 11.7001 14.3596 9.3201 14.0596 6.9501C11.6896 6.6501 9.30961 6.6501 6.94961 6.9501Z" fill="white"/>
</g>
<defs>
<clipPath id="clip0_37_56401">
<rect width="24" height="24" fill="white"/>
</clipPath>
</defs>
</svg>
