<svg width="24" height="24" viewBox="0 0 24 24" fill="none" xmlns="http://www.w3.org/2000/svg">
<g clip-path="url(#clip0_37_56394)">
<path d="M15.7796 20.98C14.7196 22 13.3596 22.51 11.9996 22.51C10.6396 22.51 9.27965 21.99 8.21965 20.97C7.85965 20.63 7.49965 20.25 7.13965 19.86L20.0396 6.95996C20.2896 7.49996 20.4796 8.06996 20.6196 8.69996C21.7896 13.86 18.6296 18.22 15.7796 20.98Z" fill="white"/>
<path d="M21.7699 2.22988C21.4699 1.92988 20.9799 1.92988 20.6799 2.22988L2.22988 20.6899C1.92988 20.9899 1.92988 21.4799 2.22988 21.7799C2.37988 21.9199 2.56988 21.9999 2.76988 21.9999C2.96988 21.9999 3.15988 21.9199 3.30988 21.7699L21.7699 3.30988C22.0799 3.00988 22.0799 2.52988 21.7699 2.22988Z" fill="white"/>
<path d="M8.84963 10.31C8.84963 8.57 10.2596 7.16 11.9996 7.16C13.3096 7.16 14.4296 7.96 14.9096 9.1L18.8896 5.12C17.1196 2.98 14.4396 2 11.9996 2C10.2296 2 8.33963 2.52 6.75963 3.61C5.17963 4.71 3.89963 6.38 3.37963 8.69C2.53963 12.36 3.89963 15.64 5.78963 18.21L10.7896 13.21C9.64963 12.74 8.84963 11.61 8.84963 10.31Z" fill="white"/>
</g>
<defs>
<clipPath id="clip0_37_56394">
<rect width="24" height="24" fill="white"/>
</clipPath>
</defs>
</svg>
