<svg width="24" height="24" viewBox="0 0 24 24" fill="none" xmlns="http://www.w3.org/2000/svg">
<g clip-path="url(#clip0_37_56392)">
<path d="M20.6198 8.7C19.5798 4.07 15.5398 2 11.9998 2C11.9998 2 11.9997 2 11.9897 2C8.45975 2 4.42975 4.07 3.37975 8.69C2.19975 13.85 5.35975 18.22 8.21975 20.98C9.27975 22 10.6398 22.51 11.9998 22.51C13.3598 22.51 14.7198 22 15.7698 20.98C18.6298 18.22 21.7898 13.86 20.6198 8.7ZM14.5297 13.49C14.3797 13.64 14.1898 13.71 13.9998 13.71C13.8098 13.71 13.6198 13.64 13.4698 13.49L12.0198 12.04L10.5297 13.53C10.3797 13.68 10.1898 13.75 9.99975 13.75C9.80975 13.75 9.61975 13.68 9.46975 13.53C9.17975 13.24 9.17975 12.76 9.46975 12.47L10.9598 10.98L9.50975 9.53C9.21975 9.24 9.21975 8.76 9.50975 8.47C9.79975 8.18 10.2797 8.18 10.5697 8.47L12.0198 9.92L13.4198 8.52C13.7098 8.23 14.1897 8.23 14.4797 8.52C14.7697 8.81 14.7697 9.29 14.4797 9.58L13.0798 10.98L14.5297 12.43C14.8197 12.72 14.8197 13.19 14.5297 13.49Z" fill="white"/>
</g>
<defs>
<clipPath id="clip0_37_56392">
<rect width="24" height="24" fill="white"/>
</clipPath>
</defs>
</svg>
