<svg width="24" height="24" viewBox="0 0 24 24" fill="none" xmlns="http://www.w3.org/2000/svg">
<g clip-path="url(#clip0_37_56391)">
<path d="M20.6198 8.7C19.5798 4.07 15.5398 2 11.9998 2C11.9998 2 11.9997 2 11.9897 2C8.45975 2 4.42975 4.07 3.37975 8.69C2.19975 13.85 5.35975 18.22 8.21975 20.98C9.27975 22 10.6398 22.51 11.9998 22.51C13.3598 22.51 14.7198 22 15.7698 20.98C18.6298 18.22 21.7898 13.86 20.6198 8.7ZM14.7498 11.75H9.24975C8.83975 11.75 8.49975 11.41 8.49975 11C8.49975 10.59 8.83975 10.25 9.24975 10.25H14.7498C15.1598 10.25 15.4998 10.59 15.4998 11C15.4998 11.41 15.1598 11.75 14.7498 11.75Z" fill="white"/>
</g>
<defs>
<clipPath id="clip0_37_56391">
<rect width="24" height="24" fill="white"/>
</clipPath>
</defs>
</svg>
