<svg width="24" height="24" viewBox="0 0 24 24" fill="none" xmlns="http://www.w3.org/2000/svg">
<g clip-path="url(#clip0_37_56412)">
<path d="M8.88003 4.59997C8.08003 1.13997 2.87002 1.12997 2.07002 4.59997C1.60002 6.62997 2.89003 8.34997 4.01003 9.41997C4.83003 10.19 6.12003 10.19 6.94003 9.41997C8.06003 8.34997 9.34003 6.62997 8.88003 4.59997ZM5.51003 6.19997C4.96003 6.19997 4.51003 5.74997 4.51003 5.19997C4.51003 4.64997 4.95003 4.19997 5.50003 4.19997H5.51003C6.07003 4.19997 6.51003 4.64997 6.51003 5.19997C6.51003 5.74997 6.07003 6.19997 5.51003 6.19997Z" fill="white"/>
<path d="M21.91 16.6C21.11 13.14 15.88 13.13 15.07 16.6C14.6 18.63 15.89 20.35 17.02 21.42C17.84 22.19 19.14 22.19 19.96 21.42C21.09 20.35 22.38 18.63 21.91 16.6ZM18.53 18.2C17.98 18.2 17.53 17.75 17.53 17.2C17.53 16.65 17.97 16.2 18.52 16.2H18.53C19.08 16.2 19.53 16.65 19.53 17.2C19.53 17.75 19.08 18.2 18.53 18.2Z" fill="white"/>
<path d="M11.9995 19.75H9.31945C8.15945 19.75 7.14945 19.05 6.74945 17.97C6.33945 16.89 6.63945 15.7 7.50945 14.93L15.4995 7.94C15.9795 7.52 15.9895 6.95 15.8495 6.56C15.6995 6.17 15.3195 5.75 14.6795 5.75H11.9995C11.5895 5.75 11.2495 5.41 11.2495 5C11.2495 4.59 11.5895 4.25 11.9995 4.25H14.6795C15.8395 4.25 16.8495 4.95 17.2495 6.03C17.6595 7.11 17.3595 8.3 16.4895 9.07L8.49945 16.06C8.01945 16.48 8.00945 17.05 8.14945 17.44C8.29945 17.83 8.67945 18.25 9.31945 18.25H11.9995C12.4095 18.25 12.7495 18.59 12.7495 19C12.7495 19.41 12.4095 19.75 11.9995 19.75Z" fill="white"/>
</g>
<defs>
<clipPath id="clip0_37_56412">
<rect width="24" height="24" fill="white"/>
</clipPath>
</defs>
</svg>
