<svg width="24" height="24" viewBox="0 0 24 24" fill="none" xmlns="http://www.w3.org/2000/svg">
<path d="M21.14 9.89999H12.75V15.38C12.75 15.79 12.41 16.13 12 16.13C11.59 16.13 11.25 15.79 11.25 15.38V9.89999H2.86C2.38 9.89999 2 10.28 2 10.76C2 16.65 6.11 20.76 12 20.76C17.89 20.76 22 16.65 22 10.76C22 10.28 21.62 9.89999 21.14 9.89999Z" fill="white"/>
<path d="M12.7504 5.79999L14.3104 7.35999C14.6004 7.64999 15.0804 7.64999 15.3704 7.35999C15.6604 7.06999 15.6604 6.58999 15.3704 6.29999L12.5204 3.45999C12.2304 3.16999 11.7504 3.16999 11.4604 3.45999L8.62039 6.30999C8.48039 6.45999 8.40039 6.64999 8.40039 6.83999C8.40039 7.02999 8.47039 7.21999 8.62039 7.36999C8.91039 7.65999 9.39039 7.65999 9.68039 7.36999L11.2404 5.80999V9.89999H12.7404V5.79999H12.7504Z" fill="white"/>
</svg>
