<svg width="24" height="24" viewBox="0 0 24 24" fill="none" xmlns="http://www.w3.org/2000/svg">
<path d="M21.14 9.89999H12.68V13.57L14.25 12C14.54 11.71 15.02 11.71 15.31 12C15.6 12.29 15.6 12.77 15.31 13.06L12.46 15.9C12.17 16.19 11.69 16.19 11.4 15.9L8.55 13.06C8.4 12.91 8.33 12.72 8.33 12.53C8.33 12.34 8.41 12.15 8.56 12C8.85 11.71 9.33 11.71 9.62 12L11.18 13.56V9.89999H2.86C2.38 9.89999 2 10.28 2 10.76C2 16.65 6.11 20.76 12 20.76C17.89 20.76 22 16.65 22 10.76C22 10.28 21.62 9.89999 21.14 9.89999Z" fill="white"/>
<path d="M12.6797 3.98999C12.6797 3.57999 12.3397 3.23999 11.9297 3.23999C11.5197 3.23999 11.1797 3.57999 11.1797 3.98999V9.88999H12.6797V3.98999Z" fill="white"/>
</svg>
