<svg width="24" height="24" viewBox="0 0 24 24" fill="none" xmlns="http://www.w3.org/2000/svg">
<path d="M10.7604 2C10.2804 2 9.90039 2.38 9.90039 2.86V11.32H13.5704L12.0004 9.75C11.7104 9.46 11.7104 8.98 12.0004 8.69C12.2904 8.4 12.7704 8.4 13.0604 8.69L15.9004 11.54C16.1904 11.83 16.1904 12.31 15.9004 12.6L13.0604 15.45C12.9104 15.6 12.7204 15.67 12.5304 15.67C12.3404 15.67 12.1504 15.6 12.0004 15.45C11.7104 15.16 11.7104 14.68 12.0004 14.39L13.5604 12.83H9.90039V21.16C9.90039 21.63 10.2804 22.02 10.7604 22.02C16.6504 22.02 20.7604 17.91 20.7604 12.02C20.7604 6.13 16.6404 2 10.7604 2Z" fill="white"/>
<path d="M3.99023 11.32C3.58023 11.32 3.24023 11.66 3.24023 12.07C3.24023 12.48 3.58023 12.82 3.99023 12.82H9.89023V11.32H3.99023Z" fill="white"/>
</svg>
