<svg width="24" height="24" viewBox="0 0 24 24" fill="none" xmlns="http://www.w3.org/2000/svg">
<path d="M4.71 18.19C4.81 18.23 4.9 18.25 5 18.25H15.27C15.68 18.25 16.02 17.91 16.02 17.5C16.02 17.09 15.68 16.75 15.27 16.75H6.81L19.53 4.03C19.82 3.74 19.82 3.26 19.53 2.97C19.24 2.68 18.76 2.68 18.47 2.97L5.75 15.69V7.23C5.75 6.82 5.41 6.48 5 6.48C4.59 6.48 4.25 6.82 4.25 7.23V17.5C4.25 17.6 4.27 17.69 4.31 17.79C4.38 17.97 4.53 18.12 4.71 18.19Z" fill="white"/>
<path d="M20.5 21.25H3.5C3.09 21.25 2.75 21.59 2.75 22C2.75 22.41 3.09 22.75 3.5 22.75H20.5C20.91 22.75 21.25 22.41 21.25 22C21.25 21.59 20.91 21.25 20.5 21.25Z" fill="white"/>
</svg>
