<svg width="24" height="24" viewBox="0 0 24 24" fill="none" xmlns="http://www.w3.org/2000/svg">
<path d="M19.0703 14.24C18.7803 14.53 18.3203 14.53 18.0403 14.24C17.7503 13.95 17.7503 13.49 18.0403 13.21C20.0403 11.21 20.0403 7.96 18.0403 5.97C16.0403 3.98 12.7903 3.97 10.8003 5.97C8.81027 7.97 8.80027 11.22 10.8003 13.21C11.0903 13.5 11.0903 13.96 10.8003 14.24C10.5103 14.53 10.0503 14.53 9.77027 14.24C7.20027 11.67 7.20027 7.49 9.77027 4.93C12.3403 2.37 16.5203 2.36 19.0803 4.93C21.6403 7.5 21.6403 11.67 19.0703 14.24Z" fill="white"/>
<path d="M4.92973 9.76C5.21973 9.47 5.67973 9.47 5.95973 9.76C6.24973 10.05 6.24973 10.51 5.95973 10.79C3.95973 12.79 3.95973 16.04 5.95973 18.03C7.95973 20.02 11.2097 20.03 13.1997 18.03C15.1897 16.03 15.1997 12.78 13.1997 10.79C12.9097 10.5 12.9097 10.04 13.1997 9.76C13.4897 9.47 13.9497 9.47 14.2297 9.76C16.7997 12.33 16.7997 16.51 14.2297 19.07C11.6597 21.63 7.47973 21.64 4.91973 19.07C2.35973 16.5 2.35973 12.33 4.92973 9.76Z" fill="white"/>
</svg>
