<svg width="24" height="24" viewBox="0 0 24 24" fill="none" xmlns="http://www.w3.org/2000/svg">
<path d="M15.4101 18.59C15.0101 18.59 14.6801 18.26 14.6801 17.86C14.6801 17.46 15.0101 17.13 15.4101 17.13C18.2301 17.13 20.5301 14.83 20.5301 12.01C20.5301 9.19 18.2301 6.89 15.4101 6.89C12.5901 6.89 10.2901 9.19 10.2901 12.01C10.2901 12.41 9.96008 12.74 9.56008 12.74C9.16008 12.74 8.83008 12.41 8.83008 12.01C8.83008 8.38 11.7801 5.42 15.4201 5.42C19.0601 5.42 22.0001 8.37 22.0001 12C22.0001 15.63 19.0501 18.59 15.4101 18.59Z" fill="white"/>
<path d="M8.59 5.41C8.99 5.41 9.32 5.74 9.32 6.14C9.32 6.54 8.99 6.87 8.59 6.87C5.77 6.87 3.47 9.17 3.47 11.99C3.47 14.81 5.77 17.11 8.59 17.11C11.41 17.11 13.71 14.81 13.71 11.99C13.71 11.59 14.04 11.26 14.44 11.26C14.84 11.26 15.17 11.59 15.17 11.99C15.17 15.62 12.22 18.58 8.58 18.58C4.94 18.58 2 15.63 2 12C2 8.37 4.95 5.41 8.59 5.41Z" fill="white"/>
</svg>
