<svg width="24" height="24" viewBox="0 0 24 24" fill="none" xmlns="http://www.w3.org/2000/svg">
<path d="M21 22.75H3C2.59 22.75 2.25 22.41 2.25 22C2.25 21.59 2.59 21.25 3 21.25H21C21.41 21.25 21.75 21.59 21.75 22C21.75 22.41 21.41 22.75 21 22.75Z" fill="white"/>
<path d="M21 2.75H3C2.59 2.75 2.25 2.41 2.25 2C2.25 1.59 2.59 1.25 3 1.25H21C21.41 1.25 21.75 1.59 21.75 2C21.75 2.41 21.41 2.75 21 2.75Z" fill="white"/>
<path d="M14.3004 15.36L12.7504 16.91V6.69999L14.3004 8.24999C14.4504 8.39999 14.6404 8.46999 14.8304 8.46999C15.0204 8.46999 15.2104 8.39999 15.3604 8.24999C15.6504 7.95999 15.6504 7.47999 15.3604 7.18999L12.5304 4.35999C12.2504 4.07999 11.7504 4.07999 11.4704 4.35999L8.64035 7.18999C8.35035 7.47999 8.35035 7.95999 8.64035 8.24999C8.93035 8.53999 9.41035 8.53999 9.70035 8.24999L11.2504 6.69999V16.91L9.70035 15.36C9.41035 15.07 8.93035 15.07 8.64035 15.36C8.35035 15.65 8.35035 16.13 8.64035 16.42L11.4704 19.25C11.6104 19.39 11.8004 19.47 12.0004 19.47C12.2004 19.47 12.3904 19.39 12.5304 19.25L15.3604 16.42C15.6504 16.13 15.6504 15.65 15.3604 15.36C15.0704 15.07 14.5904 15.07 14.3004 15.36Z" fill="white"/>
</svg>
