<svg width="24" height="24" viewBox="0 0 24 24" fill="none" xmlns="http://www.w3.org/2000/svg">
<path d="M8.09 11.63H3.4C3.48 6.96 4.4 6.19 7.27 4.49C7.6 4.29 7.71 3.87 7.51 3.53C7.32 3.2 6.89 3.09 6.56 3.29C3.18 5.29 2 6.51 2 12.32V17.71C2 19.42 3.39 20.8 5.09 20.8H8.09C9.85 20.8 11.18 19.47 11.18 17.71V14.71C11.18 12.96 9.85 11.63 8.09 11.63Z" fill="white"/>
<path d="M18.9096 11.63H14.2196C14.2996 6.96 15.2196 6.19 18.0896 4.49C18.4196 4.29 18.5296 3.87 18.3296 3.53C18.1296 3.2 17.7096 3.09 17.3696 3.29C13.9896 5.29 12.8096 6.51 12.8096 12.33V17.72C12.8096 19.43 14.1996 20.81 15.8996 20.81H18.8996C20.6596 20.81 21.9896 19.48 21.9896 17.72V14.72C21.9996 12.96 20.6696 11.63 18.9096 11.63Z" fill="white"/>
</svg>
