<svg width="24" height="24" viewBox="0 0 24 24" fill="none" xmlns="http://www.w3.org/2000/svg">
<path d="M15.9101 12.37H20.6001C20.5201 17.04 19.6001 17.81 16.7301 19.51C16.4001 19.71 16.2901 20.13 16.4901 20.47C16.6901 20.8 17.1101 20.91 17.4501 20.71C20.8301 18.71 22.0101 17.49 22.0101 11.67V6.28C22.0101 4.57 20.6201 3.19 18.9201 3.19H15.9201C14.1601 3.19 12.8301 4.52 12.8301 6.28V9.28C12.8201 11.04 14.1501 12.37 15.9101 12.37Z" fill="white"/>
<path d="M5.09 12.37H9.78C9.7 17.04 8.78 17.81 5.91 19.51C5.58 19.71 5.47 20.13 5.67 20.47C5.87 20.8 6.29 20.91 6.63 20.71C10.01 18.71 11.19 17.49 11.19 11.67V6.28C11.19 4.57 9.8 3.19 8.1 3.19H5.1C3.33 3.19 2 4.52 2 6.28V9.28C2 11.04 3.33 12.37 5.09 12.37Z" fill="white"/>
</svg>
