<svg width="24" height="24" viewBox="0 0 24 24" fill="none" xmlns="http://www.w3.org/2000/svg">
<path d="M8.93 2H5.02C3 2 2 3 2 5.02V8.94C2 11 3 12 5.02 11.95H8.94C11 12 12 11 11.95 8.93V5.02C12 3 11 2 8.93 2ZM9.01 9.76C8.33 9.76 7.67 9.5 7.12 9.04C6.5 9.49 5.75 9.76 4.94 9.76C4.53 9.76 4.19 9.42 4.19 9.01C4.19 8.6 4.53 8.26 4.94 8.26C5.96 8.26 6.81 7.56 7.12 6.6H4.94C4.53 6.6 4.19 6.26 4.19 5.85C4.19 5.44 4.53 5.1 4.94 5.1H6.23C6.27 4.72 6.58 4.42 6.97 4.42C7.36 4.42 7.67 4.72 7.71 5.1H7.97C7.98 5.1 7.99 5.1 7.99 5.1H8.01H9C9.41 5.1 9.75 5.44 9.75 5.85C9.75 6.26 9.42 6.6 9 6.6H8.67C8.58 7.08 8.39 7.53 8.14 7.94C8.41 8.14 8.7 8.26 9.01 8.26C9.42 8.26 9.76 8.6 9.76 9.01C9.76 9.42 9.42 9.76 9.01 9.76Z" fill="white"/>
<path d="M9 22.75C4.73 22.75 1.25 19.27 1.25 15C1.25 14.59 1.59 14.25 2 14.25C2.41 14.25 2.75 14.59 2.75 15C2.75 17.96 4.81 20.44 7.58 21.09L7.31 20.64C7.1 20.28 7.21 19.82 7.57 19.61C7.92 19.4 8.39 19.51 8.6 19.87L9.65 21.62C9.79 21.85 9.79 22.14 9.66 22.37C9.52 22.6 9.27 22.75 9 22.75Z" fill="white"/>
<path d="M22.0004 9.75C21.5904 9.75 21.2504 9.41 21.2504 9C21.2504 6.04 19.1904 3.56 16.4204 2.91L16.6904 3.36C16.9004 3.72 16.7904 4.18 16.4304 4.39C16.0804 4.6 15.6104 4.49 15.4004 4.13L14.3504 2.38C14.2104 2.15 14.2104 1.86 14.3404 1.63C14.4804 1.4 14.7304 1.25 15.0004 1.25C19.2704 1.25 22.7504 4.73 22.7504 9C22.7504 9.41 22.4104 9.75 22.0004 9.75Z" fill="white"/>
<path d="M16.9198 11.85C14.1198 11.85 11.8398 14.12 11.8398 16.93C11.8398 19.73 14.1098 22.01 16.9198 22.01C19.7198 22.01 21.9998 19.74 21.9998 16.93C21.9998 14.12 19.7298 11.85 16.9198 11.85ZM19.3998 19.34C19.0298 19.52 18.5798 19.38 18.3898 19L18.2198 18.66H15.6298L15.4598 19C15.3298 19.26 15.0598 19.41 14.7898 19.41C14.6798 19.41 14.5598 19.38 14.4598 19.33C14.0898 19.14 13.9398 18.69 14.1198 18.32L16.2598 14.05C16.3898 13.8 16.6498 13.64 16.9298 13.64C17.2098 13.64 17.4698 13.8 17.5998 14.06L19.7398 18.33C19.9198 18.7 19.7698 19.15 19.3998 19.34Z" fill="white"/>
<path d="M16.3799 17.16H17.4699L16.9199 16.07L16.3799 17.16Z" fill="white"/>
</svg>
