<svg width="24" height="24" viewBox="0 0 24 24" fill="none" xmlns="http://www.w3.org/2000/svg">
<path d="M17.5291 7.77C17.4591 7.76 17.3891 7.76 17.3191 7.77C15.7691 7.72 14.5391 6.45 14.5391 4.89C14.5391 3.3 15.8291 2 17.4291 2C19.0191 2 20.3191 3.29 20.3191 4.89C20.3091 6.45 19.0791 7.72 17.5291 7.77Z" fill="white"/>
<path d="M20.7896 14.6999C19.6696 15.4499 18.0996 15.7299 16.6496 15.5399C17.0296 14.7199 17.2296 13.8099 17.2396 12.8499C17.2396 11.8499 17.0196 10.8999 16.5996 10.0699C18.0796 9.86991 19.6496 10.1499 20.7796 10.8999C22.3596 11.9399 22.3596 13.6499 20.7896 14.6999Z" fill="white"/>
<path d="M6.44016 7.77C6.51016 7.76 6.58016 7.76 6.65016 7.77C8.20016 7.72 9.43016 6.45 9.43016 4.89C9.43016 3.29 8.14016 2 6.54016 2C4.95016 2 3.66016 3.29 3.66016 4.89C3.66016 6.45 4.89016 7.72 6.44016 7.77Z" fill="white"/>
<path d="M6.54914 12.8501C6.54914 13.8201 6.75914 14.7401 7.13914 15.5701C5.72914 15.7201 4.25914 15.4201 3.17914 14.7101C1.59914 13.6601 1.59914 11.9501 3.17914 10.9001C4.24914 10.1801 5.75914 9.8901 7.17914 10.0501C6.76914 10.8901 6.54914 11.8401 6.54914 12.8501Z" fill="white"/>
<path d="M12.1208 15.87C12.0408 15.86 11.9508 15.86 11.8608 15.87C10.0208 15.81 8.55078 14.3 8.55078 12.44C8.56078 10.54 10.0908 9 12.0008 9C13.9008 9 15.4408 10.54 15.4408 12.44C15.4308 14.3 13.9708 15.81 12.1208 15.87Z" fill="white"/>
<path d="M8.87078 17.9399C7.36078 18.9499 7.36078 20.6099 8.87078 21.6099C10.5908 22.7599 13.4108 22.7599 15.1308 21.6099C16.6408 20.5999 16.6408 18.9399 15.1308 17.9399C13.4208 16.7899 10.6008 16.7899 8.87078 17.9399Z" fill="white"/>
</svg>
