<svg width="24" height="24" viewBox="0 0 24 24" fill="none" xmlns="http://www.w3.org/2000/svg">
<path d="M12.0002 14C6.99016 14 2.91016 17.36 2.91016 21.5C2.91016 21.78 3.13016 22 3.41016 22H20.5902C20.8702 22 21.0902 21.78 21.0902 21.5C21.0902 17.36 17.0102 14 12.0002 14Z" fill="white"/>
<path d="M16.8506 5.80008C16.7306 5.31008 16.5306 4.83008 16.2506 4.39008C16.0606 4.07008 15.8106 3.75008 15.5406 3.47008C14.6406 2.57008 13.4706 2.08008 12.2706 2.02008C10.9106 1.93008 9.52058 2.43008 8.47058 3.47008C7.48058 4.45008 6.98058 5.76008 7.00058 7.08008C7.01058 8.33008 7.51058 9.58008 8.46058 10.5401C9.12058 11.2001 9.93058 11.6401 10.8006 11.8401C11.2706 11.9601 11.7706 12.0201 12.2706 11.9801C13.4606 11.9301 14.6206 11.4601 15.5306 10.5401C16.8206 9.25008 17.2606 7.44008 16.8506 5.80008ZM14.0006 9.00008C13.6406 9.36008 13.0406 9.36008 12.6806 9.00008L11.9906 8.31008L11.3306 8.97008C10.9706 9.33008 10.3706 9.33008 10.0106 8.97008C9.64058 8.60008 9.64058 8.01008 10.0006 7.65008L10.6606 6.99008L10.0206 6.37008C9.66058 6.00008 9.66058 5.41008 10.0206 5.03008C10.3906 4.67008 10.9806 4.67008 11.3606 5.03008L11.9806 5.67008L12.6506 5.00008C13.0106 4.64008 13.6006 4.64008 13.9706 5.00008C14.3306 5.36008 14.3306 5.96008 13.9706 6.32008L13.3106 6.98008L14.0006 7.68008C14.3606 8.04008 14.3606 8.64008 14.0006 9.00008Z" fill="white"/>
</svg>
