<svg width="24" height="24" viewBox="0 0 24 24" fill="none" xmlns="http://www.w3.org/2000/svg">
<path d="M20.8894 10.5299C20.4794 10.5299 20.1394 10.1899 20.1394 9.77995V6.90995L11.9994 2.83995L3.85938 6.90995V9.77995C3.85938 10.1899 3.51937 10.5299 3.10938 10.5299C2.69938 10.5299 2.35938 10.1899 2.35938 9.77995V6.44995C2.35938 6.16995 2.51942 5.90995 2.77942 5.77995L11.6694 1.33995C11.8794 1.22995 12.1294 1.22995 12.3394 1.33995L21.2294 5.77995C21.4794 5.90995 21.6494 6.16995 21.6494 6.44995V9.77995C21.6394 10.1899 21.2994 10.5299 20.8894 10.5299Z" fill="white"/>
<path d="M11.9994 22.75C11.8794 22.75 11.7694 22.72 11.6694 22.67L2.77942 18.23C2.52942 18.1 2.35938 17.84 2.35938 17.56V14.23C2.35938 13.82 2.69938 13.48 3.10938 13.48C3.51937 13.48 3.85938 13.82 3.85938 14.23V17.1L11.9994 21.17L20.1394 17.1V14.23C20.1394 13.82 20.4794 13.48 20.8894 13.48C21.2994 13.48 21.6394 13.82 21.6394 14.23V17.56C21.6394 17.84 21.4794 18.1 21.2194 18.23L12.3294 22.67C12.2294 22.72 12.1194 22.75 11.9994 22.75Z" fill="white"/>
<path d="M16.4406 12.0001C16.4406 9.55006 14.4505 7.56006 12.0005 7.56006C9.55055 7.56006 7.56055 9.55006 7.56055 12.0001C7.56055 14.2001 9.17057 16.0201 11.2706 16.3701C11.2706 16.4001 11.2606 16.4201 11.2606 16.4401V22.0001C11.2606 22.4101 11.6006 22.7501 12.0106 22.7501C12.4206 22.7501 12.7606 22.4101 12.7606 22.0001V16.4401C12.7606 16.4101 12.7505 16.3901 12.7505 16.3701C14.8405 16.0201 16.4406 14.2001 16.4406 12.0001Z" fill="white"/>
</svg>
