<svg width="24" height="24" viewBox="0 0 24 24" fill="none" xmlns="http://www.w3.org/2000/svg">
<path d="M11.3996 2.35002L6.24961 7.50002C6.04961 7.70002 6.04961 8.01002 6.24961 8.21002L7.97962 9.94002C8.17962 10.14 8.48961 10.14 8.68961 9.94002L13.8396 4.79002C14.0396 4.59002 14.0396 4.28002 13.8396 4.08002L12.1096 2.35002C11.9096 2.16002 11.5996 2.16002 11.3996 2.35002Z" fill="white"/>
<path d="M15.2996 6.25999L6.24961 15.31C6.04961 15.51 6.04961 15.82 6.24961 16.02L7.97962 17.75C8.17962 17.95 8.48961 17.95 8.68961 17.75L17.7396 8.69999C17.9396 8.49999 17.9396 8.18998 17.7396 7.98998L16.0096 6.25999C15.8196 6.05999 15.4996 6.05999 15.2996 6.25999Z" fill="white"/>
<path d="M19.2098 10.16L10.1598 19.21C9.95977 19.41 9.95977 19.72 10.1598 19.92L11.8898 21.65C12.0898 21.85 12.3998 21.85 12.5998 21.65L21.6498 12.6C21.8498 12.4 21.8498 12.09 21.6498 11.89L19.9198 10.16C19.7198 9.96001 19.3998 9.96001 19.2098 10.16Z" fill="white"/>
<path d="M4.08997 13.84L2.35996 12.11C2.15996 11.91 2.15996 11.6 2.35996 11.4L4.08997 9.67002C4.28997 9.47002 4.59996 9.47002 4.79996 9.67002L6.52997 11.4C6.72997 11.6 6.72997 11.91 6.52997 12.11L4.79996 13.84C4.59996 14.04 4.27997 14.04 4.08997 13.84Z" fill="white"/>
</svg>
