<svg width="24" height="24" viewBox="0 0 24 24" fill="none" xmlns="http://www.w3.org/2000/svg">
<path d="M8.77011 14.43L10.3801 15.15C11.4101 15.61 12.5901 15.61 13.6301 15.15L15.2401 14.43C16.6801 13.79 18.0101 15.53 17.0101 16.75L13.5501 20.98C12.7001 22.02 11.3101 22.02 10.4501 20.98L7.00011 16.75C5.99011 15.53 7.32011 13.79 8.77011 14.43Z" fill="white"/>
<path d="M8.57027 11.67C8.27027 11.89 8.31027 12.35 8.65027 12.52L11.0003 13.69C11.5503 13.97 12.4403 13.97 12.9803 13.69L15.3303 12.52C15.6603 12.35 15.7003 11.9 15.4103 11.67L12.3003 9.33004C12.1203 9.20004 11.8803 9.20004 11.7003 9.33004L8.57027 11.67Z" fill="white"/>
<path d="M17.8803 8.23996L13.7103 3.03996C13.6303 2.93996 13.5403 2.84996 13.4503 2.75996C13.1903 2.50996 12.8203 2.73996 12.8203 3.09996V7.39996C12.8203 7.55996 12.8903 7.70996 13.0203 7.79996L17.1703 10.92L17.3503 11.05C17.5303 11.18 17.7803 11.18 17.9303 11.02C18.6303 10.26 18.6203 9.15996 17.8803 8.23996Z" fill="white"/>
<path d="M6.10986 8.32997L10.2599 3.04997C10.3399 2.94997 10.4199 2.85997 10.5099 2.76997C10.7699 2.51997 11.1399 2.73997 11.1399 3.10997V7.47997C11.1399 7.63997 11.0699 7.77997 10.9399 7.87997L6.80985 11.05L6.63985 11.18C6.45985 11.31 6.20986 11.31 6.04986 11.14C5.36986 10.37 5.37986 9.26997 6.10986 8.32997Z" fill="white"/>
</svg>
