<svg width="24" height="24" viewBox="0 0 24 24" fill="none" xmlns="http://www.w3.org/2000/svg">
<path d="M21.3995 12.95L18.6195 14.34C18.4295 14.44 18.1995 14.4 18.0395 14.25L16.1695 12.38C15.9695 12.18 15.9695 11.87 16.1695 11.67L18.0695 9.77002C18.2195 9.62002 18.4595 9.58002 18.6495 9.68002L21.3995 11.06C22.1895 11.44 22.1895 12.56 21.3995 12.95Z" fill="white"/>
<path d="M16.3009 8.48996C16.6109 8.63996 16.6709 9.04998 16.4309 9.28998L14.7609 10.96L14.0509 11.67C13.8509 11.87 13.5409 11.87 13.3409 11.67L6.20095 4.52997C5.80095 4.12997 6.27095 3.47998 6.78095 3.72998L16.3009 8.48996Z" fill="white"/>
<path d="M2 20.15V3.48002C2 3.04002 2.53 2.81001 2.85 3.12001L11.62 11.63C11.83 11.83 11.82 12.16 11.61 12.36L2.84 20.52C2.52 20.82 2 20.59 2 20.15Z" fill="white"/>
<path d="M16.2706 15.52L6.88056 20.22C6.37056 20.47 5.90056 19.82 6.30056 19.42L13.3506 12.37C13.5506 12.17 13.8606 12.17 14.0606 12.37L16.4106 14.72C16.6406 14.96 16.5706 15.37 16.2706 15.52Z" fill="white"/>
</svg>
