<svg width="24" height="24" viewBox="0 0 24 24" fill="none" xmlns="http://www.w3.org/2000/svg">
<path d="M5.94062 16.77L4.28065 19.59C4.16065 19.8 3.85059 19.8 3.72059 19.59L2.03065 16.77C1.90065 16.55 2.06062 16.28 2.31062 16.28H5.66059C5.91059 16.28 6.06062 16.56 5.94062 16.77Z" fill="white"/>
<path d="M11.6904 8.41003L7.7404 14.88C7.6504 15.03 7.49041 15.11 7.32041 15.11H2.25041C1.87041 15.11 1.63041 14.71 1.82041 14.39L8.28043 3.73004C8.47043 3.42004 8.94041 3.41004 9.13041 3.73004L11.6904 7.94003C11.7804 8.08003 11.7804 8.26003 11.6904 8.41003Z" fill="white"/>
<path d="M13.721 14.49H10.241C10.041 14.49 9.91104 14.27 10.011 14.09L11.751 11.14C11.851 10.97 12.101 10.97 12.201 11.14L13.941 14.09C14.051 14.27 13.921 14.49 13.721 14.49Z" fill="white"/>
<path d="M13.6614 3.39999L12.2114 5.87C12.1114 6.04 11.8514 6.04 11.7514 5.87L10.3014 3.39999C10.2014 3.21999 10.3215 3 10.5315 3H13.4314C13.6414 3 13.7614 3.21999 13.6614 3.39999Z" fill="white"/>
<path d="M22.1695 14.37C22.3695 14.7 22.1195 15.12 21.7395 15.12H16.8695C16.6995 15.12 16.5495 15.03 16.4595 14.89L12.6495 8.42004C12.5595 8.27004 12.5595 8.09003 12.6495 7.94003L15.1195 3.73004C15.2995 3.42004 15.7595 3.41004 15.9395 3.73004C17.1595 5.84004 20.8895 12.18 22.1695 14.37Z" fill="white"/>
<path d="M21.9307 16.77C21.3807 17.7 20.7907 18.7 20.2507 19.61C20.1207 19.83 19.8107 19.82 19.6807 19.6L18.0207 16.77C17.8907 16.55 18.0507 16.27 18.3107 16.27H21.6407C21.9007 16.28 22.0607 16.55 21.9307 16.77Z" fill="white"/>
<path d="M18.0207 21H5.94068C5.58068 21 5.36065 20.61 5.54065 20.3L7.87067 16.34C7.95067 16.2 8.10069 16.11 8.27069 16.11H15.6907C15.8507 16.11 16.0107 16.2 16.0907 16.34L18.4207 20.3C18.6007 20.61 18.3807 21 18.0207 21Z" fill="white"/>
</svg>
