<svg width="24" height="24" viewBox="0 0 24 24" fill="none" xmlns="http://www.w3.org/2000/svg">
<path opacity="0.13" d="M10.8698 14L12.7998 17.33L10.8799 20.66H6.99985L5.08984 17.35L7.02985 14H10.8698Z" fill="white"/>
<path d="M10.5396 14.08H7.11959C6.93959 14.08 6.7796 14.18 6.6896 14.33L4.97961 17.29C4.88961 17.44 4.88961 17.64 4.97961 17.79L6.6896 20.75C6.7796 20.9 6.93959 21 7.11959 21H10.5396C10.7196 21 10.8796 20.9 10.9696 20.75L12.6796 17.79C12.7696 17.64 12.7696 17.44 12.6796 17.29L10.9696 14.33C10.8796 14.17 10.7196 14.08 10.5396 14.08Z" fill="white"/>
<path d="M22.2401 11.74C22.3301 11.9 22.3301 12.1 22.2401 12.26L17.3102 20.79C17.2402 20.92 17.1002 21 16.9502 21C16.6302 21 16.4302 20.65 16.5902 20.38L19.8802 14.68C19.9702 14.52 19.9702 14.32 19.8802 14.16L15.4802 6.53999C15.3902 6.37999 15.2202 6.27999 15.0302 6.27999H6.22016C6.03016 6.27999 5.87014 6.37999 5.77014 6.53999L2.50016 12.22C2.33016 12.52 1.90016 12.52 1.72016 12.22C1.64016 12.08 1.64016 11.91 1.72016 11.77L6.64017 3.24999C6.72017 3.08999 6.90015 2.98999 7.09015 2.98999H16.8802C17.0702 2.98999 17.2301 3.08999 17.3301 3.24999L22.2401 11.74Z" fill="white"/>
<path d="M18.089 14.68L14.589 20.74C14.499 20.9 14.3291 21 14.1391 21H13.5391C13.1391 21 12.889 20.57 13.089 20.22L14.489 17.8C14.579 17.64 14.579 17.44 14.489 17.28L11.8891 12.78C11.7891 12.62 11.6091 12.52 11.4191 12.52H6.21905C6.02905 12.52 5.86904 12.62 5.76904 12.78L4.36904 15.2C4.16904 15.55 3.66905 15.55 3.46905 15.2L3.16906 14.69C3.07906 14.53 3.07906 14.33 3.16906 14.17L6.65905 8.10998C6.74905 7.94998 6.91903 7.84998 7.10903 7.84998H14.0991C14.2891 7.84998 14.449 7.94998 14.549 8.10998L18.049 14.17C18.169 14.32 18.169 14.53 18.089 14.68Z" fill="white"/>
</svg>
