<svg width="24" height="24" viewBox="0 0 24 24" fill="none" xmlns="http://www.w3.org/2000/svg">
<path d="M17.8206 8.69991C18.5306 8.30991 19.4006 8.81992 19.3906 9.62992L19.3505 15.0499C19.3405 15.8699 18.4506 16.3699 17.7506 15.9499L13.0706 13.1499C12.3706 12.7299 12.3905 11.7099 13.1005 11.3199L17.8206 8.69991Z" fill="white"/>
<path d="M19.2505 6.27992C19.4005 6.65992 19.1705 7.04992 18.8105 7.24992L13.1805 10.3599C12.3805 10.7999 11.4405 10.0899 11.6405 9.20993L12.8605 3.67991C13.0105 2.97991 13.8005 2.63993 14.4205 2.98993L18.3405 5.22992C18.7705 5.47992 19.0805 5.84992 19.2505 6.27992Z" fill="white"/>
<path d="M12.0096 2.66995L9.93964 11.9699C9.90964 12.1099 9.90964 12.26 9.93964 12.41L11.6696 21.0899C11.7896 21.6899 11.2797 22.2599 10.7797 21.8899L5.48962 18.1199C4.92962 17.7199 4.59961 17.0799 4.59961 16.3999V7.08994C4.59961 6.32994 4.99962 5.62995 5.66962 5.24995L10.9597 2.23995C11.1097 2.14995 11.2696 2.08994 11.4296 2.03994C11.8096 1.90994 12.0896 2.28995 12.0096 2.66995Z" fill="white"/>
<path d="M17.6289 16.81C18.2789 17.2 18.3189 18.13 17.7089 18.57L14.2389 21.09C13.6189 21.54 12.7289 21.2 12.5789 20.44L11.5589 15.24C11.3789 14.34 12.3489 13.66 13.1389 14.13L17.6289 16.81Z" fill="white"/>
</svg>
