<svg width="24" height="24" viewBox="0 0 24 24" fill="none" xmlns="http://www.w3.org/2000/svg">
<path d="M3.18069 15.03C2.83069 15.03 2.58069 15.38 2.71069 15.7C4.18069 19.4 7.79069 22 12.0007 22C16.2207 22 19.8307 19.38 21.3007 15.67C21.4307 15.35 21.1707 15 20.8307 15H17.5007C17.2207 15 17.0007 14.78 17.0007 14.5V11.76C17.0007 10.84 15.8507 10.41 15.2507 11.11L12.3807 14.54C12.1807 14.78 11.8107 14.78 11.6107 14.54L8.74069 11.11C8.15069 10.41 7.00069 10.84 7.00069 11.76V14.5C7.00069 14.78 6.78069 15 6.50069 15L3.18069 15.03Z" fill="white"/>
<path d="M22 12.14C22 12.45 21.98 12.76 21.94 13.06C21.91 13.31 21.69 13.5 21.43 13.5H19C18.72 13.5 18.5 13.28 18.5 13V11.9C18.5 10.89 17.96 9.90997 17.04 9.48997C16.01 9.01997 14.84 9.27997 14.1 10.15L12.38 12.2C12.18 12.44 11.81 12.44 11.61 12.2L9.88 10.13C9.16 9.27997 8 9.01997 6.96 9.48997C6.04 9.90997 5.5 10.89 5.5 11.9V12.88C5.5 13.3 5.28 13.52 5 13.52L2.56 13.53C2.31 13.53 2.08 13.34 2.05 13.09C2.02 12.73 2 12.37 2 12C2 5.94997 7.39 1.13997 13.63 2.12997C18.46 2.88997 22.07 7.23997 22 12.14Z" fill="white"/>
</svg>
