<svg width="24" height="24" viewBox="0 0 24 24" fill="none" xmlns="http://www.w3.org/2000/svg">
<path d="M15.0707 17.88L14.0607 20.1C13.8007 20.66 13.4207 21.15 12.9107 21.49C12.3907 21.84 11.7107 21.87 11.1707 21.53C9.53067 20.49 5.95071 17.82 3.78071 13.19C3.70071 13.03 3.92068 12.87 4.06068 12.97C4.63068 13.37 5.24066 13.65 5.91066 13.81C6.32066 13.9 6.7407 13.94 7.1407 13.94C9.0007 13.94 10.6807 12.99 11.8007 12.17C12.1307 11.93 12.5707 11.88 12.9107 12.09C14.0307 12.79 14.7807 13.63 15.1507 14.58C15.7907 16.26 15.0907 17.81 15.0707 17.88Z" fill="white"/>
<path d="M16.8492 18.05C16.7692 18.14 16.6093 18.04 16.6493 17.93C17.0893 16.47 17.6592 12.62 12.5592 10.18C12.2492 10.03 12.0192 9.75004 11.9792 9.41004C11.3592 3.85004 16.1493 2.85003 16.1493 2.85003C16.5393 2.77003 16.9492 2.77003 17.3292 2.88003C18.4092 3.17003 19.5092 3.57003 20.6192 4.11003C21.5692 4.57003 22.1192 5.57004 21.9792 6.62004C21.6492 9.10004 20.5492 13.88 16.8492 18.05Z" fill="white"/>
<path d="M10.56 10.21L10.5901 10.41C10.6601 10.79 10.5 11.18 10.18 11.38C8.03003 12.73 4.51002 13.75 2.36002 7.83998C2.16002 7.29998 2.04003 6.89999 2.00003 6.31999C1.95003 5.55999 2.38003 4.68999 3.06003 4.36999C4.82003 3.54999 8.54006 2.11999 13.0301 2.24999C13.2301 2.25999 13.3 2.51999 13.14 2.62999C11.41 3.94999 9.92003 6.32999 10.56 10.21Z" fill="white"/>
</svg>
