<svg width="24" height="24" viewBox="0 0 24 24" fill="none" xmlns="http://www.w3.org/2000/svg">
<path d="M18.9992 7C18.9992 7.18 18.9892 7.34999 18.9692 7.51999C18.8492 8.96999 18.2092 10.28 17.2392 11.24C16.1592 12.33 14.6592 13 12.9992 13H9.86923C9.36923 13 8.94924 13.37 8.87924 13.86L8.11923 19.14C8.05923 19.53 7.77924 19.85 7.40924 19.95C7.31924 19.99 7.22924 20 7.12924 20H5.17923C4.55923 20 4.08924 19.45 4.18924 18.84L6.57922 4.51001C6.81922 3.06001 8.06924 2 9.53924 2H13.9992C16.7592 2 18.9992 4.24 18.9992 7Z" fill="white"/>
<path d="M21.0007 11C21.0007 12.38 20.4407 13.63 19.5407 14.54C18.6307 15.44 17.3807 16 16.0007 16H13.8507C13.3607 16 12.9407 16.35 12.8607 16.84L12.1407 21.16C12.0607 21.65 11.6407 22 11.1507 22H8.22072C8.04072 22 7.88071 21.96 7.74071 21.88C7.52071 21.76 7.66071 21.47 7.90071 21.37C8.80071 21.08 9.46072 20.31 9.60072 19.35L10.2407 14.93C10.2807 14.68 10.4907 14.5 10.7307 14.5H13.0007C15.0107 14.5 16.9007 13.72 18.3007 12.31C19.1307 11.49 19.7507 10.48 20.1107 9.39004C20.1907 9.14004 20.5207 9.09003 20.6307 9.32003C20.8707 9.84003 21.0007 10.4 21.0007 11Z" fill="white"/>
</svg>
