<svg width="24" height="24" viewBox="0 0 24 24" fill="none" xmlns="http://www.w3.org/2000/svg">
<path d="M15.0195 2.23C13.0195 1.92 10.9796 1.92 8.97957 2.23C8.15957 2.36 7.55956 3.05999 7.55956 3.87999V7.55998H3.87956C3.05956 7.55998 2.35957 8.16 2.22957 8.98C1.91957 10.98 1.91957 13.02 2.22957 15.02C2.35957 15.84 3.05956 16.44 3.87956 16.44H5.55956C5.83956 16.44 6.05956 16.22 6.05956 15.94V14.22C6.05956 12.17 7.72956 10.5 9.77956 10.5H14.2196C14.6196 10.5 14.9396 10.18 14.9396 9.77999V6.55998C14.9396 6.27998 15.1596 6.05998 15.4396 6.05998H15.9396C16.2196 6.05998 16.4396 5.83998 16.4396 5.55998V3.87999C16.4396 3.05999 15.8395 2.36 15.0195 2.23ZM10.3295 5.57997C9.91955 5.57997 9.52956 5.18999 9.52956 4.77999C9.52956 4.35999 9.91955 3.96999 10.3295 3.96999C10.5295 3.96999 10.7496 4.06 10.8896 4.2C11.0396 4.34 11.1396 4.56999 11.1396 4.77999C11.1396 5.18999 10.7495 5.57997 10.3295 5.57997Z" fill="white"/>
<path d="M21.7696 8.98001C21.6396 8.16001 20.9396 7.56 20.1196 7.56H16.9396C16.6596 7.56 16.4396 7.78 16.4396 8.06V9.78C16.4396 11 15.4496 12 14.2196 12H9.77957C8.54957 12 7.55957 12.99 7.55957 14.22V20.12C7.55957 20.94 8.15958 21.64 8.97958 21.77C10.9796 22.08 13.0196 22.08 15.0196 21.77C15.8396 21.64 16.4396 20.94 16.4396 20.12V16.44H20.1196C20.9396 16.44 21.6396 15.84 21.7696 15.02C22.0796 13.02 22.0796 10.98 21.7696 8.98001ZM13.6696 20.03C13.2596 20.03 12.8596 19.64 12.8596 19.22C12.8596 18.8 13.2496 18.41 13.6696 18.41C13.8596 18.41 14.0896 18.5 14.2296 18.63C14.3796 18.77 14.4796 19.01 14.4796 19.21C14.4696 19.64 14.0796 20.03 13.6696 20.03Z" fill="white"/>
</svg>
