<svg width="24" height="24" viewBox="0 0 24 24" fill="none" xmlns="http://www.w3.org/2000/svg">
<path d="M20.4897 6.70996L12.4897 2.26996C12.1897 2.09996 11.8198 2.09996 11.5198 2.26996L3.51978 6.70996C3.19978 6.88996 3.00977 7.21995 3.00977 7.57995V16.3999C3.00977 16.7599 3.20978 17.1 3.51978 17.27L11.5397 21.7299C11.8297 21.8899 12.1797 21.9 12.4697 21.75L16.4998 19.74C16.8098 19.58 17.1797 19.5999 17.4797 19.7899L19.4697 21.0399C20.1397 21.4599 20.9998 20.98 20.9998 20.19V17.58C20.9998 17.22 20.7997 16.88 20.4897 16.71L17.4897 15.05C17.1897 14.88 16.8198 14.88 16.5198 15.05L12.4897 17.2899C12.1897 17.4599 11.8198 17.4599 11.5198 17.2899L7.51978 15.07C7.19978 14.89 7.00977 14.5599 7.00977 14.1999V9.81996C7.00977 9.45996 7.20978 9.11995 7.51978 8.94995L11.5198 6.72995C11.8198 6.55995 12.1897 6.55995 12.4897 6.72995L16.4897 8.94995C16.8097 9.12995 16.9998 9.45996 16.9998 9.81996V12.88C16.9998 13.69 17.9098 14.1599 18.5698 13.6999L20.5698 12.3099C20.8398 12.1199 20.9998 11.82 20.9998 11.49V7.59996C20.9998 7.22996 20.7997 6.88996 20.4897 6.70996Z" fill="white"/>
<path d="M15.8606 10.42V13.57C15.8606 13.92 15.6706 14.24 15.3606 14.41L12.4706 16.02C12.1806 16.18 11.8206 16.18 11.5306 16.02L8.64062 14.41C8.33062 14.24 8.14062 13.92 8.14062 13.57V10.42C8.14062 10.07 8.33062 9.74998 8.64062 9.57998L11.5306 7.96998C11.8206 7.80998 12.1806 7.80998 12.4706 7.96998L15.3606 9.57998C15.6706 9.74998 15.8606 10.07 15.8606 10.42Z" fill="white"/>
</svg>
