<svg width="24" height="24" viewBox="0 0 24 24" fill="none" xmlns="http://www.w3.org/2000/svg">
<path d="M14.5405 1.88C13.3105 1.88 12.3105 2.87999 12.3105 4.10999V8.75C12.3105 9.98 13.3105 10.98 14.5405 10.98C15.7705 10.98 16.7706 9.98 16.7706 8.75V4.10999C16.7706 2.88999 15.7705 1.88 14.5405 1.88Z" fill="white"/>
<path d="M20.1802 7.10999C19.1102 7.10999 18.2402 7.97999 18.2402 9.04999V10.62C18.2402 10.83 18.4102 11 18.6202 11H20.1902C21.2602 11 22.1302 10.13 22.1302 9.06C22.1302 7.99 21.2502 7.10999 20.1802 7.10999Z" fill="white"/>
<path d="M8.50085 6.98999H3.86086C2.63086 6.98999 1.63086 7.99 1.63086 9.22C1.63086 10.45 2.63086 11.45 3.86086 11.45H8.50085C9.73085 11.45 10.7309 10.45 10.7309 9.22C10.7309 7.99 9.73085 6.98999 8.50085 6.98999Z" fill="white"/>
<path d="M8.7896 1.62C7.7196 1.62 6.84961 2.49 6.84961 3.56C6.84961 4.63 7.7196 5.5 8.7896 5.5H10.3596C10.5696 5.5 10.7396 5.33 10.7396 5.12V3.54999C10.7296 2.49999 9.8596 1.62 8.7896 1.62Z" fill="white"/>
<path d="M9.42921 13.03C8.19921 13.03 7.19922 14.03 7.19922 15.26V19.9C7.19922 21.13 8.19921 22.13 9.42921 22.13C10.6592 22.13 11.6592 21.13 11.6592 19.9V15.26C11.6592 14.03 10.6592 13.03 9.42921 13.03Z" fill="white"/>
<path d="M5.3596 13.03H3.7896C2.7196 13.03 1.84961 13.9 1.84961 14.97C1.84961 16.04 2.7196 16.91 3.7896 16.91C4.8596 16.91 5.7296 16.04 5.7296 14.97V13.4C5.7296 13.2 5.5596 13.03 5.3596 13.03Z" fill="white"/>
<path d="M20.1102 12.5701H15.4702C14.2402 12.5701 13.2402 13.57 13.2402 14.8C13.2402 16.03 14.2402 17.0301 15.4702 17.0301H20.1102C21.3402 17.0301 22.3402 16.03 22.3402 14.8C22.3402 13.57 21.3402 12.5701 20.1102 12.5701Z" fill="white"/>
<path d="M15.1805 18.47H13.6105C13.4005 18.47 13.2305 18.64 13.2305 18.85V20.42C13.2305 21.49 14.1005 22.36 15.1705 22.36C16.2405 22.36 17.1105 21.49 17.1105 20.42C17.1205 19.34 16.2505 18.47 15.1805 18.47Z" fill="white"/>
</svg>
