<svg width="24" height="24" viewBox="0 0 24 24" fill="none" xmlns="http://www.w3.org/2000/svg">
<path d="M10.0503 2.85003L1.26035 11.64C1.06035 11.84 1.06035 12.15 1.26035 12.35L10.0503 21.14C10.3703 21.45 10.9004 21.23 10.9004 20.79V18.2C10.9004 18.07 10.8503 17.94 10.7503 17.85L5.25034 12.35C5.05034 12.15 5.05034 11.84 5.25034 11.64L10.7503 6.14004C10.8403 6.05004 10.9004 5.92003 10.9004 5.79003V3.20004C10.9004 2.76004 10.3603 2.54003 10.0503 2.85003Z" fill="white"/>
<path d="M13.7504 2.85003L22.5403 11.64C22.7403 11.84 22.7403 12.15 22.5403 12.35L13.7504 21.14C13.4404 21.45 12.9004 21.23 12.9004 20.79V18.2C12.9004 18.07 12.9504 17.94 13.0504 17.85L18.5504 12.35C18.7504 12.15 18.7504 11.84 18.5504 11.64L13.0504 6.14004C12.9604 6.05004 12.9004 5.92003 12.9004 5.79003V3.20004C12.9004 2.76004 13.4404 2.54003 13.7504 2.85003Z" fill="white"/>
<path d="M10.0503 9.85003L8.26035 11.64C8.06035 11.84 8.06035 12.15 8.26035 12.35L10.0503 14.14C10.3703 14.45 10.9004 14.23 10.9004 13.79V10.2C10.9004 9.76004 10.3603 9.54003 10.0503 9.85003Z" fill="white"/>
</svg>
