<svg width="24" height="24" viewBox="0 0 24 24" fill="none" xmlns="http://www.w3.org/2000/svg">
<path d="M19.4016 10.5299C19.9216 10.4299 20.2816 11.0199 19.9616 11.4399L13.0116 20.2899C12.6616 20.7399 11.9416 20.4499 12.0016 19.8899L12.7016 12.2899C12.7216 12.0399 12.9115 11.8299 13.1615 11.7799L19.4016 10.5299Z" fill="white"/>
<path d="M21.6408 7.68995C21.8608 7.92995 21.7408 8.31996 21.4308 8.38996L12.9908 10.08C12.4408 10.19 12.0808 9.51995 12.4808 9.11995L17.5008 4.09995C17.7308 3.86995 18.1008 3.87995 18.3208 4.10995L21.6408 7.68995Z" fill="white"/>
<path d="M14.691 3.18994C15.161 3.24994 15.351 3.81994 15.021 4.15994L11.461 7.71994C11.251 7.92994 10.911 7.93994 10.681 7.73994L5.34104 2.98994C4.92104 2.61994 5.24099 1.92994 5.79099 1.99994L14.691 3.18994Z" fill="white"/>
<path d="M10.7207 10.0699C10.9907 10.3099 11.1207 10.6599 11.1007 11.0099L10.2407 21.4699C10.1907 22.0699 9.36076 22.1899 9.14076 21.6299L2.29072 3.95994C2.07072 3.39994 2.75076 2.92994 3.20076 3.32994L10.7207 10.0699Z" fill="white"/>
</svg>
