<svg width="24" height="24" viewBox="0 0 24 24" fill="none" xmlns="http://www.w3.org/2000/svg">
<path d="M16.8203 1.90991H7.18031C5.06031 1.90991 3.32031 3.64991 3.32031 5.76991V19.8599C3.32031 21.6599 4.61031 22.4199 6.19031 21.5499L11.0703 18.8399C11.5903 18.5499 12.4303 18.5499 12.9403 18.8399L17.8203 21.5499C19.4003 22.4299 20.6903 21.6699 20.6903 19.8599V5.76991C20.6803 3.64991 18.9503 1.90991 16.8203 1.90991ZM15.6203 9.02991L11.6203 13.0299C11.4703 13.1799 11.2803 13.2499 11.0903 13.2499C10.9003 13.2499 10.7103 13.1799 10.5603 13.0299L9.06031 11.5299C8.77031 11.2399 8.77031 10.7599 9.06031 10.4699C9.35031 10.1799 9.83031 10.1799 10.1203 10.4699L11.0903 11.4399L14.5603 7.96991C14.8503 7.67991 15.3303 7.67991 15.6203 7.96991C15.9103 8.25991 15.9103 8.73991 15.6203 9.02991Z" fill="white"/>
</svg>
