<svg width="24" height="24" viewBox="0 0 24 24" fill="none" xmlns="http://www.w3.org/2000/svg">
<path d="M21.25 5.15V7.85C21.25 9.69 20.69 10.25 18.85 10.25H16.15C14.31 10.25 13.75 9.69 13.75 7.85V5.15C13.75 3.31 14.31 2.75 16.15 2.75H18.85C20.69 2.75 21.25 3.31 21.25 5.15Z" fill="white"/>
<path d="M10.25 16.15V18.85C10.25 20.69 9.69 21.25 7.85 21.25H5.15C3.31 21.25 2.75 20.69 2.75 18.85V16.15C2.75 14.31 3.31 13.75 5.15 13.75H7.85C9.69 13.75 10.25 14.31 10.25 16.15Z" fill="white"/>
<path d="M16.1501 11.75C16.4152 11.75 16.6301 11.9649 16.6301 12.23V13.62C16.6301 15.9 15.9001 16.63 13.6201 16.63H12.2301C11.965 16.63 11.7501 16.4151 11.7501 16.15C11.7501 13.49 10.5101 12.25 7.85012 12.25C7.58502 12.25 7.37012 12.0351 7.37012 11.77V10.38C7.37012 8.1 8.10012 7.37 10.3801 7.37H11.7701C12.0352 7.37 12.2501 7.5849 12.2501 7.85C12.2501 10.51 13.4901 11.75 16.1501 11.75Z" fill="white"/>
</svg>
