<svg width="24" height="24" viewBox="0 0 24 24" fill="none" xmlns="http://www.w3.org/2000/svg">
<path d="M21.9697 12C21.9697 15.31 19.2797 18 15.9697 18C15.2252 18 14.509 17.8643 13.8508 17.6141C13.5321 17.4929 13.4727 17.0851 13.6946 16.8262C14.8365 15.4938 15.4697 13.786 15.4697 12C15.4697 10.2082 14.8309 8.49432 13.6976 7.17467C13.475 6.91543 13.5339 6.50621 13.8534 6.38494C14.5109 6.13537 15.2262 6 15.9697 6C19.2797 6 21.9697 8.69 21.9697 12Z" fill="white"/>
<path d="M13.9697 12C13.9697 13.77 13.1997 15.37 11.9697 16.46C10.9097 17.42 9.50973 18 7.96973 18C4.65973 18 1.96973 15.31 1.96973 12C1.96973 8.69 4.65973 6 7.96973 6C9.50973 6 10.9097 6.58 11.9697 7.54C13.1997 8.63 13.9697 10.23 13.9697 12Z" fill="white"/>
</svg>
