<svg width="24" height="24" viewBox="0 0 24 24" fill="none" xmlns="http://www.w3.org/2000/svg">
<path d="M16.6504 4.79H16.3704C16.2704 4 15.9804 3.37 15.5204 2.9C14.9204 2.3 14.0504 2 12.9304 2H7.35035C5.10035 2 3.86035 3.24 3.86035 5.49C3.86035 6.61 4.16035 7.48 4.76035 8.08C5.36035 8.68 6.23035 8.98 7.35035 8.98H12.9304C14.9304 8.98 16.1304 7.99 16.3704 6.19H16.6504C18.7404 6.19 18.7404 6.47 18.7404 8.28V10.14C18.7404 11.95 18.7404 12.23 16.6504 12.23H12.9304C9.94035 12.23 9.51035 13.65 9.45035 15.03C8.55035 15.09 7.58035 15.51 7.58035 17.11V19.9C7.58035 21.63 8.72035 21.99 9.67035 21.99H10.6004C11.5504 21.99 12.6904 21.63 12.6904 19.9V17.11C12.6904 15.53 11.7404 15.09 10.8404 15.03C10.8904 14.02 11.1804 13.62 12.9204 13.62H16.6404C19.8904 13.62 20.1304 12.3 20.1304 10.13V8.28C20.1404 6.11 19.9004 4.79 16.6504 4.79Z" fill="white"/>
</svg>
