<svg width="24" height="24" viewBox="0 0 24 24" fill="none" xmlns="http://www.w3.org/2000/svg">
<path d="M21.8098 3.93997C20.4998 7.20997 17.5098 11.48 14.6598 14.27C14.2498 11.69 12.1898 9.66997 9.58984 9.30997C12.3898 6.44997 16.6898 3.41997 19.9698 2.09997C20.5498 1.87997 21.1298 2.04997 21.4898 2.40997C21.8698 2.78997 22.0498 3.35997 21.8098 3.93997Z" fill="white"/>
<path d="M13.7801 15.09C13.5801 15.26 13.3801 15.43 13.1801 15.59L11.3901 17.02C11.3901 16.99 11.3801 16.95 11.3801 16.91C11.2401 15.84 10.7401 14.85 9.93012 14.04C9.11012 13.22 8.09012 12.72 6.97012 12.58C6.94012 12.58 6.90012 12.57 6.87012 12.57L8.32012 10.74C8.46012 10.56 8.61012 10.39 8.77012 10.21L9.45012 10.3C11.6001 10.6 13.3301 12.29 13.6701 14.43L13.7801 15.09Z" fill="white"/>
<path d="M10.4298 17.6199C10.4298 18.7199 10.0098 19.7699 9.20976 20.5599C8.59976 21.1799 7.77977 21.5999 6.77977 21.7199L4.32976 21.9899C2.98976 22.1399 1.83976 20.9899 1.98976 19.6399L2.25976 17.1799C2.49976 14.9899 4.32976 13.5899 6.26976 13.5499C6.45976 13.5399 6.66976 13.5499 6.86976 13.5699C7.71976 13.6799 8.53976 14.0699 9.22976 14.7499C9.89976 15.4199 10.2798 16.2099 10.3898 17.0399C10.4098 17.2399 10.4298 17.4299 10.4298 17.6199Z" fill="white"/>
</svg>
