<svg width="24" height="24" viewBox="0 0 24 24" fill="none" xmlns="http://www.w3.org/2000/svg">
<path d="M21.2505 5.77V9C21.2505 11.1146 20.5427 11.899 18.6312 12.0068C18.3555 12.0223 18.1305 11.7961 18.1305 11.52V10.38C18.1305 7.26 16.7405 5.87 13.6205 5.87H12.4805C12.2043 5.87 11.9781 5.64494 11.9937 5.36924C12.1014 3.45773 12.8859 2.75 15.0005 2.75H18.2305C20.5205 2.75 21.2505 3.48 21.2505 5.77Z" fill="white"/>
<path d="M16.6301 10.38V13.62C16.6301 15.9 15.9001 16.63 13.6201 16.63H10.3801C8.10012 16.63 7.37012 15.9 7.37012 13.62V10.38C7.37012 8.1 8.10012 7.37 10.3801 7.37H13.6201C15.9001 7.37 16.6301 8.1 16.6301 10.38Z" fill="white"/>
<path d="M11.52 18.13C11.7961 18.13 12.0223 18.355 12.0068 18.6307C11.899 20.5422 11.1146 21.25 9 21.25H5.77C3.48 21.25 2.75 20.52 2.75 18.23V15C2.75 12.8854 3.45773 12.101 5.36924 11.9932C5.64494 11.9777 5.87 12.2038 5.87 12.48V13.62C5.87 16.74 7.26 18.13 10.38 18.13H11.52Z" fill="white"/>
</svg>
