<svg width="24" height="24" viewBox="0 0 24 24" fill="none" xmlns="http://www.w3.org/2000/svg">
<path d="M19.4998 7.5L18.0098 8.99L15.0098 5.99L16.4998 4.5C16.9198 4.08 17.4598 3.88 17.9998 3.88C18.5398 3.88 19.0798 4.08 19.4998 4.5C20.3298 5.33 20.3298 6.67 19.4998 7.5Z" fill="white"/>
<path d="M17.3104 9.69995L6.50043 20.5C5.67043 21.33 4.33043 21.33 3.50043 20.5C2.67043 19.67 2.67043 18.33 3.50043 17.5L14.3104 6.69995L17.3104 9.69995Z" fill="white"/>
<path d="M9.94953 3.50002L10.3595 2.11002C10.3995 1.98002 10.3595 1.84002 10.2695 1.74002C10.1795 1.64002 10.0195 1.60002 9.88953 1.64002L8.49953 2.05002L7.10953 1.64002C6.97953 1.60002 6.83953 1.64002 6.73953 1.73002C6.63953 1.83002 6.60953 1.97002 6.64953 2.10002L7.04953 3.50002L6.63953 4.89002C6.59953 5.02002 6.63953 5.16002 6.72953 5.26002C6.82953 5.36002 6.96953 5.39002 7.09953 5.35002L8.49953 4.95002L9.88953 5.36002C9.92953 5.37002 9.95953 5.38002 9.99953 5.38002C10.0995 5.38002 10.1895 5.34002 10.2695 5.27002C10.3695 5.17002 10.3995 5.03002 10.3595 4.90002L9.94953 3.50002Z" fill="white"/>
<path d="M5.94953 9.50002L6.35953 8.11002C6.39953 7.98002 6.35953 7.84002 6.26953 7.74002C6.16953 7.64002 6.02953 7.61002 5.89953 7.65002L4.49953 8.05002L3.10953 7.64002C2.97953 7.60002 2.83953 7.64002 2.73953 7.73002C2.63953 7.83002 2.60953 7.97002 2.64953 8.10002L3.04953 9.50002L2.63953 10.89C2.59953 11.02 2.63953 11.16 2.72953 11.26C2.82953 11.36 2.96953 11.39 3.09953 11.35L4.48953 10.94L5.87953 11.35C5.90953 11.36 5.94953 11.36 5.98953 11.36C6.08953 11.36 6.17953 11.32 6.25953 11.25C6.35953 11.15 6.38953 11.01 6.34953 10.88L5.94953 9.50002Z" fill="white"/>
<path d="M20.9497 14.5L21.3597 13.11C21.3997 12.98 21.3597 12.84 21.2697 12.74C21.1697 12.64 21.0297 12.61 20.8997 12.65L19.5097 13.06L18.1197 12.65C17.9897 12.61 17.8497 12.65 17.7497 12.74C17.6497 12.84 17.6197 12.98 17.6597 13.11L18.0697 14.5L17.6597 15.89C17.6197 16.02 17.6597 16.16 17.7497 16.26C17.8497 16.36 17.9897 16.39 18.1197 16.35L19.5097 15.94L20.8997 16.35C20.9297 16.36 20.9697 16.36 21.0097 16.36C21.1097 16.36 21.1997 16.32 21.2797 16.25C21.3797 16.15 21.4097 16.01 21.3697 15.88L20.9497 14.5Z" fill="white"/>
</svg>
