<svg width="24" height="24" viewBox="0 0 24 24" fill="none" xmlns="http://www.w3.org/2000/svg">
<path d="M16.2402 9.51998L20.9502 14.23C21.2302 14.51 21.7202 14.36 21.8002 13.97C21.9302 13.33 22.0002 12.67 22.0002 12C22.0002 9.70998 21.2202 7.59998 19.9302 5.91998C19.7502 5.67998 19.3902 5.66998 19.1802 5.87998L16.2402 8.81998C16.0502 9.00998 16.0502 9.32998 16.2402 9.51998Z" fill="white"/>
<path d="M14.4796 10.58L12.7096 12.35C12.5096 12.55 12.5096 12.86 12.7096 13.06L18.5296 18.88C18.7296 19.08 19.0496 19.08 19.2396 18.88C19.8596 18.23 20.3896 17.5 20.8196 16.71C20.9196 16.52 20.8796 16.27 20.7296 16.12L15.1896 10.58C14.9896 10.39 14.6696 10.39 14.4796 10.58Z" fill="white"/>
<path d="M10.9403 14.12L9.18027 15.88C8.98027 16.08 8.98027 16.39 9.18027 16.59L14.1003 21.52C14.2303 21.65 14.4203 21.7 14.5903 21.65C15.5203 21.4 16.4003 21.02 17.2003 20.52C17.4703 20.35 17.5103 19.97 17.2803 19.74L11.6503 14.11C11.4503 13.93 11.1303 13.93 10.9403 14.12Z" fill="white"/>
<path d="M18.0797 4.07004C16.0997 2.54004 13.5297 1.74003 10.7697 2.07003C6.25967 2.61003 2.60967 6.27004 2.06967 10.77C1.73967 13.53 2.53967 16.09 4.06967 18.08C4.24967 18.32 4.60967 18.33 4.81967 18.12L18.1197 4.82004C18.3297 4.61004 18.3197 4.25004 18.0797 4.07004Z" fill="white"/>
<path d="M7.39974 17.67L5.87974 19.19C5.66974 19.4 5.67974 19.76 5.91974 19.94C7.42974 21.11 9.27974 21.85 11.3097 21.99C11.7397 22.02 11.9497 21.51 11.6397 21.2L8.10974 17.67C7.91974 17.47 7.59974 17.47 7.39974 17.67Z" fill="white"/>
</svg>
