<svg width="24" height="24" viewBox="0 0 24 24" fill="none" xmlns="http://www.w3.org/2000/svg">
<path d="M18.6503 4.59003C16.8903 2.99003 14.5603 2.03003 12.0003 2.03003C6.50027 2.03003 2.03027 6.50003 2.03027 12C2.03027 17.5 6.50027 21.97 12.0003 21.97C14.5603 21.97 16.8903 21.01 18.6503 19.41C20.6903 17.6 21.9703 14.94 21.9703 12C21.9703 9.06003 20.6903 6.40003 18.6503 4.59003ZM11.9703 16.39C11.9503 18.04 10.7203 18.44 9.57027 17.98C7.20027 17.03 5.53027 14.71 5.53027 12C5.53027 9.29003 7.20027 6.97003 9.57027 6.01003C10.7203 5.55003 11.9503 5.96003 11.9703 7.60003V16.39Z" fill="white"/>
</svg>
