<svg width="24" height="24" viewBox="0 0 24 24" fill="none" xmlns="http://www.w3.org/2000/svg">
<path d="M20.0199 10.7L17.8999 12.04C17.4999 12.29 16.9899 12.23 16.6599 11.9L12.1299 7.37004C11.7999 7.04004 11.7399 6.53004 11.9899 6.13004L13.3299 4.01004C14.1499 2.72004 15.7899 2.66004 16.9999 3.86004L20.1799 7.04004C21.2999 8.17004 21.2299 9.93004 20.0199 10.7Z" fill="white"/>
<path d="M14.7097 19.95L5.98966 20.97C5.91198 20.9804 5.83531 20.9877 5.75971 20.9921C5.07458 21.0325 4.90471 20.2249 5.39001 19.7396L7.97966 17.15C8.29966 16.84 8.29966 16.35 7.97966 16.04C7.67966 15.73 7.18966 15.73 6.86966 16.04L4.28001 18.6296C3.79471 19.1149 2.99458 18.9444 3.03099 18.259C3.03481 18.1871 3.04102 18.1141 3.04966 18.04L4.07966 9.32C4.33966 7.14 5.13966 6.42 7.43966 6.56L8.93966 6.65C9.42966 6.68 9.88966 6.89 10.2397 7.24L16.7897 13.79C17.1397 14.14 17.3497 14.6 17.3697 15.09L17.4597 16.59C17.6897 18.9 16.8997 19.7 14.7097 19.95Z" fill="white"/>
</svg>
