<svg width="24" height="24" viewBox="0 0 24 24" fill="none" xmlns="http://www.w3.org/2000/svg">
<path d="M6.5 2C5.44 2 4.46 2.37 3.69 2.99C2.65 3.81 2 5.08 2 6.5C2 7.34 2.24 8.14 2.65 8.82C3.19 9.72 4.04 10.42 5.06 10.76C5.51 10.92 5.99 11 6.5 11C7.64 11 8.67 10.58 9.46 9.88C9.81 9.58 10.11 9.22 10.35 8.82C10.56 8.47 10.72 8.1 10.83 7.7C10.94 7.32 11 6.91 11 6.5C11 4.01 8.99 2 6.5 2ZM8.16 7.25H7.27V8.18C7.27 8.59 6.93 8.93 6.52 8.93C6.11 8.93 5.77 8.6 5.77 8.18V7.25H4.8C4.39 7.25 4.05 6.91 4.05 6.5C4.05 6.09 4.39 5.75 4.8 5.75H5.77V4.82C5.77 4.41 6.11 4.07 6.52 4.07C6.93 4.07 7.27 4.4 7.27 4.82V5.75H8.16C8.57 5.75 8.91 6.09 8.91 6.5C8.91 6.91 8.58 7.25 8.16 7.25Z" fill="white"/>
<path d="M16.0003 21.29L6.64034 22.39C5.99034 22.47 5.41034 22.37 4.92034 22.13C4.40034 21.87 3.99034 21.47 3.73034 20.94C3.49034 20.45 3.40034 19.88 3.47034 19.24L4.32034 12.09C4.40034 12.12 4.48034 12.15 4.56034 12.17C5.17034 12.39 5.82034 12.5 6.50034 12.5C7.96034 12.5 9.37034 11.97 10.4403 11.02C10.9003 10.62 11.3103 10.14 11.6403 9.59003C11.9203 9.12003 12.1303 8.62003 12.2703 8.13003C12.3403 7.87003 12.4003 7.59003 12.4403 7.31003C12.4503 7.26003 12.4503 7.21003 12.4503 7.16003L12.6203 7.17003L18.7003 13.26L18.9603 17.68C19.2103 20.16 18.3503 21.02 16.0003 21.29Z" fill="white"/>
<path d="M21.9996 10.28L19.9296 11.59C19.5396 11.83 19.0396 11.78 18.7196 11.45L14.2896 7.02003C13.9696 6.70003 13.9096 6.20003 14.1496 5.81003L15.4596 3.74003C16.2596 2.48003 17.8596 2.42003 19.0496 3.59003L22.1596 6.70003C23.2496 7.81003 23.1796 9.53003 21.9996 10.28Z" fill="white"/>
</svg>
