<svg width="24" height="24" viewBox="0 0 24 24" fill="none" xmlns="http://www.w3.org/2000/svg">
<path d="M20.9795 10.7C20.7595 6.8 17.8695 3.55 14.0095 2.89C13.9495 2.12 13.3095 1.5 12.5195 1.5H11.5195C10.7295 1.5 10.0995 2.11 10.0295 2.88C6.14953 3.52 3.23953 6.78 3.01953 10.7C2.30953 10.82 1.76953 11.43 1.76953 12.17V13.17C1.76953 14 2.43953 14.67 3.26953 14.67H4.26953C5.09953 14.67 5.76953 14 5.76953 13.17V12.17C5.76953 11.43 5.22953 10.82 4.51953 10.7C4.72953 7.58 7.01953 4.99 10.0795 4.39C10.2495 5.03 10.8295 5.5 11.5195 5.5H12.5195C13.2095 5.5 13.7795 5.03 13.9595 4.4C16.9995 5.01 19.2695 7.6 19.4795 10.7C18.7695 10.82 18.2295 11.43 18.2295 12.17V13.17C18.2295 14 18.8995 14.67 19.7295 14.67H20.7295C21.5595 14.67 22.2295 14 22.2295 13.17V12.17C22.2295 11.43 21.6895 10.81 20.9795 10.7Z" fill="white"/>
<path d="M15.7703 16.55L14.1303 18H9.88032L8.24032 16.55C7.29032 15.77 7.29032 15.17 8.01032 14.25L10.9003 10.59C11.1003 10.34 11.3303 10.17 11.5903 10.08C11.8603 9.98995 12.1503 9.98995 12.4303 10.08C12.6803 10.17 12.9103 10.34 13.1203 10.59L16.0003 14.24C16.7303 15.16 16.6903 15.73 15.7703 16.55Z" fill="white"/>
<path d="M13.3202 22H10.7302C9.81017 22 9.12017 21.25 9.30017 20.45L9.61017 19.06C9.67017 18.78 9.92017 18.59 10.2002 18.59H13.8502C14.1302 18.59 14.3702 18.78 14.4402 19.06L14.7502 20.45C14.9402 21.3 14.3002 22 13.3202 22Z" fill="white"/>
</svg>
