<svg width="24" height="24" viewBox="0 0 24 24" fill="none" xmlns="http://www.w3.org/2000/svg">
<path d="M18.4697 2H14.4697C12.9769 2 11.7429 3.28581 11.5095 4.75204C11.4661 5.02475 11.6936 5.25 11.9697 5.25H16.4697C16.8797 5.25 17.2197 5.59 17.2197 6C17.2197 6.41 16.8797 6.75 16.4697 6.75H11.9697C11.6936 6.75 11.4697 6.97386 11.4697 7.25V8.75C11.4697 9.02614 11.6936 9.25 11.9697 9.25H14.2797C14.6897 9.25 15.0297 9.59 15.0297 10C15.0297 10.41 14.6897 10.75 14.2797 10.75H11.9697C11.6936 10.75 11.4697 10.9739 11.4697 11.25V12.705C11.4697 12.9792 11.6905 13.2022 11.9647 13.2049L16.4697 13.25C16.8897 13.25 17.2197 13.59 17.2197 14.01C17.2097 14.42 16.8797 14.75 16.4697 14.75C16.4597 14.75 16.4597 14.75 16.4597 14.75L11.9747 14.7051C11.6966 14.7023 11.4697 14.9269 11.4697 15.205V16.75C11.4697 17.0261 11.6936 17.25 11.9697 17.25H15.3697C15.7897 17.25 16.1197 17.59 16.1197 18C16.1197 18.41 15.7897 18.75 15.3697 18.75H11.9697C11.6936 18.75 11.4661 18.9753 11.5095 19.248C11.7429 20.7142 12.9769 22 14.4697 22H18.4697C20.1197 22 21.4697 20.66 21.4697 19V5C21.4697 3.34 20.1197 2 18.4697 2Z" fill="white"/>
<path d="M8.44027 4.95V5.75C8.44027 6.02614 8.21642 6.25 7.94027 6.25H3.03027C2.75413 6.25 2.53027 6.02614 2.53027 5.75V4.95C2.53027 3.33 3.86027 2 5.49027 2C7.11027 2 8.44027 3.33 8.44027 4.95Z" fill="white"/>
<path d="M2.53027 17.91C2.53027 18.36 2.72027 19.05 2.96027 19.43L3.77027 20.79C4.72027 22.37 6.26027 22.37 7.20027 20.79L8.02027 19.43C8.25027 19.05 8.44027 18.36 8.44027 17.91V8.25C8.44027 7.97386 8.21642 7.75 7.94027 7.75H3.03027C2.75413 7.75 2.53027 7.97386 2.53027 8.25V17.91Z" fill="white"/>
</svg>
