<svg width="24" height="24" viewBox="0 0 24 24" fill="none" xmlns="http://www.w3.org/2000/svg">
<path d="M11.75 7H11H7C4.24 7 2 9.24 2 12V17C2 19.76 4.24 22 7 22H12C14.76 22 17 19.76 17 17V13V12.25C17 9.35 14.65 7 11.75 7Z" fill="white"/>
<path d="M21.8796 6.32996C22.4042 8.88955 21.1619 11.2119 19.1588 12.3056C18.8512 12.4736 18.4996 12.234 18.4996 11.8835V11.75C18.4996 8.30996 15.6896 5.49996 12.2496 5.49996H12.1161C11.7657 5.49996 11.526 5.14842 11.694 4.84082C12.7877 2.83774 15.1101 1.59538 17.6696 2.11996C19.7596 2.54996 21.4496 4.23996 21.8796 6.32996Z" fill="white"/>
</svg>
