<svg width="24" height="24" viewBox="0 0 24 24" fill="none" xmlns="http://www.w3.org/2000/svg">
<path d="M19.24 5.58006H18.84L15.46 2.20006C15.19 1.93006 14.75 1.93006 14.47 2.20006C14.2 2.47006 14.2 2.91006 14.47 3.19006L16.86 5.58006H7.14L9.53 3.19006C9.8 2.92006 9.8 2.48006 9.53 2.20006C9.26 1.93006 8.82 1.93006 8.54 2.20006L5.17 5.58006H4.77C3.87 5.58006 2 5.58006 2 8.14006C2 9.11006 2.2 9.75006 2.62 10.1701C2.86 10.4201 3.15 10.5501 3.46 10.6201C3.75 10.6901 4.06 10.7001 4.36 10.7001H19.64C19.95 10.7001 20.24 10.6801 20.52 10.6201C21.36 10.4201 22 9.82006 22 8.14006C22 5.58006 20.13 5.58006 19.24 5.58006Z" fill="white"/>
<path d="M19.0897 12H4.90971C4.28971 12 3.81971 12.55 3.91971 13.16L4.75971 18.3C5.03971 20.02 5.78971 22 9.11971 22H14.7297C18.0997 22 18.6997 20.31 19.0597 18.42L20.0697 13.19C20.1897 12.57 19.7197 12 19.0897 12ZM14.8797 16.05L11.6297 19.05C11.4897 19.18 11.3097 19.25 11.1197 19.25C10.9297 19.25 10.7397 19.18 10.5897 19.03L9.08971 17.53C8.79971 17.24 8.79971 16.76 9.08971 16.47C9.38971 16.18 9.85971 16.18 10.1597 16.47L11.1497 17.46L13.8697 14.95C14.1697 14.67 14.6497 14.69 14.9297 14.99C15.2097 15.3 15.1897 15.77 14.8797 16.05Z" fill="white"/>
</svg>
