<svg width="24" height="24" viewBox="0 0 24 24" fill="none" xmlns="http://www.w3.org/2000/svg">
<path d="M19.9597 8.9599C19.2897 8.2199 18.2797 7.7899 16.8797 7.6399V6.8799C16.8797 5.5099 16.2997 4.1899 15.2797 3.2699C14.2497 2.3299 12.9097 1.8899 11.5197 2.0199C9.12975 2.2499 7.11975 4.5599 7.11975 7.0599V7.6399C5.71975 7.7899 4.70975 8.2199 4.03975 8.9599C3.06975 10.0399 3.09975 11.4799 3.20975 12.4799L3.90975 18.0499C4.11975 19.9999 4.90975 21.9999 9.20975 21.9999H14.7897C19.0897 21.9999 19.8797 19.9999 20.0897 18.0599L20.7897 12.4699C20.8997 11.4799 20.9297 10.0399 19.9597 8.9599ZM11.6597 3.4099C12.6597 3.3199 13.6097 3.6299 14.3497 4.2999C15.0797 4.9599 15.4897 5.8999 15.4897 6.8799V7.5799H8.50975V7.0599C8.50975 5.2799 9.97975 3.5699 11.6597 3.4099ZM11.9997 18.5799C9.90975 18.5799 8.20975 16.8799 8.20975 14.7899C8.20975 12.6999 9.90975 10.9999 11.9997 10.9999C14.0897 10.9999 15.7897 12.6999 15.7897 14.7899C15.7897 16.8799 14.0897 18.5799 11.9997 18.5799Z" fill="white"/>
<path d="M10.9999 16.5801C10.7499 16.5801 10.4999 16.4501 10.3599 16.2201C10.1499 15.8701 10.2599 15.4001 10.6199 15.1901L11.5099 14.6601V13.5801C11.5099 13.1701 11.8499 12.8301 12.2599 12.8301C12.6699 12.8301 12.9999 13.1601 12.9999 13.5801V15.0801C12.9999 15.3401 12.8599 15.5901 12.6399 15.7201L11.3899 16.4701C11.2699 16.5401 11.1299 16.5801 10.9999 16.5801Z" fill="white"/>
</svg>
