<svg width="24" height="24" viewBox="0 0 24 24" fill="none" xmlns="http://www.w3.org/2000/svg">
<path d="M19.24 5.58006H18.84L15.46 2.20006C15.19 1.93006 14.75 1.93006 14.47 2.20006C14.2 2.47006 14.2 2.91006 14.47 3.19006L16.86 5.58006H7.14L9.53 3.19006C9.8 2.92006 9.8 2.48006 9.53 2.20006C9.26 1.93006 8.82 1.93006 8.54 2.20006L5.17 5.58006H4.77C3.87 5.58006 2 5.58006 2 8.14006C2 9.11006 2.2 9.75006 2.62 10.1701C2.86 10.4201 3.15 10.5501 3.46 10.6201C3.75 10.6901 4.06 10.7001 4.36 10.7001H19.64C19.95 10.7001 20.24 10.6801 20.52 10.6201C21.36 10.4201 22 9.82006 22 8.14006C22 5.58006 20.13 5.58006 19.24 5.58006Z" fill="white"/>
<path d="M19.0897 12H4.90971C4.28971 12 3.81971 12.55 3.91971 13.16L4.75971 18.3C5.03971 20.02 5.78971 22 9.11971 22H14.7297C18.0997 22 18.6997 20.31 19.0597 18.42L20.0697 13.19C20.1897 12.57 19.7197 12 19.0897 12ZM13.9197 18.89C13.7797 19.04 13.5897 19.11 13.3897 19.11C13.1997 19.11 13.0097 19.04 12.8597 18.89L12.0197 18.04L11.1397 18.92C10.9897 19.07 10.7997 19.14 10.6097 19.14C10.4097 19.14 10.2197 19.07 10.0797 18.92C9.77971 18.63 9.77971 18.16 10.0797 17.86L10.9597 16.98L10.1097 16.14C9.80971 15.84 9.80971 15.37 10.1097 15.08C10.3997 14.78 10.8697 14.78 11.1697 15.08L12.0197 15.92L12.8297 15.11C13.1297 14.81 13.5997 14.81 13.8897 15.11C14.1897 15.4 14.1897 15.87 13.8897 16.17L13.0797 16.98L13.9197 17.83C14.2197 18.13 14.2197 18.6 13.9197 18.89Z" fill="white"/>
</svg>
