<svg width="24" height="24" viewBox="0 0 24 24" fill="none" xmlns="http://www.w3.org/2000/svg">
<path d="M15.2592 21.9999C15.1992 21.9999 15.1292 21.9899 15.0692 21.9699C13.0592 21.3999 10.9492 21.3999 8.93918 21.9699C8.56918 22.0699 8.17918 21.8599 8.07918 21.4899C7.96918 21.1199 8.18918 20.7299 8.55918 20.6299C10.8192 19.9899 13.1992 19.9899 15.4592 20.6299C15.8292 20.7399 16.0492 21.1199 15.9392 21.4899C15.8392 21.7999 15.5592 21.9999 15.2592 21.9999Z" fill="white"/>
<path d="M19.2107 6.36001C18.1707 4.26001 16.1607 2.71001 13.8307 2.20001C11.3907 1.66001 8.8907 2.24001 6.9807 3.78001C5.0607 5.31001 3.9707 7.60001 3.9707 10.05C3.9707 12.64 5.5207 15.35 7.8607 16.92V17.75C7.8507 18.03 7.8407 18.46 8.1807 18.81C8.5307 19.17 9.0507 19.21 9.4607 19.21H14.5907C15.1307 19.21 15.5407 19.06 15.8207 18.78C16.2007 18.39 16.1907 17.89 16.1807 17.62V16.92C19.2807 14.83 21.2307 10.42 19.2107 6.36001ZM13.7207 11.62L12.6507 13.48C12.5107 13.72 12.2607 13.86 12.0007 13.86C11.8707 13.86 11.7407 13.83 11.6307 13.76C11.2707 13.55 11.1507 13.09 11.3507 12.74L12.2007 11.26H11.3607C10.8607 11.26 10.4507 11.04 10.2307 10.67C10.0107 10.29 10.0307 9.83001 10.2807 9.39001L11.3507 7.53001C11.5607 7.17001 12.0207 7.05001 12.3707 7.25001C12.7307 7.46001 12.8507 7.92001 12.6507 8.27001L11.8007 9.75001H12.6407C13.1407 9.75001 13.5507 9.97001 13.7707 10.34C13.9907 10.72 13.9707 11.19 13.7207 11.62Z" fill="white"/>
</svg>
