<svg width="24" height="24" viewBox="0 0 24 24" fill="none" xmlns="http://www.w3.org/2000/svg">
<path d="M19 8C20.6569 8 22 6.65685 22 5C22 3.34315 20.6569 2 19 2C17.3431 2 16 3.34315 16 5C16 6.65685 17.3431 8 19 8Z" fill="white"/>
<path d="M17.7892 9.34C16.2792 8.94 15.0592 7.72 14.6592 6.21C14.3992 5.25 14.4592 4.33 14.7492 3.51C14.9492 2.95 14.6092 2.33 14.0292 2.21C12.5592 1.9 10.9692 1.91 9.30923 2.36C5.52923 3.42 2.63923 6.69 2.09923 10.58C1.17923 17.2 6.78923 22.81 13.4092 21.9C17.3092 21.36 20.5692 18.47 21.6192 14.68C22.0792 13.03 22.0892 11.44 21.7792 9.96C21.6592 9.38 21.0392 9.05 20.4792 9.24C19.6692 9.53 18.7492 9.59 17.7892 9.34Z" fill="white"/>
</svg>
