<svg width="24" height="24" viewBox="0 0 24 24" fill="none" xmlns="http://www.w3.org/2000/svg">
<path d="M20.1892 14.06L19.0592 12.18C18.8092 11.77 18.5892 10.98 18.5892 10.5V8.63005C18.5892 5.00005 15.6392 2.05005 12.0192 2.05005C8.38923 2.06005 5.43923 5.00005 5.43923 8.63005V10.49C5.43923 10.97 5.21923 11.76 4.97923 12.17L3.84923 14.05C3.41923 14.78 3.31923 15.61 3.58923 16.33C3.85923 17.06 4.46923 17.64 5.26923 17.9C6.34923 18.26 7.43923 18.52 8.54923 18.71C8.65923 18.73 8.76923 18.74 8.87923 18.76C9.01923 18.78 9.16923 18.8 9.31923 18.82C9.57923 18.86 9.83923 18.89 10.1092 18.91C10.7392 18.97 11.3792 19 12.0192 19C12.6492 19 13.2792 18.97 13.8992 18.91C14.1292 18.89 14.3592 18.87 14.5792 18.84C14.7592 18.82 14.9392 18.8001 15.1192 18.7701C15.2292 18.7601 15.3392 18.74 15.4492 18.72C16.5692 18.54 17.6792 18.26 18.7592 17.9C19.5292 17.64 20.1192 17.06 20.3992 16.32C20.6792 15.57 20.5992 14.75 20.1892 14.06ZM12.7492 10C12.7492 10.42 12.4092 10.76 11.9892 10.76C11.5692 10.76 11.2292 10.42 11.2292 10V6.90005C11.2292 6.48005 11.5692 6.14005 11.9892 6.14005C12.4092 6.14005 12.7492 6.48005 12.7492 6.90005V10Z" fill="white"/>
<path d="M14.8297 20.01C14.4097 21.17 13.2997 22 11.9997 22C11.2097 22 10.4297 21.68 9.87969 21.11C9.55969 20.81 9.31969 20.41 9.17969 20C9.30969 20.02 9.43969 20.03 9.57969 20.05C9.80969 20.08 10.0497 20.11 10.2897 20.13C10.8597 20.18 11.4397 20.21 12.0197 20.21C12.5897 20.21 13.1597 20.18 13.7197 20.13C13.9297 20.11 14.1397 20.1 14.3397 20.07C14.4997 20.05 14.6597 20.03 14.8297 20.01Z" fill="white"/>
</svg>
