<svg width="24" height="24" viewBox="0 0 24 24" fill="none" xmlns="http://www.w3.org/2000/svg">
<path d="M17.38 10.75C17.38 10.53 17.14 10.25 16.88 10.25H14.94H14.5V11.25H16.88C17.15 11.25 17.38 11.03 17.38 10.75Z" fill="white"/>
<path d="M17.32 12.75H16.87H14.5V13.75H14.94H17.32C17.69 13.75 18 13.52 18 13.25C18 12.98 17.69 12.75 17.32 12.75Z" fill="white"/>
<path d="M17.85 3.40002H6.15C3.86 3.40002 2 5.25002 2 7.54002V16.46C2 18.75 3.86 20.6 6.15 20.6H17.85C20.14 20.6 22 18.75 22 16.46V7.54002C22 5.25002 20.14 3.40002 17.85 3.40002ZM9.25 12.75H5.25C4.84 12.75 4.5 12.41 4.5 12C4.5 11.59 4.84 11.25 5.25 11.25H9.25C9.66 11.25 10 11.59 10 12C10 12.41 9.66 12.75 9.25 12.75ZM17.32 15.25H16.26V15.75C16.26 16.16 15.92 16.5 15.51 16.5C15.1 16.5 14.76 16.16 14.76 15.75V15.25H13.75H12.75C12.34 15.25 12 14.91 12 14.5C12 14.09 12.34 13.75 12.75 13.75H13V12V10.25H12.75C12.34 10.25 12 9.91002 12 9.50002C12 9.09002 12.34 8.75002 12.75 8.75002H13.75H14.76V8.25002C14.76 7.84002 15.1 7.50002 15.51 7.50002C15.92 7.50002 16.26 7.84002 16.26 8.25002V8.75002H16.87C17.94 8.75002 18.87 9.68002 18.87 10.75C18.87 11.08 18.78 11.39 18.64 11.67C19.16 12.04 19.5 12.61 19.5 13.25C19.5 14.35 18.52 15.25 17.32 15.25Z" fill="white"/>
</svg>
