<svg width="24" height="24" viewBox="0 0 24 24" fill="none" xmlns="http://www.w3.org/2000/svg">
<path d="M23.5293 12.05C23.2393 11.76 22.7593 11.76 22.4693 12.05L22.0093 12.51V12C22.0093 6.47999 17.5193 1.98999 11.9993 1.98999C8.94927 1.98999 6.09927 3.35999 4.18927 5.73999C3.92927 6.05999 3.97927 6.53999 4.30927 6.79999C4.62927 7.04999 5.09927 6.99999 5.35927 6.67999C6.98927 4.64999 9.40927 3.48999 11.9993 3.48999C16.6893 3.48999 20.5093 7.30999 20.5093 12V12.5L20.0493 12.04C19.7593 11.75 19.2793 11.75 18.9893 12.04C18.6993 12.33 18.6993 12.81 18.9893 13.1L20.7293 14.84C20.7993 14.91 20.8793 14.96 20.9693 15C21.0593 15.04 21.1593 15.06 21.2593 15.06C21.3593 15.06 21.4493 15.04 21.5493 15C21.6393 14.96 21.7193 14.91 21.7893 14.84L23.5293 13.1C23.8193 12.82 23.8193 12.34 23.5293 12.05Z" fill="white"/>
<path d="M19.6895 17.2C19.3695 16.94 18.8895 16.99 18.6395 17.32C17.0095 19.35 14.5895 20.51 11.9995 20.51C7.30945 20.51 3.48945 16.69 3.48945 12V11.5L3.94945 11.96C4.09945 12.11 4.28945 12.18 4.47945 12.18C4.66945 12.18 4.85945 12.1 4.99945 11.95C5.28945 11.66 5.28945 11.18 4.99945 10.89L3.26945 9.14999C3.19945 9.08999 3.10945 9.02999 3.01945 8.98999C2.83945 8.90999 2.62945 8.90999 2.44945 8.98999C2.35945 9.02999 2.27945 9.08999 2.20945 9.14999L0.469453 10.89C0.179453 11.18 0.179453 11.66 0.469453 11.95C0.759453 12.24 1.23945 12.24 1.52945 11.95L1.98945 11.49V12C1.98945 17.52 6.47945 22.01 11.9995 22.01C15.0495 22.01 17.8995 20.64 19.8095 18.26C20.0695 17.94 20.0195 17.46 19.6895 17.2Z" fill="white"/>
<path d="M15.45 11.64C15.72 11.24 15.87 10.77 15.87 10.25C15.87 8.92 14.7 7.75 13.37 7.75H12.55V6.75C12.55 6.34 12.21 6 11.8 6C11.39 6 11.05 6.34 11.05 6.75V7.75H9C8.59 7.75 8.25 8.09 8.25 8.5V12V15.5C8.25 15.91 8.59 16.25 9 16.25H11.05V17.25C11.05 17.66 11.39 18 11.8 18C12.21 18 12.55 17.66 12.55 17.25V16.25H14C15.52 16.25 16.75 15.13 16.75 13.75C16.75 12.86 16.23 12.08 15.45 11.64ZM9.75 9.25H13.37C13.92 9.25 14.37 9.8 14.37 10.25C14.37 10.8 13.92 11.25 13.37 11.25H9.75V9.25ZM14 14.75H9.75V12.75H13.37H14C14.69 12.75 15.25 13.2 15.25 13.75C15.25 14.3 14.69 14.75 14 14.75Z" fill="white"/>
</svg>
