<svg width="24" height="24" viewBox="0 0 24 24" fill="none" xmlns="http://www.w3.org/2000/svg">
<path d="M5.53 2C5.11 2 4.78 2.34 4.78 2.75V4.78H2.75C2.34 4.78 2 5.11 2 5.53C2 5.95 2.34 6.28 2.75 6.28H5.53C5.94 6.28 6.28 5.94 6.28 5.53V2.75C6.28 2.34 5.94 2 5.53 2Z" fill="white"/>
<path d="M21.2507 17.72H18.4707C18.0607 17.72 17.7207 18.06 17.7207 18.47V21.25C17.7207 21.66 18.0607 22 18.4707 22C18.8807 22 19.2207 21.66 19.2207 21.25V19.22H21.2507C21.6607 19.22 22.0007 18.88 22.0007 18.47C22.0007 18.06 21.6607 17.72 21.2507 17.72Z" fill="white"/>
<path d="M16.7201 18.4699C16.7201 17.5099 17.5101 16.7199 18.4701 16.7199H19.1601V10.0499C19.1601 7.15995 16.8201 4.81995 13.9301 4.81995H7.28008V5.50995C7.28008 6.46995 6.49008 7.25995 5.53008 7.25995H4.83008V13.9299C4.83008 16.8199 7.17008 19.1599 10.0601 19.1599H16.7301V18.4699H16.7201Z" fill="white"/>
</svg>
