<svg width="24" height="24" viewBox="0 0 24 24" fill="none" xmlns="http://www.w3.org/2000/svg">
<path d="M2 7.81003V16.19C2 17.68 2.36 18.92 3.05 19.87C3.34 20.29 3.71 20.66 4.13 20.95C4.95 21.55 5.99 21.9 7.22 21.98V2.03003C3.94 2.24003 2 4.37003 2 7.81003Z" fill="white"/>
<path d="M20.9507 4.13C20.6607 3.71 20.2907 3.34 19.8707 3.05C18.9207 2.36 17.6807 2 16.1907 2H8.7207V22H16.1907C19.8307 22 22.0007 19.83 22.0007 16.19V7.81C22.0007 6.32 21.6407 5.08 20.9507 4.13ZM15.5007 14.03C15.7907 14.32 15.7907 14.8 15.5007 15.09C15.3507 15.24 15.1607 15.31 14.9707 15.31C14.7807 15.31 14.5907 15.24 14.4407 15.09L11.8807 12.53C11.5907 12.24 11.5907 11.76 11.8807 11.47L14.4407 8.91C14.7307 8.62 15.2107 8.62 15.5007 8.91C15.7907 9.2 15.7907 9.68 15.5007 9.97L13.4807 12L15.5007 14.03Z" fill="white"/>
</svg>
