<svg width="24" height="24" viewBox="0 0 24 24" fill="none" xmlns="http://www.w3.org/2000/svg">
<path d="M21.6702 6.9499C21.0302 4.7799 19.2202 2.9699 17.0502 2.3299C15.4002 1.8499 14.2602 1.8899 13.4702 2.4799C12.5202 3.1899 12.4102 4.4699 12.4102 5.3799V7.8699C12.4102 10.3299 13.5302 11.5799 15.7302 11.5799H18.6002C19.5002 11.5799 20.7902 11.4699 21.5002 10.5199C22.1102 9.7399 22.1602 8.5999 21.6702 6.9499Z" fill="white"/>
<path d="M18.9104 13.3599C18.6504 13.0599 18.2704 12.8899 17.8804 12.8899H14.3004C12.5404 12.8899 11.1104 11.4599 11.1104 9.69991V6.11991C11.1104 5.72991 10.9404 5.34991 10.6404 5.08991C10.3504 4.82991 9.95039 4.70991 9.57039 4.75991C7.22039 5.05991 5.06039 6.34991 3.65039 8.28991C2.23039 10.2399 1.71039 12.6199 2.16039 14.9999C2.81039 18.4399 5.56039 21.1899 9.01039 21.8399C9.56039 21.9499 10.1104 21.9999 10.6604 21.9999C12.4704 21.9999 14.2204 21.4399 15.7104 20.3499C17.6504 18.9399 18.9404 16.7799 19.2404 14.4299C19.2904 14.0399 19.1704 13.6499 18.9104 13.3599Z" fill="white"/>
</svg>
