<svg width="24" height="24" viewBox="0 0 24 24" fill="none" xmlns="http://www.w3.org/2000/svg">
<path d="M8.0498 10.14V11.3H11.3098V8.05005H10.1498C8.9898 8.05005 8.0498 8.99005 8.0498 10.14Z" fill="white"/>
<path d="M8.0498 13.86C8.0498 15.01 8.9898 15.95 10.1398 15.95H11.2998V12.7H8.0498V13.86Z" fill="white"/>
<path d="M12.7002 15.95H13.8602C15.0102 15.95 15.9502 15.01 15.9502 13.86V12.7H12.7002V15.95Z" fill="white"/>
<path d="M16.19 2H7.81C4.17 2 2 4.17 2 7.81V16.18C2 19.83 4.17 22 7.81 22H16.18C19.82 22 21.99 19.83 21.99 16.19V7.81C22 4.17 19.83 2 16.19 2ZM17.35 13.86C17.35 15.78 15.78 17.35 13.86 17.35H10.14C8.22 17.35 6.65 15.79 6.65 13.86V10.14C6.65 8.22 8.22 6.65 10.14 6.65H13.86C15.78 6.65 17.35 8.21 17.35 10.14V13.86Z" fill="white"/>
<path d="M13.8602 8.05005H12.7002V11.31H15.9602V10.15C15.9502 8.99005 15.0102 8.05005 13.8602 8.05005Z" fill="white"/>
</svg>
