<svg width="24" height="24" viewBox="0 0 24 24" fill="none" xmlns="http://www.w3.org/2000/svg">
<path d="M20.0402 6.81994L14.2802 2.78994C12.7102 1.68994 10.3002 1.74994 8.79023 2.91994L3.78023 6.82994C2.78023 7.60994 1.99023 9.20994 1.99023 10.4699V17.3699C1.99023 19.9199 4.06023 21.9999 6.61023 21.9999H17.3902C19.9402 21.9999 22.0102 19.9299 22.0102 17.3799V10.5999C22.0102 9.24994 21.1402 7.58994 20.0402 6.81994ZM16.8802 16.1899C16.8802 16.2799 16.8602 16.3699 16.8302 16.4599C16.7602 16.6299 16.6202 16.7699 16.4502 16.8399C16.3602 16.8799 16.2702 16.8899 16.1802 16.8899H14.3202C13.9302 16.8899 13.6202 16.5799 13.6202 16.1899C13.6202 15.7999 13.9302 15.4899 14.3202 15.4899H14.5002L12.3902 13.3799L11.3702 14.8999C11.2502 15.0699 11.0702 15.1899 10.8602 15.2099C10.6402 15.2299 10.4502 15.1599 10.3002 15.0099L7.32023 12.0299C7.05023 11.7599 7.05023 11.3199 7.32023 11.0399C7.59023 10.7599 8.03024 10.7699 8.31024 11.0399L10.6902 13.4199L11.7102 11.8999C11.8302 11.7299 12.0102 11.6099 12.2202 11.5899C12.4402 11.5699 12.6302 11.6399 12.7802 11.7899L15.5002 14.5099V14.3299C15.5002 13.9399 15.8102 13.6299 16.2002 13.6299C16.5902 13.6299 16.9002 13.9399 16.9002 14.3299V16.1899H16.8802Z" fill="white"/>
</svg>
