<svg width="24" height="24" viewBox="0 0 24 24" fill="none" xmlns="http://www.w3.org/2000/svg">
<path d="M20.0402 6.81994L14.2802 2.78994C12.7102 1.68994 10.3002 1.74994 8.79023 2.91994L3.78023 6.82994C2.78023 7.60994 1.99023 9.20994 1.99023 10.4699V17.3699C1.99023 19.9199 4.06023 21.9999 6.61023 21.9999H17.3902C19.9402 21.9999 22.0102 19.9299 22.0102 17.3799V10.5999C22.0102 9.24994 21.1402 7.58994 20.0402 6.81994ZM16.8802 13.3999C16.8802 13.7899 16.5702 14.0999 16.1802 14.0999C15.7902 14.0999 15.4802 13.7899 15.4802 13.3999V13.2199L12.7602 15.9399C12.6102 16.0899 12.4102 16.1599 12.2002 16.1399C12.0002 16.1199 11.8102 15.9999 11.7002 15.8299L10.6802 14.3099L8.30023 16.6899C8.16023 16.8299 7.99023 16.8899 7.81023 16.8899C7.63023 16.8899 7.45023 16.8199 7.32023 16.6899C7.05023 16.4199 7.05023 15.9799 7.32023 15.6999L10.3002 12.7199C10.4502 12.5699 10.6502 12.4999 10.8602 12.5199C11.0702 12.5399 11.2602 12.6499 11.3702 12.8299L12.3902 14.3499L14.5002 12.2399H14.3202C13.9302 12.2399 13.6202 11.9299 13.6202 11.5399C13.6202 11.1499 13.9302 10.8399 14.3202 10.8399H16.1802C16.2702 10.8399 16.3602 10.8599 16.4502 10.8899C16.6202 10.9599 16.7602 11.0999 16.8302 11.2699C16.8702 11.3599 16.8802 11.4499 16.8802 11.5399V13.3999Z" fill="white"/>
</svg>
