<svg width="24" height="24" viewBox="0 0 24 24" fill="none" xmlns="http://www.w3.org/2000/svg">
<path d="M18.6897 11.53C18.1197 11.38 17.4497 11.3 16.6497 11.3C15.5397 11.3 15.1297 11.57 14.5597 12C14.5297 12.02 14.4997 12.05 14.4697 12.08L13.5197 13.09C12.7197 13.93 11.2797 13.94 10.4797 13.08L9.52969 12.08C9.49969 12.05 9.46969 12.02 9.43969 12C8.86969 11.57 8.45969 11.3 7.34969 11.3C6.54969 11.3 5.87969 11.38 5.30969 11.53C2.92969 12.17 2.92969 14.06 2.92969 15.72V16.65C2.92969 19.16 2.92969 22 8.27969 22H15.7197C19.2697 22 21.0697 20.2 21.0697 16.65V15.72C21.0697 14.06 21.0697 12.17 18.6897 11.53ZM14.3297 18.4H9.66969C9.28969 18.4 8.97969 18.09 8.97969 17.7C8.97969 17.31 9.28969 17 9.66969 17H14.3297C14.7097 17 15.0197 17.31 15.0197 17.7C15.0197 18.09 14.7097 18.4 14.3297 18.4Z" fill="white"/>
<path d="M19.21 6.42V10.12C19.17 10.1 19.12 10.09 19.08 10.08C18.38 9.89 17.59 9.8 16.65 9.8C15.11 9.8 14.39 10.25 13.65 10.81C13.55 10.88 13.46 10.97 13.38 11.05L12.42 12.06C12.33 12.16 12.17 12.22 12 12.22C11.83 12.22 11.67 12.16 11.57 12.05L10.63 11.06C10.54 10.96 10.44 10.87 10.34 10.8C9.62004 10.25 8.89004 9.8 7.35004 9.8C6.41004 9.8 5.62004 9.89 4.92004 10.08C4.88004 10.09 4.83004 10.1 4.79004 10.12V6.42C4.79004 4.35 4.79004 2 9.21004 2H14.79C19.21 2 19.21 4.35 19.21 6.42Z" fill="white"/>
</svg>
