<svg width="24" height="24" viewBox="0 0 24 24" fill="none" xmlns="http://www.w3.org/2000/svg">
<path d="M19.3297 5.68003L13.0597 2.30003C12.3997 1.94003 11.5997 1.94003 10.9397 2.30003L4.66969 5.68003C4.20969 5.93003 3.92969 6.41003 3.92969 6.96003C3.92969 7.50003 4.20969 7.99003 4.66969 8.24003L10.9397 11.62C11.2697 11.8 11.6397 11.89 11.9997 11.89C12.3597 11.89 12.7297 11.8 13.0597 11.62L19.3297 8.24003C19.7897 7.99003 20.0697 7.51003 20.0697 6.96003C20.0697 6.41003 19.7897 5.93003 19.3297 5.68003Z" fill="white"/>
<path d="M9.91 12.79L4.07 9.87C3.62 9.65 3.1 9.67 2.68 9.93C2.25 10.2 2 10.65 2 11.15V16.66C2 17.61 2.53 18.47 3.38 18.9L9.21 21.82C9.41 21.92 9.63 21.97 9.85 21.97C10.11 21.97 10.37 21.9 10.6 21.76C11.03 21.5 11.28 21.04 11.28 20.54V15.03C11.29 14.07 10.76 13.21 9.91 12.79Z" fill="white"/>
<path d="M21.3197 9.93002C20.8897 9.67002 20.3697 9.64002 19.9297 9.87002L14.0997 12.79C13.2497 13.22 12.7197 14.07 12.7197 15.03V20.54C12.7197 21.04 12.9697 21.5 13.3997 21.76C13.6297 21.9 13.8897 21.97 14.1497 21.97C14.3697 21.97 14.5897 21.92 14.7897 21.82L20.6197 18.9C21.4697 18.47 21.9997 17.62 21.9997 16.66V11.15C21.9997 10.65 21.7497 10.2 21.3197 9.93002Z" fill="white"/>
</svg>
