<svg width="24" height="24" viewBox="0 0 24 24" fill="none" xmlns="http://www.w3.org/2000/svg">
<path d="M20.4202 8.99998C20.2802 8.98998 20.1002 8.97998 19.9002 8.97998C19.5102 8.97998 19.2002 9.28998 19.2002 9.67998V14.33C19.2002 14.72 19.5102 15.03 19.9002 15.03C20.1002 15.03 20.2702 15.02 20.4402 15.01C22.0002 14.83 22.0002 13.73 22.0002 12.93V11.07C22.0002 10.27 22.0002 9.16998 20.4202 8.99998Z" fill="white"/>
<path d="M12.93 4.79004H7.35C3.25 4.79004 2 6.04004 2 10.14V13.86C2 17.96 3.25 19.21 7.35 19.21H12.93C17.03 19.21 18.28 17.96 18.28 13.86V10.14C18.28 6.04004 17.03 4.79004 12.93 4.79004ZM7.1 14.18C7.02 14.52 6.71 14.75 6.37 14.75C6.31 14.75 6.25 14.74 6.19 14.73C5.79 14.63 5.54 14.22 5.64 13.82C5.94 12.63 5.94 11.37 5.64 10.18C5.54 9.78004 5.78 9.37004 6.19 9.27004C6.59 9.17004 7 9.42004 7.1 9.82004C7.46 11.25 7.46 12.75 7.1 14.18Z" fill="white"/>
</svg>
