<svg width="24" height="24" viewBox="0 0 24 24" fill="none" xmlns="http://www.w3.org/2000/svg">
<path d="M20.4202 8.99998C20.2802 8.98998 20.1002 8.97998 19.9002 8.97998C19.5102 8.97998 19.2002 9.28998 19.2002 9.67998V14.33C19.2002 14.72 19.5102 15.03 19.9002 15.03C20.1002 15.03 20.2702 15.02 20.4402 15.01C22.0002 14.83 22.0002 13.73 22.0002 12.93V11.07C22.0002 10.27 22.0002 9.16998 20.4202 8.99998Z" fill="white"/>
<path d="M18.2804 10.14V13.86C18.2804 16.81 15.8804 19.21 12.9304 19.21H9.2604C8.4704 19.21 7.9904 18.34 8.4104 17.68L15.6704 6.20001C16.0304 5.63001 16.8404 5.58001 17.2904 6.09001C18.0104 6.92001 18.2804 8.21001 18.2804 10.14Z" fill="white"/>
<path d="M16.4 1.86999C16.05 1.64999 15.59 1.74999 15.37 2.09999L13.66 4.80999C13.43 4.79999 13.19 4.78999 12.93 4.78999H7.35C3.25 4.78999 2 6.03999 2 10.14V13.86C2 16.91 2.7 18.37 4.74 18.92L3.37 21.1C3.15 21.45 3.25 21.91 3.6 22.13C3.72 22.21 3.86 22.25 4 22.25C4.25 22.25 4.49 22.13 4.63 21.9L16.63 2.89999C16.86 2.54999 16.75 2.08999 16.4 1.86999Z" fill="white"/>
</svg>
