<svg width="24" height="24" viewBox="0 0 24 24" fill="none" xmlns="http://www.w3.org/2000/svg">
<path d="M5.33012 19.42C5.22012 19.42 5.10012 19.39 5.00012 19.34L2.78012 18.23C2.53012 18.1 2.37012 17.84 2.37012 17.56V14.78C2.37012 14.37 2.71012 14.03 3.12012 14.03C3.53012 14.03 3.87012 14.37 3.87012 14.78V17.09L5.67012 18C6.04012 18.18 6.19012 18.63 6.00012 19C5.87012 19.26 5.61012 19.42 5.33012 19.42Z" fill="white"/>
<path d="M12.0004 22.75C11.9404 22.75 11.8804 22.74 11.8304 22.73C11.7704 22.72 11.7104 22.69 11.6504 22.66L9.44045 21.56C9.07045 21.37 8.92045 20.92 9.10045 20.55C9.29045 20.18 9.74045 20.03 10.1104 20.21L11.2504 20.78V19.22C11.2504 18.81 11.5904 18.47 12.0004 18.47C12.4104 18.47 12.7504 18.81 12.7504 19.22V20.78L13.8904 20.21C14.2604 20.03 14.7104 20.18 14.9004 20.55C15.0904 20.92 14.9404 21.37 14.5604 21.56L12.3504 22.66C12.2904 22.69 12.2304 22.71 12.1704 22.73C12.1104 22.74 12.0604 22.75 12.0004 22.75Z" fill="white"/>
<path d="M18.6702 19.42C18.4002 19.42 18.1302 19.27 18.0002 19.01C17.8102 18.64 17.9602 18.19 18.3402 18L20.1502 17.1V14.79C20.1502 14.38 20.4902 14.04 20.9002 14.04C21.3102 14.04 21.6502 14.38 21.6502 14.79V17.57C21.6502 17.85 21.4902 18.11 21.2402 18.24L19.0002 19.34C18.8902 19.39 18.7802 19.42 18.6702 19.42Z" fill="white"/>
<path d="M12.0004 14.42C11.5904 14.42 11.2504 14.08 11.2504 13.67V11.36L9.44045 10.46C9.07045 10.27 8.92045 9.82005 9.10045 9.45005C9.29045 9.08005 9.74045 8.93004 10.1104 9.11004L12.0004 10.05L13.8904 9.11004C14.2604 8.93004 14.7104 9.07005 14.9004 9.45005C15.0904 9.82005 14.9404 10.27 14.5604 10.46L12.7504 11.36V13.67C12.7504 14.08 12.4104 14.42 12.0004 14.42Z" fill="white"/>
<path d="M3.11035 9.97002C2.70035 9.97002 2.36035 9.63002 2.36035 9.22002V6.46002V6.45002C2.36035 6.39002 2.37035 6.33002 2.38035 6.28002C2.40035 6.19002 2.43035 6.12002 2.47035 6.05002C2.50035 6.00002 2.54035 5.96002 2.58035 5.92002C2.62035 5.88002 2.67035 5.84002 2.72035 5.81002C2.74035 5.80002 2.77035 5.78002 2.79035 5.77002L5.00035 4.66002C5.37035 4.48002 5.82035 4.63002 6.00035 5.00002C6.19035 5.37002 6.04035 5.82002 5.67035 6.00002L4.79035 6.44002L5.67035 6.88002C6.04035 7.07002 6.19035 7.52002 6.00035 7.89002C5.82035 8.26002 5.37035 8.41002 5.00035 8.23002L3.86035 7.66002V9.22002C3.86035 9.64002 3.53035 9.97002 3.11035 9.97002Z" fill="white"/>
<path d="M14.2198 3.86006C14.1098 3.86006 13.9898 3.83006 13.8898 3.78006L11.9998 2.84006L10.1098 3.78006C9.73981 3.97006 9.28981 3.82006 9.10981 3.45006C8.91981 3.08006 9.06981 2.63006 9.43981 2.44006L11.6598 1.33006C11.8698 1.22006 12.1198 1.22006 12.3298 1.33006L14.5498 2.44006C14.9198 2.63006 15.0698 3.08006 14.8898 3.45006C14.7598 3.71006 14.4998 3.86006 14.2198 3.86006Z" fill="white"/>
<path d="M20.8904 9.97002C20.4804 9.97002 20.1404 9.63002 20.1404 9.22002V7.66002L19.0004 8.23002C18.6304 8.41002 18.1804 8.26002 18.0004 7.89002C17.8104 7.52002 17.9604 7.07002 18.3404 6.88002L19.2204 6.44002L18.3304 6.00002C17.9604 5.82002 17.8104 5.37002 18.0004 5.00002C18.1904 4.63002 18.6304 4.48002 19.0004 4.66002L21.2104 5.76002C21.2304 5.77002 21.2604 5.78002 21.2804 5.80002C21.3404 5.83002 21.3904 5.88002 21.4404 5.93002C21.4704 5.97002 21.5004 6.01002 21.5304 6.05002C21.5704 6.12002 21.6004 6.19002 21.6204 6.27002C21.6304 6.33002 21.6404 6.39002 21.6404 6.44002V6.45002V9.21002C21.6404 9.64002 21.3004 9.97002 20.8904 9.97002Z" fill="white"/>
</svg>
