<svg width="24" height="24" viewBox="0 0 24 24" fill="none" xmlns="http://www.w3.org/2000/svg">
<path d="M8.82005 4.89997L7.54005 2.77997C7.06005 1.99997 6.11005 1.55997 5.22005 1.81997C3.88005 2.21997 3.36005 3.72997 4.03005 4.83997L5.35005 7.00997C5.50005 7.23997 5.81005 7.31997 6.04005 7.17997L8.65005 5.58997C8.89005 5.43997 8.97005 5.12997 8.82005 4.89997Z" fill="white"/>
<path d="M19.7404 14.21L16.9304 10.41C15.9504 9.08996 14.2504 8.46996 12.6504 8.89996C12.6504 8.88996 12.6404 8.88996 12.6404 8.87996L10.9804 6.14996C10.6804 5.67996 10.0604 5.52996 9.59037 5.81996L6.12037 7.92996C5.64037 8.20996 5.49037 8.83996 5.78037 9.31996L7.43037 12.05C7.43037 12.05 7.43037 12.06 7.44037 12.06C6.33037 13.29 6.09037 15.08 6.83037 16.57L8.91037 20.81C9.55037 22.12 11.0604 22.62 12.3404 21.96C12.4404 21.91 12.4704 21.79 12.4104 21.69L10.8504 19.11C10.6304 18.75 10.7404 18.29 11.1004 18.06C11.4604 17.85 11.9204 17.96 12.1504 18.31L13.7204 20.89C13.7804 20.98 13.9004 21.01 13.9904 20.96L14.9504 20.38C15.0404 20.32 15.0704 20.2 15.0204 20.11L13.4504 17.53C13.2404 17.17 13.3504 16.71 13.7004 16.48C14.0704 16.27 14.5304 16.38 14.7504 16.73L16.3204 19.31C16.3804 19.4 16.5004 19.43 16.5904 19.38L17.5504 18.8C17.6404 18.74 17.6704 18.62 17.6204 18.53L16.0504 15.95C15.8404 15.59 15.9504 15.13 16.3004 14.9C16.6704 14.69 17.1304 14.8 17.3504 15.15L18.9304 17.72C18.9904 17.81 19.1104 17.84 19.2004 17.78C20.3604 16.95 20.6204 15.39 19.7404 14.21Z" fill="white"/>
</svg>
