<svg width="24" height="24" viewBox="0 0 24 24" fill="none" xmlns="http://www.w3.org/2000/svg">
<path d="M15.59 1.75C12.62 1.75 10.21 4.16 10.21 7.13C10.21 10.1 12.62 12.51 15.59 12.51C18.56 12.51 20.97 10.1 20.97 7.13C20.97 4.16 18.56 1.75 15.59 1.75Z" fill="white"/>
<path d="M6.36027 13.03C4.53027 13.03 3.03027 14.52 3.03027 16.36C3.03027 18.2 4.52027 19.69 6.36027 19.69C8.19027 19.69 9.69027 18.2 9.69027 16.36C9.69027 14.52 8.19027 13.03 6.36027 13.03Z" fill="white"/>
<path d="M16.6196 16.62C15.0696 16.62 13.8096 17.88 13.8096 19.43C13.8096 20.98 15.0696 22.24 16.6196 22.24C18.1696 22.24 19.4296 20.98 19.4296 19.43C19.4296 17.88 18.1696 16.62 16.6196 16.62Z" fill="white"/>
</svg>
