<svg width="24" height="24" viewBox="0 0 24 24" fill="none" xmlns="http://www.w3.org/2000/svg">
<path d="M11.8195 6.9C14.6795 6.28 17.5795 6.19 20.4495 6.66C18.6795 3.86 15.5595 2 11.9995 2C8.88953 2 6.10953 3.42 4.26953 5.65C4.70953 6.95 5.26953 8.19 5.93953 9.37C6.31953 10.05 7.28953 10.02 7.67953 9.35C8.52953 7.92 10.0595 6.96 11.8195 6.9Z" fill="white"/>
<path d="M7.72002 14.7199C5.72002 12.5799 4.16002 10.1399 3.09002 7.43994C1.59002 10.3999 1.60002 14.0299 3.43002 17.0799C5.03002 19.7499 7.67002 21.4099 10.53 21.8399C11.42 20.7899 12.2 19.6699 12.87 18.4999C13.26 17.8199 12.73 17.0099 11.95 17.0099C10.28 17.0199 8.67002 16.1999 7.72002 14.7199Z" fill="white"/>
<path d="M8.57031 12C8.57031 12.61 8.72031 13.18 9.03031 13.72C9.64031 14.77 10.7703 15.43 11.9903 15.43C13.2103 15.43 14.3503 14.77 14.9503 13.72C15.2603 13.18 15.4203 12.61 15.4203 12C15.4203 10.11 13.8803 8.58 11.9903 8.58C10.1103 8.57 8.57031 10.11 8.57031 12Z" fill="white"/>
<path d="M21.3402 8.42004C19.9702 8.13004 18.5802 7.97004 17.2002 7.95004C16.4102 7.94004 15.9602 8.80004 16.3502 9.49004C16.7502 10.2 16.9802 11.02 16.9802 11.89C16.9802 12.73 16.7602 13.56 16.3502 14.3C15.4102 17.18 14.0102 19.74 12.1602 22C17.6102 21.91 22.0002 17.47 22.0002 12C22.0002 10.74 21.7702 9.53004 21.3402 8.42004Z" fill="white"/>
</svg>
