<svg width="24" height="24" viewBox="0 0 24 24" fill="none" xmlns="http://www.w3.org/2000/svg">
<path d="M20.9499 4.13L4.12988 20.95C5.07988 21.64 6.31988 22 7.80988 22H16.1899C19.8299 22 21.9999 19.83 21.9999 16.19V7.81C21.9999 6.32 21.6399 5.08 20.9499 4.13ZM18.4999 16.25H16.8099V18C16.8099 18.41 16.4699 18.75 16.0599 18.75C15.6499 18.75 15.3099 18.41 15.3099 18V16.25H13.4999C13.0899 16.25 12.7499 15.91 12.7499 15.5C12.7499 15.09 13.0899 14.75 13.4999 14.75H15.3099V13C15.3099 12.59 15.6499 12.25 16.0599 12.25C16.4699 12.25 16.8099 12.59 16.8099 13V14.75H18.4999C18.9099 14.75 19.2499 15.09 19.2499 15.5C19.2499 15.91 18.9099 16.25 18.4999 16.25Z" fill="white"/>
<path d="M16.19 2H7.81C4.17 2 2 4.17 2 7.81V16.19C2 17.68 2.36 18.92 3.05 19.87L19.87 3.05C18.92 2.36 17.68 2 16.19 2ZM10.5 8.25H5.5C5.09 8.25 4.75 7.91 4.75 7.5C4.75 7.09 5.09 6.75 5.5 6.75H10.5C10.91 6.75 11.25 7.09 11.25 7.5C11.25 7.91 10.91 8.25 10.5 8.25Z" fill="white"/>
</svg>
