<svg width="24" height="24" viewBox="0 0 24 24" fill="none" xmlns="http://www.w3.org/2000/svg">
<path d="M20.9799 3.01998C20.1099 2.14998 18.8799 1.80998 17.6899 2.10998L7.88986 4.55998C6.23986 4.96998 4.96986 6.24998 4.55986 7.88998L2.10986 17.7C1.80986 18.89 2.14986 20.12 3.01986 20.99C3.67986 21.64 4.54986 22 5.44986 22C5.72986 22 6.01986 21.97 6.29986 21.89L16.1099 19.44C17.7499 19.03 19.0299 17.76 19.4399 16.11L21.8899 6.29998C22.1899 5.10998 21.8499 3.87998 20.9799 3.01998ZM11.9999 15.88C9.85986 15.88 8.11986 14.14 8.11986 12C8.11986 9.85998 9.85986 8.11998 11.9999 8.11998C14.1399 8.11998 15.8799 9.85998 15.8799 12C15.8799 14.14 14.1399 15.88 11.9999 15.88Z" fill="white"/>
</svg>
