<svg width="24" height="24" viewBox="0 0 24 24" fill="none" xmlns="http://www.w3.org/2000/svg">
<path d="M20.7196 18.24L19.7796 17.3C20.2696 16.56 20.5596 15.67 20.5596 14.71C20.5596 12.11 18.4496 10 15.8496 10C13.2496 10 11.1396 12.11 11.1396 14.71C11.1396 17.31 13.2496 19.42 15.8496 19.42C16.8096 19.42 17.6896 19.13 18.4396 18.64L19.3796 19.58C19.5696 19.77 19.8096 19.86 20.0596 19.86C20.3096 19.86 20.5496 19.77 20.7396 19.58C21.0896 19.22 21.0896 18.62 20.7196 18.24Z" fill="white"/>
<path d="M19.5799 4.02V6.24C19.5799 7.05 19.0799 8.06 18.5799 8.57L18.3999 8.73C18.2599 8.86 18.0499 8.89 17.8699 8.83C17.6699 8.76 17.4699 8.71 17.2699 8.66C16.8299 8.55 16.3599 8.5 15.8799 8.5C12.4299 8.5 9.62992 11.3 9.62992 14.75C9.62992 15.89 9.93992 17.01 10.5299 17.97C11.0299 18.81 11.7299 19.51 12.4899 19.98C12.7199 20.13 12.8099 20.45 12.6099 20.63C12.5399 20.69 12.4699 20.74 12.3999 20.79L10.9999 21.7C9.69992 22.51 7.90992 21.6 7.90992 19.98V14.63C7.90992 13.92 7.50992 13.01 7.10992 12.51L3.31992 8.47C2.81992 7.96 2.41992 7.05 2.41992 6.45V4.12C2.41992 2.91 3.31992 2 4.40992 2H17.5899C18.6799 2 19.5799 2.91 19.5799 4.02Z" fill="white"/>
</svg>
