<svg width="24" height="24" viewBox="0 0 24 24" fill="none" xmlns="http://www.w3.org/2000/svg">
<path d="M11.9697 2C6.44973 2 1.96973 6.48 1.96973 12C1.96973 17.52 6.44973 22 11.9697 22C17.4897 22 21.9697 17.52 21.9697 12C21.9697 6.48 17.4997 2 11.9697 2ZM15.7197 12.35L11.9997 16.58L11.5597 17.08C10.9497 17.77 10.4497 17.59 10.4497 16.66V12.7H8.74973C7.97973 12.7 7.76973 12.23 8.27973 11.65L11.9997 7.42L12.4397 6.92C13.0497 6.23 13.5497 6.41 13.5497 7.34V11.3H15.2497C16.0197 11.3 16.2297 11.77 15.7197 12.35Z" fill="white"/>
</svg>
