<svg width="24" height="24" viewBox="0 0 24 24" fill="none" xmlns="http://www.w3.org/2000/svg">
<path d="M21.7699 2.23C21.4699 1.93 20.9799 1.93 20.6799 2.23L2.22988 20.69C1.92988 20.99 1.92988 21.48 2.22988 21.78C2.37988 21.92 2.56988 22 2.76988 22C2.96988 22 3.15988 21.92 3.30988 21.77L21.7699 3.31C22.0799 3.01 22.0799 2.53 21.7699 2.23Z" fill="white"/>
<path d="M14.8195 3.52002V9.18002L9.17952 14.82V13.28H6.08952C4.68952 13.28 4.29952 12.42 5.22952 11.37L11.9995 3.67002L12.7995 2.76002C13.9095 1.50002 14.8195 1.84002 14.8195 3.52002Z" fill="white"/>
<path d="M18.7697 12.63L11.9997 20.33L11.1997 21.24C10.0897 22.5 9.17969 22.16 9.17969 20.48V17.82L16.2797 10.72H17.9097C19.3097 10.72 19.6997 11.58 18.7697 12.63Z" fill="white"/>
</svg>
