<svg width="24" height="24" viewBox="0 0 24 24" fill="none" xmlns="http://www.w3.org/2000/svg">
<path d="M17.02 2.88C16.54 2.4 15.58 2 14.9 2H9.1C8.42 2 7.46 2.4 6.98 2.88L2.88 6.98C2.4 7.46 2 8.42 2 9.1V14.9C2 15.58 2.4 16.54 2.88 17.02L4.41 18.55L18.55 4.41L17.02 2.88Z" fill="white"/>
<path d="M21.1197 6.97997L19.6097 5.46997L5.46973 19.61L6.97973 21.12C7.45973 21.6 8.41973 22 9.09973 22H14.8997C15.5797 22 16.5397 21.6 17.0197 21.12L21.1197 17.02C21.5997 16.54 21.9997 15.58 21.9997 14.9V9.09997C21.9997 8.41997 21.5997 7.45997 21.1197 6.97997Z" fill="white"/>
<path d="M2.48996 20.47C2.19996 20.76 2.19996 21.24 2.48996 21.53C2.63996 21.68 2.82996 21.75 3.01996 21.75C3.20996 21.75 3.39996 21.68 3.54996 21.53L5.46996 19.61L4.40996 18.55L2.48996 20.47Z" fill="white"/>
<path d="M21.5298 3.55002C21.8198 3.26002 21.8198 2.78002 21.5298 2.49002C21.2398 2.20002 20.7598 2.20002 20.4698 2.49002L18.5498 4.41002L19.6098 5.47002L21.5298 3.55002Z" fill="white"/>
</svg>
