<svg width="24" height="24" viewBox="0 0 24 24" fill="none" xmlns="http://www.w3.org/2000/svg">
<path d="M19.1105 4.95997C15.2005 1.04997 8.85045 1.04997 4.94045 4.95997C0.960454 8.93997 1.03045 15.43 5.14045 19.33C8.94045 22.92 15.1005 22.92 18.9005 19.33C23.0205 15.43 23.0905 8.93997 19.1105 4.95997ZM16.3805 16.65C15.1805 17.79 13.6005 18.36 12.0205 18.36C10.4405 18.36 8.86045 17.79 7.66045 16.65C7.36045 16.36 7.35045 15.89 7.63045 15.59C7.92045 15.29 8.39045 15.28 8.69045 15.56C10.5205 17.29 13.5105 17.3 15.3505 15.56C15.6505 15.28 16.1305 15.29 16.4105 15.59C16.7005 15.89 16.6805 16.36 16.3805 16.65Z" fill="white"/>
</svg>
