<svg width="24" height="24" viewBox="0 0 24 24" fill="none" xmlns="http://www.w3.org/2000/svg">
<path d="M11.9697 2C6.44973 2 1.96973 6.48 1.96973 12C1.96973 17.52 6.44973 22 11.9697 22C17.4897 22 21.9697 17.52 21.9697 12C21.9697 6.48 17.4997 2 11.9697 2ZM17.3997 16.43C16.1697 18.2 14.1497 19.25 11.9997 19.25C9.84973 19.25 7.82973 18.2 6.59973 16.43C6.35973 16.09 6.44973 15.62 6.78973 15.39C7.12973 15.15 7.59973 15.24 7.82973 15.58C8.77973 16.94 10.3397 17.76 11.9997 17.76C13.6597 17.76 15.2197 16.95 16.1697 15.58C16.4097 15.24 16.8697 15.16 17.2097 15.39C17.5597 15.62 17.6397 16.09 17.3997 16.43Z" fill="white"/>
</svg>
