<svg width="24" height="24" viewBox="0 0 24 24" fill="none" xmlns="http://www.w3.org/2000/svg">
<path d="M20.8603 8.36997L13.9303 2.82997C12.8603 1.96997 11.1303 1.96997 10.0703 2.81997L3.14027 8.36997C2.36027 8.98997 1.86027 10.3 2.03027 11.28L3.36027 19.24C3.60027 20.66 4.96027 21.81 6.40027 21.81H17.6003C19.0303 21.81 20.4003 20.65 20.6403 19.24L21.9703 11.28C22.1303 10.3 21.6303 8.98997 20.8603 8.36997ZM12.7103 17.2C12.5103 17.4 12.2603 17.5 12.0003 17.5C11.7403 17.5 11.4903 17.4 11.2903 17.21C10.9003 16.82 10.9003 16.19 11.2903 15.8C11.6803 15.41 12.3203 15.41 12.7103 15.8C13.1003 16.18 13.1003 16.81 12.7103 17.2ZM14.6603 14.9C14.5103 15.05 14.3203 15.13 14.1203 15.13C13.9303 15.13 13.7503 15.06 13.6003 14.92C12.6303 13.99 11.3703 13.99 10.3903 14.92C10.0903 15.21 9.62027 15.2 9.33027 14.9C9.04027 14.6 9.05027 14.13 9.35027 13.84C10.9003 12.35 13.0703 12.35 14.6303 13.84C14.9403 14.12 14.9503 14.6 14.6603 14.9ZM16.7803 12.78C16.6303 12.93 16.4403 13.01 16.2403 13.01C16.0503 13.01 15.8603 12.94 15.7203 12.8C15.2503 12.34 14.7203 11.97 14.1603 11.7C12.7603 11.03 11.2303 11.03 9.84027 11.7C9.28027 11.97 8.76026 12.34 8.28026 12.8C7.99026 13.09 7.51026 13.09 7.22026 12.79C6.93026 12.49 6.94027 12.02 7.23027 11.73C7.82027 11.15 8.48026 10.69 9.19026 10.35C11.0003 9.47997 13.0003 9.47997 14.8003 10.35C15.5103 10.69 16.1703 11.15 16.7603 11.73C17.0603 12.01 17.0703 12.49 16.7803 12.78Z" fill="white"/>
</svg>
