<svg width="24" height="24" viewBox="0 0 24 24" fill="none" xmlns="http://www.w3.org/2000/svg">
<path d="M20.5403 19.04C20.3903 19.19 20.2003 19.26 20.0103 19.26C19.8203 19.26 19.6303 19.19 19.4803 19.04L14.5303 14.09L15.0603 13.56L15.5903 13.03L20.5403 17.98C20.8303 18.27 20.8303 18.75 20.5403 19.04Z" fill="white"/>
<path d="M6.47035 9.28003L12.2704 15.08C12.6604 15.47 12.6604 16.1 12.2704 16.49L11.3704 17.4C10.5604 18.2 9.28035 18.2 8.48035 17.4L4.14035 13.06C3.35035 12.27 3.35035 10.98 4.14035 10.18L5.05035 9.27003C5.44035 8.89003 6.08035 8.89003 6.47035 9.28003Z" fill="white"/>
<path d="M18.5898 10.19L14.7798 13.99C14.3798 14.39 13.7398 14.39 13.3398 13.99L7.55977 8.20999C7.15977 7.80999 7.15977 7.16999 7.55977 6.76999L11.3698 2.95999C12.1598 2.16999 13.4498 2.16999 14.2498 2.95999L18.5898 7.29999C19.3798 8.09999 19.3798 9.37999 18.5898 10.19Z" fill="white"/>
<path d="M8 21.75H2C1.59 21.75 1.25 21.41 1.25 21C1.25 20.59 1.59 20.25 2 20.25H8C8.41 20.25 8.75 20.59 8.75 21C8.75 21.41 8.41 21.75 8 21.75Z" fill="white"/>
</svg>
