<svg width="24" height="24" viewBox="0 0 24 24" fill="none" xmlns="http://www.w3.org/2000/svg">
<path d="M12.4997 5.48003C12.5797 5.48003 12.6597 5.48003 12.7497 5.49003V2.53003C12.7497 2.12003 12.4097 1.78003 11.9997 1.78003C11.5897 1.78003 11.2497 2.12003 11.2497 2.53003V5.49003C11.3297 5.48003 11.4097 5.48003 11.4997 5.48003C6.88973 5.71003 3.21973 9.51003 3.21973 14.18V16.12C3.21973 17.22 4.11973 18.12 5.21973 18.12H18.7797C19.8797 18.12 20.7797 17.22 20.7797 16.12V14.18C20.7797 9.51003 17.1097 5.71003 12.4997 5.48003Z" fill="white"/>
<path d="M14.7301 19.11C15.0601 19.11 15.3001 19.42 15.2201 19.74C14.8401 21.17 13.5401 22.22 12.0001 22.22C10.4601 22.22 9.16013 21.17 8.78013 19.74C8.70013 19.42 8.94013 19.11 9.27013 19.11H14.7301Z" fill="white"/>
</svg>
