<svg width="24" height="24" viewBox="0 0 24 24" fill="none" xmlns="http://www.w3.org/2000/svg">
<path d="M20.9597 17.84L19.3297 18.39C18.8797 18.54 18.5197 18.89 18.3697 19.35L17.8197 20.98C17.3497 22.39 15.3697 22.36 14.9297 20.95L13.0797 15C12.7197 13.82 13.8097 12.72 14.9797 13.09L20.9397 14.94C22.3397 15.38 22.3597 17.37 20.9597 17.84Z" fill="white"/>
<path d="M21.0004 11.5C21.0004 11.93 20.9704 12.36 20.9204 12.78C20.8804 13.08 20.5704 13.26 20.2804 13.17L15.4304 11.66C14.3504 11.33 13.2004 11.61 12.4004 12.4C11.6004 13.2 11.3104 14.37 11.6504 15.45L13.1504 20.28C13.2404 20.57 13.0504 20.88 12.7504 20.92C12.3304 20.97 11.9204 21 11.5004 21C6.16039 21 1.86039 16.61 2.00039 11.23C2.14039 6.27003 6.27039 2.14003 11.2304 2.00003C16.6104 1.86003 21.0004 6.16003 21.0004 11.5Z" fill="white"/>
</svg>
