<svg width="24" height="24" viewBox="0 0 24 24" fill="none" xmlns="http://www.w3.org/2000/svg">
<path d="M6.67 14H4C2.9 14 2 14.9 2 16V21C2 21.55 2.45 22 3 22H6.67C7.22 22 7.67 21.55 7.67 21V15C7.67 14.45 7.22 14 6.67 14Z" fill="white"/>
<path d="M13.3302 10H10.6602C9.56016 10 8.66016 10.9 8.66016 12V21C8.66016 21.55 9.11016 22 9.66016 22H14.3302C14.8802 22 15.3302 21.55 15.3302 21V12C15.3302 10.9 14.4402 10 13.3302 10Z" fill="white"/>
<path d="M20.0001 17H17.3301C16.7801 17 16.3301 17.45 16.3301 18V21C16.3301 21.55 16.7801 22 17.3301 22H21.0001C21.5501 22 22.0001 21.55 22.0001 21V19C22.0001 17.9 21.1001 17 20.0001 17Z" fill="white"/>
<path d="M15.0104 4.84998C15.3204 4.53998 15.4404 4.16998 15.3404 3.84998C15.2404 3.52998 14.9304 3.29998 14.4904 3.22998L13.5304 3.06998C13.4904 3.06998 13.4004 2.99998 13.3804 2.95998L12.8504 1.89998C12.4504 1.08998 11.5404 1.08998 11.1404 1.89998L10.6104 2.95998C10.6004 2.99998 10.5104 3.06998 10.4704 3.06998L9.51043 3.22998C9.07043 3.29998 8.77043 3.52998 8.66043 3.84998C8.56043 4.16998 8.68043 4.53998 8.99043 4.84998L9.73043 5.59998C9.77043 5.62998 9.80043 5.74998 9.79043 5.78998L9.58043 6.70998C9.42043 7.39998 9.68043 7.70998 9.85043 7.82998C10.0204 7.94998 10.3904 8.10998 11.0004 7.74998L11.9004 7.21998C11.9404 7.18998 12.0704 7.18998 12.1104 7.21998L13.0004 7.74998C13.2804 7.91998 13.5104 7.96998 13.6904 7.96998C13.9004 7.96998 14.0504 7.88998 14.1404 7.82998C14.3104 7.70998 14.5704 7.39998 14.4104 6.70998L14.2004 5.78998C14.1904 5.73998 14.2204 5.62998 14.2604 5.59998L15.0104 4.84998Z" fill="white"/>
</svg>
