<svg width="24" height="24" viewBox="0 0 24 24" fill="none" xmlns="http://www.w3.org/2000/svg">
<path d="M22.9998 15.37V17.56C22.9998 20 21.2198 22.3 18.7998 22.97C18.6298 23.01 18.4498 23.01 18.2898 22.97C17.1098 22.65 16.0698 21.93 15.3398 21C14.5498 20.02 14.0898 18.81 14.0898 17.56V15.37C14.0898 14.95 14.3998 14.49 14.7798 14.33L17.5598 13.19C18.1898 12.94 18.8898 12.94 19.5198 13.19L20.5198 13.6L22.3098 14.33C22.6898 14.49 22.9998 14.95 22.9998 15.37Z" fill="white"/>
<path d="M20.9503 11.01L20.7703 12.08L20.0703 11.8C19.0803 11.4 18.0003 11.4 16.9903 11.8L14.2003 12.95C13.2503 13.35 12.5903 14.34 12.5903 15.37V17.56C12.5903 18.75 12.9203 19.94 13.5303 21H6.18028C4.81028 21 3.52028 19.91 3.29028 18.56L2.03028 11.01C1.87028 10.08 2.34028 8.82997 3.08028 8.23997L9.66028 2.97997C10.6703 2.16997 12.3103 2.16997 13.3203 2.98997L19.9003 8.23997C20.6303 8.82997 21.1103 10.08 20.9503 11.01Z" fill="white"/>
</svg>
