<svg width="24" height="24" viewBox="0 0 24 24" fill="none" xmlns="http://www.w3.org/2000/svg">
<path d="M19.53 5.53L5.53 19.53C5.51 19.55 5.5 19.56 5.48 19.57C5.1 19.25 4.75 18.9 4.43 18.52C2.91 16.77 2 14.49 2 12C2 6.48 6.48 2 12 2C14.49 2 16.77 2.91 18.52 4.43C18.9 4.75 19.25 5.1 19.57 5.48C19.56 5.5 19.55 5.51 19.53 5.53Z" fill="white"/>
<path d="M21.9999 12C21.9999 17.49 17.4899 22 11.9999 22C10.4999 22 9.07986 21.67 7.79986 21.07C7.17986 20.78 7.05986 19.95 7.53986 19.46L19.4599 7.53998C19.9399 7.05998 20.7799 7.17998 21.0699 7.79998C21.6699 9.06998 21.9999 10.5 21.9999 12Z" fill="white"/>
<path d="M21.7699 2.23C21.4699 1.93 20.9799 1.93 20.6799 2.23L2.22988 20.69C1.92988 20.99 1.92988 21.48 2.22988 21.78C2.37988 21.92 2.56988 22 2.76988 22C2.96988 22 3.15988 21.92 3.30988 21.77L21.7699 3.31C22.0799 3.01 22.0799 2.53 21.7699 2.23Z" fill="white"/>
</svg>
