<svg width="24" height="24" viewBox="0 0 24 24" fill="none" xmlns="http://www.w3.org/2000/svg">
<path d="M20.8603 8.55997L13.9303 3.01997C12.8603 2.15997 11.1303 2.15997 10.0703 3.00997L3.14027 8.55997C2.36027 9.17997 1.86027 10.49 2.03027 11.47L3.36027 19.43C3.60027 20.85 4.96027 22 6.40027 22H17.6003C19.0303 22 20.4003 20.84 20.6403 19.43L21.9703 11.47C22.1303 10.49 21.6303 9.17997 20.8603 8.55997ZM9.38027 17.38C8.82027 17.38 8.38027 16.93 8.38027 16.38C8.38027 15.83 8.83027 15.38 9.38027 15.38C9.93027 15.38 10.3803 15.83 10.3803 16.38C10.3803 16.93 9.93027 17.38 9.38027 17.38ZM12.3903 17.12C12.3803 17.12 12.3803 17.12 12.3703 17.12C11.9603 17.12 11.6303 16.79 11.6203 16.39C11.5903 15.04 10.7003 14.15 9.35027 14.12C8.94027 14.11 8.61027 13.77 8.62027 13.35C8.63027 12.94 8.96027 12.62 9.37027 12.62C9.38027 12.62 9.38027 12.62 9.39027 12.62C11.5403 12.67 13.0803 14.2 13.1203 16.35C13.1303 16.77 12.8103 17.12 12.3903 17.12ZM15.3803 17.12C14.9603 17.12 14.6303 16.79 14.6203 16.38C14.6103 15.72 14.5003 15.09 14.3003 14.5C13.7903 13.04 12.7003 11.96 11.2403 11.44C10.6503 11.23 10.0203 11.12 9.36026 11.12C8.95026 11.12 8.61027 10.78 8.62027 10.36C8.62027 9.94997 8.96027 9.61997 9.37027 9.61997H9.38027C10.2103 9.62997 11.0003 9.76997 11.7403 10.03C13.6303 10.7 15.0403 12.11 15.7103 14C15.9703 14.74 16.1103 15.54 16.1203 16.36C16.1303 16.78 15.8003 17.12 15.3803 17.12Z" fill="white"/>
</svg>
