<svg width="24" height="24" viewBox="0 0 24 24" fill="none" xmlns="http://www.w3.org/2000/svg">
<path d="M8.99987 14.22H3.91987C3.30987 14.22 2.74987 14.53 2.42987 15.05C2.10987 15.56 2.07987 16.17 2.33987 16.71C3.56987 19.23 5.78987 21.21 8.42987 22.14C8.60987 22.2 8.80987 22.24 8.99987 22.24C9.34987 22.24 9.69987 22.13 9.99987 21.92C10.4699 21.59 10.7499 21.05 10.7499 20.48L10.7599 15.98C10.7599 15.51 10.5799 15.07 10.2499 14.74C9.90987 14.41 9.46987 14.22 8.99987 14.22Z" fill="white"/>
<path d="M22.4799 9.6C21.3599 4.68 17.0499 1.25 11.9999 1.25C6.94993 1.25 2.63993 4.68 1.51993 9.6C1.39993 10.12 1.51993 10.65 1.85993 11.07C2.19993 11.49 2.69993 11.73 3.23993 11.73H20.7699C21.3099 11.73 21.8099 11.49 22.1499 11.07C22.4799 10.65 22.5999 10.11 22.4799 9.6Z" fill="white"/>
<path d="M20.06 14.27L15 14.26C14.53 14.26 14.09 14.44 13.76 14.77C13.43 15.1 13.25 15.54 13.25 16.01L13.26 20.49C13.26 21.06 13.54 21.6 14.01 21.93C14.31 22.14 14.66 22.25 15.01 22.25C15.2 22.25 15.39 22.22 15.57 22.15C18.19 21.23 20.41 19.26 21.64 16.77C21.9 16.24 21.87 15.62 21.56 15.12C21.23 14.58 20.67 14.27 20.06 14.27Z" fill="white"/>
</svg>
