<svg width="24" height="24" viewBox="0 0 24 24" fill="none" xmlns="http://www.w3.org/2000/svg">
<path d="M21.9605 11.66C20.7705 10.91 19.3905 10.5 17.9705 10.5C13.8305 10.5 10.4705 13.86 10.4705 18C10.4705 19.42 10.8705 20.79 11.6205 21.98C11.1605 21.97 10.6905 21.92 10.2105 21.85C6.10048 21.15 2.79048 17.82 2.11048 13.7C0.980478 6.85002 6.82048 1.01002 13.6705 2.14002C17.7905 2.82002 21.1205 6.13002 21.8205 10.24C21.9005 10.72 21.9505 11.2 21.9605 11.66Z" fill="white"/>
<path d="M13.3797 21.86C12.4997 20.82 11.9697 19.47 11.9697 18C11.9697 14.69 14.6597 12 17.9697 12C19.4397 12 20.7897 12.53 21.8297 13.41" fill="white"/>
</svg>
