<svg width="24" height="24" viewBox="0 0 24 24" fill="none" xmlns="http://www.w3.org/2000/svg">
<path d="M16.42 7.95C18.86 10.39 18.86 14.35 16.42 16.79C13.98 19.23 10.02 19.23 7.58 16.79C5.14 14.35 5.14 10.39 7.58 7.95C10.02 5.51 13.98 5.51 16.42 7.95Z" fill="white"/>
<path d="M8.25003 22.39C8.16003 22.39 8.06003 22.37 7.97003 22.34C5.72003 21.44 3.90003 19.85 2.68003 17.75C1.50003 15.7 1.03003 13.38 1.34003 11.02C1.39003 10.61 1.78003 10.32 2.18003 10.37C2.59003 10.42 2.88003 10.8 2.83003 11.21C2.57003 13.24 2.97003 15.24 3.98003 17C5.02003 18.8 6.59003 20.17 8.52003 20.94C8.90003 21.1 9.09003 21.53 8.94003 21.92C8.83003 22.21 8.54003 22.39 8.25003 22.39Z" fill="white"/>
<path d="M5.84962 5.22999C5.62962 5.22999 5.40962 5.12999 5.25962 4.93999C4.99962 4.61999 5.05962 4.14999 5.38962 3.88999C7.28962 2.39999 9.57962 1.60999 11.9996 1.60999C14.3596 1.60999 16.6096 2.36999 18.4996 3.80999C18.8296 4.05999 18.8896 4.52999 18.6396 4.85999C18.3896 5.18999 17.9196 5.24999 17.5896 4.99999C15.9596 3.75999 14.0296 3.10999 11.9996 3.10999C9.91962 3.10999 7.94962 3.78999 6.30962 5.06999C6.16962 5.17999 6.00962 5.22999 5.84962 5.22999Z" fill="white"/>
<path d="M15.7497 22.39C15.4497 22.39 15.1697 22.21 15.0497 21.92C14.8997 21.54 15.0797 21.1 15.4697 20.94C17.3997 20.16 18.9697 18.8 20.0097 17C21.0297 15.24 21.4297 13.24 21.1597 11.22C21.1097 10.81 21.3997 10.43 21.8097 10.38C22.2097 10.33 22.5997 10.62 22.6497 11.03C22.9497 13.38 22.4897 15.71 21.3097 17.76C20.0997 19.86 18.2697 21.44 16.0197 22.35C15.9397 22.37 15.8497 22.39 15.7497 22.39Z" fill="white"/>
</svg>
