<svg width="24" height="24" viewBox="0 0 24 24" fill="none" xmlns="http://www.w3.org/2000/svg">
<path d="M16.1703 10.06H7.83032C6.65032 10.06 6.24032 9.27001 6.93032 8.31001L11.1003 2.47001C11.5903 1.77001 12.4103 1.77001 12.9003 2.47001L17.0703 8.31001C17.7603 9.27001 17.3503 10.06 16.1703 10.06Z" fill="white"/>
<path d="M17.5896 18H6.4096C4.8296 18 4.2896 16.95 5.2196 15.67L9.2096 10.06H14.7896L18.7796 15.67C19.7096 16.95 19.1696 18 17.5896 18Z" fill="white"/>
<path d="M12.75 18V22C12.75 22.41 12.41 22.75 12 22.75C11.59 22.75 11.25 22.41 11.25 22V18H12.75Z" fill="white"/>
</svg>
