<svg width="24" height="24" viewBox="0 0 24 24" fill="none" xmlns="http://www.w3.org/2000/svg">
<path d="M11.2497 3.89998V12.92C11.2497 13.25 11.0897 13.55 10.8197 13.74L3.60969 18.79C3.01969 19.2 2.17969 18.88 2.04969 18.17C1.89969 17.31 2.09969 16.3 2.69969 15.21L5.81969 9.59998L8.75969 4.30998C8.98969 3.89998 9.23969 3.53998 9.49969 3.22998C10.0997 2.52998 11.2497 2.97998 11.2497 3.89998Z" fill="white"/>
<path d="M20.39 18.79L13.18 13.74C12.91 13.55 12.75 13.25 12.75 12.92V3.89998C12.75 2.97998 13.9 2.52998 14.5 3.22998C14.76 3.53998 15.01 3.89998 15.24 4.30998L18.18 9.59998L21.3 15.21C21.9 16.3 22.1 17.31 21.95 18.17C21.82 18.88 20.98 19.2 20.39 18.79Z" fill="white"/>
<path d="M5.26018 19.14L11.4102 15.04C11.7402 14.82 12.2802 14.82 12.6102 15.04L18.7602 19.14C20.3902 20.23 20.1202 21.12 18.1602 21.12H5.85018C3.90018 21.11 3.63018 20.22 5.26018 19.14Z" fill="white"/>
</svg>
