<svg width="24" height="24" viewBox="0 0 24 24" fill="none" xmlns="http://www.w3.org/2000/svg">
<path d="M19.0899 12.59C18.9299 12.59 18.7699 12.54 18.6299 12.43C14.5999 9.32002 9.38993 9.32002 5.35993 12.43C5.02993 12.68 4.55993 12.62 4.30993 12.3C4.05993 11.97 4.11993 11.5 4.43993 11.25C9.02993 7.70002 14.9599 7.70002 19.5399 11.25C19.8699 11.5 19.9299 11.97 19.6699 12.3C19.5399 12.49 19.3199 12.59 19.0899 12.59Z" fill="white"/>
<path d="M22 9.11002C21.84 9.11002 21.68 9.06002 21.54 8.95002C15.74 4.47002 8.25001 4.47002 2.46001 8.95002C2.13001 9.20002 1.66001 9.14002 1.41001 8.82002C1.15001 8.50002 1.21001 8.02002 1.54001 7.77002C7.89001 2.86002 16.1 2.86002 22.46 7.77002C22.79 8.02002 22.85 8.49002 22.59 8.82002C22.45 9.01002 22.22 9.11002 22 9.11002Z" fill="white"/>
<path d="M17.2096 16.24C17.0496 16.24 16.8896 16.19 16.7496 16.08C13.8696 13.85 10.1396 13.85 7.24958 16.08C6.91958 16.33 6.44958 16.27 6.19958 15.95C5.94958 15.62 6.00958 15.15 6.32958 14.9C9.76958 12.24 14.2196 12.24 17.6596 14.9C17.9896 15.15 18.0496 15.62 17.7896 15.95C17.6496 16.14 17.4296 16.24 17.2096 16.24Z" fill="white"/>
<path d="M14.6002 19.9C14.4402 19.9 14.2802 19.85 14.1402 19.74C12.8402 18.73 11.1502 18.73 9.85017 19.74C9.52017 19.99 9.05017 19.93 8.80017 19.61C8.55017 19.28 8.61017 18.81 8.93017 18.56C10.7902 17.12 13.1902 17.12 15.0502 18.56C15.3802 18.81 15.4402 19.28 15.1802 19.61C15.0502 19.79 14.8302 19.9 14.6002 19.9Z" fill="white"/>
</svg>
