<svg width="24" height="24" viewBox="0 0 24 24" fill="none" xmlns="http://www.w3.org/2000/svg">
<path d="M10 3.75H11.25V8.5C11.25 8.91 11.59 9.25 12 9.25C12.41 9.25 12.75 8.91 12.75 8.5V3.75H14C14.41 3.75 14.75 3.41 14.75 3C14.75 2.59 14.41 2.25 14 2.25H10C9.59 2.25 9.25 2.59 9.25 3C9.25 3.41 9.59 3.75 10 3.75Z" fill="white"/>
<path d="M14 20.25H12.75V15.5C12.75 15.09 12.41 14.75 12 14.75C11.59 14.75 11.25 15.09 11.25 15.5V20.25H10C9.59 20.25 9.25 20.59 9.25 21C9.25 21.41 9.59 21.75 10 21.75H14C14.41 21.75 14.75 21.41 14.75 21C14.75 20.59 14.41 20.25 14 20.25Z" fill="white"/>
<path d="M2.83036 9.87994C2.95036 9.94994 3.08036 9.97993 3.20036 9.97993C3.46036 9.97993 3.71036 9.84994 3.85036 9.59994L4.48036 8.51994L8.60037 10.8999C8.71037 10.9699 8.84037 10.9999 8.97037 10.9999C9.23037 10.9999 9.48036 10.8699 9.62036 10.6199C9.83036 10.2699 9.70037 9.80994 9.35037 9.59994L5.23036 7.21993L5.85036 6.13993C6.06036 5.77993 5.93036 5.31993 5.58036 5.11993C5.22036 4.90993 4.76036 5.02993 4.56036 5.38993L2.56036 8.84994C2.35036 9.21994 2.47036 9.66994 2.83036 9.87994Z" fill="white"/>
<path d="M21.1704 14.1199C20.8104 13.9099 20.3504 14.0299 20.1504 14.3899L19.5204 15.4699L15.4004 13.0999C15.0404 12.8899 14.5804 13.0199 14.3804 13.3699C14.1704 13.7299 14.3004 14.1899 14.6504 14.3899L18.7604 16.7699L18.1404 17.8499C17.9304 18.2099 18.0604 18.6699 18.4104 18.8699C18.5304 18.9399 18.6604 18.9699 18.7804 18.9699C19.0404 18.9699 19.2904 18.8399 19.4304 18.5899L21.4304 15.1299C21.6504 14.7799 21.5304 14.3299 21.1704 14.1199Z" fill="white"/>
<path d="M18.7697 7.21994L14.6497 9.59995C14.2897 9.80995 14.1697 10.2699 14.3797 10.6199C14.5197 10.8599 14.7697 10.9999 15.0297 10.9999C15.1597 10.9999 15.2897 10.9699 15.3997 10.8999L19.5097 8.51994L20.1397 9.59995C20.2797 9.83995 20.5297 9.97994 20.7897 9.97994C20.9197 9.97994 21.0497 9.94994 21.1597 9.87994C21.5197 9.66994 21.6397 9.20994 21.4297 8.85994L19.4297 5.39994C19.2197 5.03994 18.7597 4.91994 18.4097 5.12994C18.0497 5.33994 17.9297 5.79994 18.1397 6.14994L18.7697 7.21994Z" fill="white"/>
<path d="M5.23036 16.7799L9.34036 14.3999C9.70036 14.1899 9.82036 13.7299 9.61036 13.3799C9.40036 13.0199 8.94036 12.8999 8.59036 13.1099L4.48036 15.4899L3.85036 14.4099C3.64036 14.0499 3.18036 13.9299 2.83036 14.1399C2.47036 14.3499 2.35036 14.8099 2.56036 15.1599L4.56036 18.6199C4.70036 18.8599 4.95036 18.9999 5.21036 18.9999C5.34036 18.9999 5.47036 18.9699 5.58036 18.8999C5.94036 18.6899 6.06036 18.2299 5.85036 17.8799L5.23036 16.7799Z" fill="white"/>
<path d="M15.5 12C15.5 12.64 15.33 13.23 15.03 13.75C14.42 14.8 13.29 15.5 12 15.5C10.71 15.5 9.58 14.8 8.97 13.75C8.67 13.23 8.5 12.64 8.5 12C8.5 11.36 8.67 10.77 8.97 10.25C9.58 9.2 10.71 8.5 12 8.5C13.29 8.5 14.42 9.2 15.03 10.25C15.33 10.77 15.5 11.36 15.5 12Z" fill="white"/>
</svg>
