<svg width="24" height="24" viewBox="0 0 24 24" fill="none" xmlns="http://www.w3.org/2000/svg">
<path d="M21.6895 2.71C21.6095 2.53 21.4695 2.38 21.2795 2.3C21.1895 2.27 21.0995 2.25 20.9995 2.25H11.9995C11.5895 2.25 11.2495 2.59 11.2495 3C11.2495 3.41 11.5895 3.75 11.9995 3.75H19.1895L2.46945 20.47C2.17945 20.76 2.17945 21.24 2.46945 21.53C2.61945 21.68 2.80945 21.75 2.99945 21.75C3.18945 21.75 3.37945 21.68 3.52945 21.53L20.2495 4.81V12C20.2495 12.41 20.5895 12.75 20.9995 12.75C21.4095 12.75 21.7495 12.41 21.7495 12V3C21.7495 2.9 21.7295 2.81 21.6895 2.71Z" fill="white"/>
<path d="M17.3991 18.15C17.2091 18.15 17.0191 18.08 16.8691 17.93L6.06906 7.13004C5.77906 6.84004 5.77906 6.36004 6.06906 6.07004C6.35906 5.78004 6.83906 5.78004 7.12906 6.07004L17.9291 16.87C18.2191 17.16 18.2191 17.64 17.9291 17.93C17.7791 18.08 17.5891 18.15 17.3991 18.15Z" fill="white"/>
</svg>
