<svg width="24" height="24" viewBox="0 0 24 24" fill="none" xmlns="http://www.w3.org/2000/svg">
<path d="M14.4304 16.9199H12.1404C11.7304 16.9199 11.3904 16.5799 11.3904 16.1699C11.3904 15.7599 11.7304 15.4199 12.1404 15.4199H14.4304C14.8604 15.4199 15.2104 15.0699 15.2104 14.6399C15.2104 14.2099 14.8604 13.8599 14.4304 13.8599H12.1404C11.9004 13.8599 11.6704 13.7399 11.5304 13.5499C11.3904 13.3599 11.3504 13.0999 11.4304 12.8699L12.1904 10.5799C12.2904 10.2699 12.5804 10.0699 12.9004 10.0699H15.9604C16.3704 10.0699 16.7104 10.4099 16.7104 10.8199C16.7104 11.2299 16.3704 11.5699 15.9604 11.5699H13.4404L13.1804 12.3599H14.4304C15.6904 12.3599 16.7104 13.3799 16.7104 14.6399C16.7104 15.8999 15.6804 16.9199 14.4304 16.9199Z" fill="white"/>
<path d="M9.54041 16.92C9.13041 16.92 8.79041 16.58 8.79041 16.17V12.78L8.60041 13C8.32041 13.31 7.85041 13.33 7.54041 13.06C7.24041 12.78 7.21041 12.31 7.49041 12L8.99041 10.33C9.20041 10.1 9.53041 10.02 9.82041 10.13C10.1104 10.24 10.3004 10.52 10.3004 10.83V16.18C10.2904 16.59 9.96041 16.92 9.54041 16.92Z" fill="white"/>
<path d="M11.9996 3.48006C11.9196 3.48006 11.8396 3.49006 11.7596 3.49006L12.5796 2.47006C12.8396 2.15006 12.7896 1.67006 12.4596 1.42006C12.1296 1.17006 11.6696 1.21006 11.4096 1.54006L9.43961 4.00006C9.42961 4.01006 9.42961 4.02006 9.41961 4.04006C9.38961 4.08006 9.36961 4.13006 9.34961 4.17006C9.32961 4.22006 9.30961 4.26006 9.29961 4.30006C9.28961 4.35006 9.28961 4.39006 9.28961 4.44006C9.28961 4.49006 9.28961 4.54006 9.28961 4.59006C9.28961 4.61006 9.28961 4.62006 9.28961 4.64006C9.29961 4.67006 9.31961 4.69006 9.32961 4.72006C9.34961 4.77006 9.36961 4.81006 9.38961 4.86006C9.41961 4.90006 9.44961 4.94006 9.48961 4.97006C9.50961 5.00006 9.51961 5.03006 9.54961 5.05006C9.56961 5.06006 9.57961 5.07006 9.59961 5.08006C9.61961 5.10006 9.64961 5.11006 9.67961 5.12006C9.72961 5.15006 9.78961 5.17006 9.83961 5.18006C9.87961 5.20006 9.90961 5.20006 9.93961 5.20006C9.96961 5.20006 9.98961 5.21006 10.0196 5.21006C10.0496 5.21006 10.0696 5.20006 10.0896 5.19006C10.1196 5.19006 10.1496 5.20006 10.1796 5.19006C10.8196 5.04006 11.4196 4.97006 11.9896 4.97006C16.4796 4.97006 20.1296 8.62006 20.1296 13.1101C20.1296 17.6001 16.4796 21.2501 11.9896 21.2501C7.49961 21.2501 3.84961 17.6001 3.84961 13.1101C3.84961 11.3701 4.41961 9.69006 5.49961 8.25006C5.74961 7.92006 5.67961 7.45006 5.34961 7.20006C5.01961 6.95006 4.54961 7.02006 4.29961 7.35006C3.01961 9.05006 2.34961 11.0401 2.34961 13.1101C2.34961 18.4201 6.66961 22.7501 11.9896 22.7501C17.3096 22.7501 21.6296 18.4301 21.6296 13.1101C21.6296 7.79006 17.3096 3.48006 11.9996 3.48006Z" fill="white"/>
</svg>
