<svg width="24" height="24" viewBox="0 0 24 24" fill="none" xmlns="http://www.w3.org/2000/svg">
<path d="M12.3796 16.9199H10.0896C9.67964 16.9199 9.33964 16.5799 9.33964 16.1699C9.33964 15.7599 9.67964 15.4199 10.0896 15.4199H12.3796C12.8096 15.4199 13.1596 15.0699 13.1596 14.6399C13.1596 14.2099 12.8096 13.8599 12.3796 13.8599H10.0896C9.84964 13.8599 9.61964 13.7399 9.47964 13.5499C9.33964 13.3599 9.29964 13.0999 9.37964 12.8699L10.1396 10.5799C10.2396 10.2699 10.5296 10.0699 10.8496 10.0699H13.9096C14.3196 10.0699 14.6596 10.4099 14.6596 10.8199C14.6596 11.2299 14.3196 11.5699 13.9096 11.5699H11.3896L11.1296 12.3599H12.3796C13.6396 12.3599 14.6596 13.3799 14.6596 14.6399C14.6596 15.8999 13.6396 16.9199 12.3796 16.9199Z" fill="white"/>
<path d="M11.9996 3.48006C11.9196 3.48006 11.8396 3.49006 11.7596 3.49006L12.5796 2.47006C12.8396 2.15006 12.7896 1.67006 12.4596 1.42006C12.1296 1.17006 11.6696 1.21006 11.4096 1.54006L9.43961 4.00006C9.42961 4.01006 9.42961 4.02006 9.41961 4.04006C9.38961 4.08006 9.36961 4.13006 9.34961 4.17006C9.32961 4.22006 9.30961 4.26006 9.29961 4.30006C9.28961 4.35006 9.28961 4.39006 9.28961 4.44006C9.28961 4.49006 9.28961 4.54006 9.28961 4.59006C9.28961 4.61006 9.28961 4.62006 9.28961 4.64006C9.29961 4.67006 9.31961 4.69006 9.32961 4.72006C9.34961 4.77006 9.36961 4.81006 9.38961 4.86006C9.41961 4.90006 9.44961 4.94006 9.48961 4.97006C9.50961 5.00006 9.51961 5.03006 9.54961 5.05006C9.56961 5.06006 9.57961 5.07006 9.59961 5.08006C9.62961 5.10006 9.64961 5.11006 9.67961 5.12006C9.72961 5.15006 9.78961 5.17006 9.84961 5.18006C9.87961 5.20006 9.90961 5.20006 9.93961 5.20006C9.96961 5.20006 9.98961 5.21006 10.0196 5.21006C10.0496 5.21006 10.0696 5.20006 10.0896 5.19006C10.1196 5.19006 10.1496 5.20006 10.1796 5.19006C10.8196 5.04006 11.4196 4.97006 11.9896 4.97006C16.4796 4.97006 20.1296 8.62006 20.1296 13.1101C20.1296 17.6001 16.4796 21.2501 11.9896 21.2501C7.49961 21.2501 3.84961 17.6001 3.84961 13.1101C3.84961 11.3701 4.41961 9.69006 5.49961 8.25006C5.74961 7.92006 5.67961 7.45006 5.34961 7.20006C5.01961 6.95006 4.54961 7.02006 4.29961 7.35006C3.01961 9.05006 2.34961 11.0401 2.34961 13.1101C2.34961 18.4201 6.66961 22.7501 11.9896 22.7501C17.3096 22.7501 21.6296 18.4301 21.6296 13.1101C21.6296 7.79006 17.3096 3.48006 11.9996 3.48006Z" fill="white"/>
</svg>
