<svg width="24" height="24" viewBox="0 0 24 24" fill="none" xmlns="http://www.w3.org/2000/svg">
<path d="M21.7699 2.23C21.4699 1.93 20.9799 1.93 20.6799 2.23L2.22988 20.69C1.92988 20.99 1.92988 21.48 2.22988 21.78C2.37988 21.92 2.56988 22 2.76988 22C2.96988 22 3.15988 21.92 3.30988 21.77L21.7699 3.31C22.0799 3.01 22.0799 2.53 21.7699 2.23Z" fill="white"/>
<path d="M16.5502 5.11L15.8302 3.66C15.3702 2.75 14.1702 2 13.1502 2H10.8602C9.83017 2 8.63017 2.75 8.17017 3.66L7.45017 5.11C7.17017 5.65 6.61017 6 6.00017 6C3.83017 6 2.11017 7.83 2.25017 9.99L2.77017 18.25C2.82017 19.1 3.03017 19.89 3.48017 20.52L18.0002 6C17.3902 6 16.8302 5.65 16.5502 5.11ZM9.50017 10.75H6.50017C6.09017 10.75 5.75017 10.41 5.75017 10C5.75017 9.59 6.09017 9.25 6.50017 9.25H9.50017C9.91017 9.25 10.2502 9.59 10.2502 10C10.2502 10.41 9.91017 10.75 9.50017 10.75Z" fill="white"/>
<path d="M21.7503 9.99L21.2303 18.25C21.1003 20.31 20.0003 22 17.2403 22H7.41026C6.52026 22 6.07026 20.92 6.70026 20.29L9.17026 17.82C9.48026 17.51 9.96026 17.47 10.3503 17.69C11.0403 18.08 11.8703 18.23 12.7503 18.04C14.0203 17.77 15.0503 16.73 15.3003 15.45C15.4703 14.59 15.3203 13.78 14.9403 13.11C14.7203 12.72 14.7503 12.23 15.0703 11.92L19.5703 7.42C19.9803 7.01 20.6703 7.06 21.0203 7.53C21.5403 8.21 21.8103 9.07 21.7503 9.99Z" fill="white"/>
</svg>
