<svg width="24" height="24" viewBox="0 0 24 24" fill="none" xmlns="http://www.w3.org/2000/svg">
<path d="M14.4304 16.9199H12.1404C11.7304 16.9199 11.3904 16.5799 11.3904 16.1699C11.3904 15.7599 11.7304 15.4199 12.1404 15.4199H14.4304C14.8604 15.4199 15.2104 15.0699 15.2104 14.6399C15.2104 14.2099 14.8604 13.8599 14.4304 13.8599H12.1404C11.9004 13.8599 11.6704 13.7399 11.5304 13.5499C11.3904 13.3599 11.3504 13.0999 11.4304 12.8699L12.1904 10.5799C12.2904 10.2699 12.5804 10.0699 12.9004 10.0699H15.9604C16.3704 10.0699 16.7104 10.4099 16.7104 10.8199C16.7104 11.2299 16.3704 11.5699 15.9604 11.5699H13.4404L13.1804 12.3599H14.4304C15.6904 12.3599 16.7104 13.3799 16.7104 14.6399C16.7104 15.8999 15.6804 16.9199 14.4304 16.9199Z" fill="white"/>
<path d="M9.54041 16.92C9.13041 16.92 8.79041 16.58 8.79041 16.17V12.78L8.60041 13C8.32041 13.31 7.85041 13.33 7.54041 13.06C7.24041 12.78 7.21041 12.31 7.49041 12L8.99041 10.33C9.20041 10.1 9.53041 10.02 9.82041 10.13C10.1104 10.24 10.3004 10.52 10.3004 10.83V16.18C10.2904 16.59 9.96041 16.92 9.54041 16.92Z" fill="white"/>
<path d="M19.6896 7.35002C19.4396 7.02002 18.9696 6.95002 18.6396 7.20002C18.3096 7.45002 18.2396 7.92002 18.4896 8.25002C19.5696 9.69002 20.1396 11.37 20.1396 13.11C20.1396 17.6 16.4896 21.25 11.9996 21.25C7.50961 21.25 3.85961 17.6 3.85961 13.11C3.85961 8.62002 7.50961 4.98002 11.9996 4.98002C12.5796 4.98002 13.1696 5.05002 13.8096 5.20002C13.8396 5.21002 13.8696 5.20002 13.8996 5.20002C13.9296 5.20002 13.9496 5.22002 13.9696 5.22002C13.9996 5.22002 14.0196 5.21002 14.0496 5.21002C14.0796 5.21002 14.1096 5.20002 14.1496 5.19002C14.2096 5.18002 14.2596 5.15002 14.3096 5.13002C14.3396 5.11002 14.3696 5.10002 14.3996 5.08002C14.4096 5.07002 14.4296 5.07002 14.4396 5.06002C14.4696 5.04002 14.4796 5.01002 14.4996 4.99002C14.5396 4.95002 14.5696 4.92002 14.5996 4.87002C14.6296 4.83002 14.6396 4.78002 14.6596 4.73002C14.6696 4.70002 14.6896 4.67002 14.6996 4.64002C14.6996 4.62002 14.6996 4.61002 14.6996 4.59002C14.7096 4.54002 14.7096 4.49002 14.6996 4.44002C14.6996 4.39002 14.6996 4.35002 14.6896 4.30002C14.6796 4.26002 14.6596 4.22002 14.6396 4.17002C14.6196 4.12002 14.5996 4.07002 14.5696 4.03002C14.5696 4.02002 14.5696 4.01002 14.5596 4.00002L12.5796 1.53002C12.3196 1.21002 11.8496 1.15002 11.5296 1.41002C11.2096 1.67002 11.1596 2.14002 11.4096 2.46002L12.2296 3.48002C12.1496 3.48002 12.0696 3.47002 11.9896 3.47002C6.67961 3.47002 2.34961 7.79002 2.34961 13.11C2.34961 18.43 6.66961 22.75 11.9896 22.75C17.3096 22.75 21.6296 18.43 21.6296 13.11C21.6396 11.04 20.9596 9.05002 19.6896 7.35002Z" fill="white"/>
</svg>
