<svg width="24" height="24" viewBox="0 0 24 24" fill="none" xmlns="http://www.w3.org/2000/svg">
<path d="M19.6896 7.34996C19.4396 7.01996 18.9696 6.94996 18.6396 7.19996C18.3096 7.44996 18.2396 7.91996 18.4896 8.24996C19.5696 9.68996 20.1396 11.37 20.1396 13.11C20.1396 17.6 16.4896 21.25 11.9996 21.25C7.50961 21.25 3.85961 17.6 3.85961 13.11C3.85961 8.61996 7.50961 4.97996 11.9996 4.97996C12.5796 4.97996 13.1696 5.04996 13.8096 5.19996C13.8396 5.20996 13.8696 5.19996 13.9096 5.19996C13.9296 5.19996 13.9596 5.21996 13.9796 5.21996C14.0096 5.21996 14.0296 5.20996 14.0596 5.20996C14.0996 5.20996 14.1296 5.19996 14.1596 5.18996C14.2096 5.17996 14.2596 5.15996 14.3096 5.12996C14.3396 5.10996 14.3796 5.09996 14.4096 5.07996C14.4196 5.06996 14.4396 5.06996 14.4496 5.05996C14.4796 5.03996 14.4896 5.00996 14.5096 4.98996C14.5496 4.94996 14.5796 4.91996 14.6096 4.86996C14.6396 4.82996 14.6496 4.77996 14.6696 4.73996C14.6796 4.70996 14.6996 4.67996 14.7096 4.64996C14.7096 4.62996 14.7096 4.61996 14.7096 4.59996C14.7196 4.54996 14.7196 4.49996 14.7096 4.44996C14.7096 4.39996 14.7096 4.35996 14.6996 4.30996C14.6896 4.26996 14.6696 4.22996 14.6496 4.17996C14.6296 4.12996 14.6096 4.07996 14.5796 4.03996C14.5696 4.01996 14.5696 4.00996 14.5596 3.99996L12.5796 1.52996C12.3196 1.20996 11.8496 1.15996 11.5296 1.40996C11.2096 1.66996 11.1596 2.13996 11.4096 2.45996L12.2296 3.47996C12.1496 3.47996 12.0696 3.46996 11.9896 3.46996C6.67961 3.46996 2.34961 7.78996 2.34961 13.11C2.34961 18.43 6.66961 22.75 11.9896 22.75C17.3096 22.75 21.6296 18.43 21.6296 13.11C21.6396 11.04 20.9596 9.04996 19.6896 7.34996Z" fill="white"/>
<path d="M9.53955 16.67C9.12955 16.67 8.78955 16.33 8.78955 15.92V12.53L8.59955 12.75C8.31955 13.06 7.84955 13.08 7.53955 12.81C7.22955 12.53 7.20955 12.06 7.47955 11.75L8.97955 10.08C9.18955 9.84996 9.51955 9.76996 9.80955 9.87996C10.0996 9.98996 10.2896 10.27 10.2896 10.58V15.93C10.2896 16.34 9.95955 16.67 9.53955 16.67Z" fill="white"/>
<path d="M14 16.6699C12.48 16.6699 11.25 15.4399 11.25 13.9199V12.5699C11.25 11.0499 12.48 9.81995 14 9.81995C15.52 9.81995 16.75 11.0499 16.75 12.5699V13.9199C16.75 15.4399 15.52 16.6699 14 16.6699ZM14 11.3299C13.31 11.3299 12.75 11.8899 12.75 12.5799V13.9299C12.75 14.6199 13.31 15.1799 14 15.1799C14.69 15.1799 15.25 14.6199 15.25 13.9299V12.5799C15.25 11.8899 14.69 11.3299 14 11.3299Z" fill="white"/>
</svg>
