<svg width="24" height="24" viewBox="0 0 24 24" fill="none" xmlns="http://www.w3.org/2000/svg">
<path d="M19.48 7.09003C19.22 6.77003 18.75 6.72003 18.43 6.98003C18.11 7.24003 18.06 7.71003 18.32 8.03003C19.45 9.43003 20.08 11.09 20.14 12.83C20.3 17.31 16.78 21.09 12.29 21.24C7.80003 21.4 4.03003 17.88 3.87003 13.4C3.71003 8.92003 7.23003 5.14003 11.72 4.99003C12.29 4.97003 12.89 5.02003 13.54 5.15003C13.58 5.16003 13.62 5.15003 13.66 5.15003C13.76 5.20003 13.88 5.23003 13.99 5.23003C14.16 5.23003 14.32 5.18003 14.46 5.06003C14.78 4.80003 14.83 4.33003 14.58 4.01003L12.6 1.54003C12.34 1.22003 11.87 1.16003 11.55 1.42003C11.23 1.68003 11.18 2.15003 11.43 2.47003L12.26 3.50003C12.07 3.49003 11.87 3.48003 11.68 3.49003C6.37003 3.67003 2.20003 8.15003 2.39003 13.46C2.58003 18.77 7.05003 22.94 12.36 22.75C17.67 22.56 21.84 18.09 21.65 12.78C21.56 10.71 20.82 8.74003 19.48 7.09003Z" fill="white"/>
<path d="M12.3796 16.9199H10.0896C9.67964 16.9199 9.33964 16.5799 9.33964 16.1699C9.33964 15.7599 9.67964 15.4199 10.0896 15.4199H12.3796C12.8096 15.4199 13.1596 15.0699 13.1596 14.6399C13.1596 14.2099 12.8096 13.8599 12.3796 13.8599H10.0896C9.84964 13.8599 9.61964 13.7399 9.47964 13.5499C9.33964 13.3599 9.29964 13.0999 9.37964 12.8699L10.1396 10.5799C10.2396 10.2699 10.5296 10.0699 10.8496 10.0699H13.9096C14.3196 10.0699 14.6596 10.4099 14.6596 10.8199C14.6596 11.2299 14.3196 11.5699 13.9096 11.5699H11.3896L11.1296 12.3599H12.3796C13.6396 12.3599 14.6596 13.3799 14.6596 14.6399C14.6596 15.8999 13.6396 16.9199 12.3796 16.9199Z" fill="white"/>
</svg>
