<svg width="24" height="24" viewBox="0 0 24 24" fill="none" xmlns="http://www.w3.org/2000/svg">
<path d="M21.7699 2.23C21.4699 1.93 20.9799 1.93 20.6799 2.23L2.22988 20.69C1.92988 20.99 1.92988 21.48 2.22988 21.78C2.37988 21.92 2.56988 22 2.76988 22C2.96988 22 3.15988 21.92 3.30988 21.77L21.7699 3.31C22.0799 3.01 22.0799 2.53 21.7699 2.23Z" fill="white"/>
<path d="M9.00012 10.38C10.3146 10.38 11.3801 9.31443 11.3801 8C11.3801 6.68556 10.3146 5.62 9.00012 5.62C7.68568 5.62 6.62012 6.68556 6.62012 8C6.62012 9.31443 7.68568 10.38 9.00012 10.38Z" fill="white"/>
<path d="M21.6104 5.39001L20.3904 6.61001C20.4704 6.98001 20.5004 7.38001 20.5004 7.81001V12.61L20.3704 12.5C19.5904 11.83 18.3304 11.83 17.5504 12.5L13.3904 16.07C12.6804 16.68 11.5604 16.74 10.7804 16.22L5.40039 21.6C5.44039 21.62 5.48039 21.63 5.52039 21.64C5.79039 21.73 6.06039 21.8 6.35039 21.86C6.45039 21.88 6.55039 21.9 6.66039 21.91C7.03039 21.96 7.41039 22 7.81039 22H16.1904C19.8304 22 22.0004 19.83 22.0004 16.19V7.81001C22.0004 6.91001 21.8704 6.10001 21.6104 5.39001Z" fill="white"/>
<path d="M21.6096 5.39001L20.3896 6.61001C20.4696 6.98001 20.4996 7.38001 20.4996 7.81001V12.61L20.3696 12.5C19.5896 11.83 18.3296 11.83 17.5496 12.5L13.3896 16.07C12.6796 16.68 11.5596 16.74 10.7796 16.22L5.38965 21.61C6.09965 21.87 6.90965 22 7.80965 22H16.1896C19.8296 22 21.9996 19.83 21.9996 16.19V7.81001C21.9996 6.91001 21.8696 6.10001 21.6096 5.39001Z" fill="white"/>
<path d="M20.46 3.54L19.4 4.6C18.68 3.87 17.6 3.5 16.19 3.5H7.81C4.99 3.5 3.5 4.99 3.5 7.81V16.19C3.5 16.95 3.63 17.6 3.85 18.16L7.59 15.65C7.93 15.42 8.32 15.3 8.71 15.29L3.54 20.46C3.14 20.06 2.81 19.58 2.56 19.03C2.19 18.23 2 17.28 2 16.19V7.81C2 4.17 4.17 2 7.81 2H16.19C18.01 2 19.46 2.54 20.46 3.54Z" fill="white"/>
</svg>
