<svg width="24" height="24" viewBox="0 0 24 24" fill="none" xmlns="http://www.w3.org/2000/svg">
<path d="M22.0196 16.82L18.8896 9.50002C18.3196 8.16002 17.4696 7.40002 16.4996 7.35002C15.5396 7.30002 14.6096 7.97002 13.8996 9.25002L11.9996 12.66C11.5996 13.38 11.0296 13.81 10.4096 13.86C9.77965 13.92 9.14965 13.59 8.63965 12.94L8.41965 12.66C7.70965 11.77 6.82965 11.34 5.92965 11.43C5.02965 11.52 4.25965 12.14 3.74965 13.15L2.01965 16.6C1.39965 17.85 1.45965 19.3 2.18965 20.48C2.91965 21.66 4.18965 22.37 5.57965 22.37H18.3396C19.6796 22.37 20.9296 21.7 21.6696 20.58C22.4296 19.46 22.5496 18.05 22.0196 16.82Z" fill="white"/>
<path d="M6.96984 8.38C8.83657 8.38 10.3498 6.86672 10.3498 5C10.3498 3.13327 8.83657 1.62 6.96984 1.62C5.10312 1.62 3.58984 3.13327 3.58984 5C3.58984 6.86672 5.10312 8.38 6.96984 8.38Z" fill="white"/>
</svg>
