<svg width="24" height="24" viewBox="0 0 24 24" fill="none" xmlns="http://www.w3.org/2000/svg">
<path d="M21.7197 6.28001V7.45001C21.7197 8.43001 21.3297 9.27001 20.6397 9.76001C20.2097 10.08 19.6797 10.23 19.1297 10.23C18.7897 10.23 18.4497 10.18 18.0997 10.06L12.7197 8.27001V18C12.7197 20.62 10.5897 22.75 7.96973 22.75C5.34973 22.75 3.21973 20.62 3.21973 18C3.21973 15.38 5.34973 13.25 7.96973 13.25C9.22973 13.25 10.3697 13.75 11.2197 14.55V4.00001C11.2197 3.03001 11.6197 2.19001 12.3097 1.69001C12.9997 1.20001 13.9197 1.09001 14.8397 1.39001L19.2597 2.87001C20.6197 3.32001 21.7197 4.85001 21.7197 6.28001Z" fill="white"/>
</svg>
