<svg width="24" height="24" viewBox="0 0 24 24" fill="none" xmlns="http://www.w3.org/2000/svg">
<path d="M2.57963 9.42001C2.49963 9.42001 2.40963 9.41001 2.32963 9.38001C1.93963 9.24001 1.73963 8.81001 1.86963 8.42001C2.53963 6.54001 3.69963 4.89001 5.24963 3.64001C5.56963 3.38001 6.03963 3.43001 6.29963 3.75001C6.55963 4.07001 6.50963 4.54001 6.18963 4.81001C4.86963 5.88001 3.85963 7.30001 3.28963 8.92001C3.17963 9.23001 2.88963 9.42001 2.57963 9.42001Z" fill="white"/>
<path d="M2.58 16.08C2.27 16.08 1.98 15.89 1.87 15.58C1.46 14.42 1.25 13.21 1.25 12C1.25 11.59 1.59 11.25 2 11.25C2.41 11.25 2.75 11.59 2.75 12C2.75 13.04 2.93 14.08 3.29 15.08C3.43 15.47 3.22 15.9 2.83 16.04C2.75 16.07 2.66 16.08 2.58 16.08Z" fill="white"/>
<path d="M11.9996 22.75C10.9396 22.75 9.88962 22.59 8.86962 22.28C8.46962 22.16 8.24962 21.74 8.36962 21.34C8.48962 20.94 8.90962 20.72 9.30962 20.84C10.1796 21.11 11.0896 21.24 11.9996 21.24C17.0996 21.24 21.2496 17.09 21.2496 11.99C21.2496 11.47 21.1996 10.93 21.0996 10.36C21.0296 9.95004 21.2996 9.56004 21.7096 9.49004C22.1096 9.42004 22.5096 9.69004 22.5796 10.1C22.6996 10.76 22.7596 11.38 22.7596 12C22.7496 17.93 17.9296 22.75 11.9996 22.75Z" fill="white"/>
<path d="M5.72021 20.5001C5.55021 20.5001 5.39021 20.4501 5.25021 20.3301C4.68021 19.8701 4.22021 19.4301 3.83021 18.9801C3.56021 18.6701 3.60021 18.1901 3.91021 17.9201C4.23021 17.6501 4.70021 17.6901 4.97021 18.0001C5.30021 18.3801 5.70021 18.7601 6.19021 19.1601C6.51021 19.4201 6.56021 19.8901 6.30021 20.2101C6.16021 20.4001 5.94021 20.5001 5.72021 20.5001Z" fill="white"/>
<path d="M20.2404 7.09C20.0004 7.09 19.7704 6.98 19.6204 6.76C17.9004 4.25 15.0404 2.75 12.0004 2.75C11.0904 2.75 10.1804 2.88 9.3104 3.15C8.9204 3.27 8.5004 3.05 8.3704 2.65C8.2404 2.25 8.4704 1.83 8.8704 1.71C9.8904 1.41 10.9404 1.25 12.0004 1.25C15.5404 1.25 18.8504 3 20.8604 5.92C21.0904 6.26 21.0104 6.73 20.6704 6.96C20.5404 7.05 20.3904 7.09 20.2404 7.09Z" fill="white"/>
<path d="M16.03 6.49997C15.7 6.24997 15.1 5.99997 14.14 6.25997L10.95 7.11997C10.03 7.37997 9.43 8.15997 9.43 9.11997V10.76V13.34C9.17 13.24 8.89 13.18 8.59 13.18C7.3 13.18 6.25 14.23 6.25 15.52C6.25 16.81 7.3 17.86 8.59 17.86C9.87 17.86 10.9 16.83 10.92 15.56C10.92 15.55 10.93 15.54 10.93 15.52V11.33L15.25 10.15V12.28C14.99 12.18 14.71 12.12 14.41 12.12C13.12 12.12 12.07 13.17 12.07 14.46C12.07 15.75 13.12 16.8 14.41 16.8C15.7 16.8 16.75 15.75 16.75 14.46V9.16997V8.24997C16.75 7.44997 16.51 6.85997 16.03 6.49997ZM8.59 16.36C8.13 16.36 7.75 15.98 7.75 15.52C7.75 15.06 8.13 14.68 8.59 14.68C9.05 14.68 9.43 15.06 9.43 15.52C9.43 15.98 9.05 16.36 8.59 16.36ZM14.41 15.3C13.95 15.3 13.57 14.92 13.57 14.46C13.57 14 13.95 13.62 14.41 13.62C14.87 13.62 15.25 14 15.25 14.46C15.25 14.92 14.87 15.3 14.41 15.3Z" fill="white"/>
</svg>
