<svg width="24" height="24" viewBox="0 0 24 24" fill="none" xmlns="http://www.w3.org/2000/svg">
<path d="M11.9697 2C6.44973 2 1.96973 6.48 1.96973 12C1.96973 17.52 6.44973 22 11.9697 22C17.4897 22 21.9697 17.52 21.9697 12C21.9697 6.48 17.4997 2 11.9697 2ZM10.7197 15.03C10.7197 15.51 10.5197 15.7 10.0097 15.7H8.70973C8.19973 15.7 7.99973 15.51 7.99973 15.03V8.97C7.99973 8.49 8.19973 8.3 8.70973 8.3H9.99973C10.5097 8.3 10.7097 8.49 10.7097 8.97V15.03H10.7197ZM15.9997 15.03C15.9997 15.51 15.7997 15.7 15.2897 15.7H13.9997C13.4897 15.7 13.2897 15.51 13.2897 15.03V8.97C13.2897 8.49 13.4897 8.3 13.9997 8.3H15.2897C15.7997 8.3 15.9997 8.49 15.9997 8.97V15.03Z" fill="white"/>
</svg>
