<svg width="24" height="24" viewBox="0 0 24 24" fill="none" xmlns="http://www.w3.org/2000/svg">
<path d="M21.28 15.72C20.63 15.27 19.84 15 19 15C18.06 15 17.19 15.33 16.5 15.88C15.58 16.61 15 17.74 15 19C15 19.75 15.21 20.46 15.58 21.06C15.62 21.13 15.67 21.2 15.73 21.27C16.43 22.31 17.63 23 19 23C20.01 23 20.93 22.63 21.63 22C21.94 21.74 22.21 21.42 22.42 21.06C22.79 20.46 23 19.75 23 19C23 17.64 22.32 16.44 21.28 15.72ZM20.6 20.58C20.45 20.73 20.26 20.8 20.07 20.8C19.88 20.8 19.69 20.73 19.54 20.58L19.01 20.05L18.46 20.6C18.31 20.75 18.12 20.82 17.93 20.82C17.74 20.82 17.55 20.75 17.4 20.6C17.11 20.31 17.11 19.83 17.4 19.54L17.95 18.99L17.42 18.46C17.13 18.17 17.13 17.69 17.42 17.4C17.71 17.11 18.19 17.11 18.48 17.4L19.01 17.93L19.51 17.43C19.8 17.14 20.28 17.14 20.57 17.43C20.86 17.72 20.86 18.2 20.57 18.49L20.07 18.99L20.6 19.52C20.89 19.81 20.89 20.28 20.6 20.58Z" fill="white"/>
<path d="M21.8497 10.25C21.0697 5.80004 17.2397 2.35004 12.7297 2.03004C6.62972 1.59004 1.58972 6.64004 2.02972 12.73C2.34972 17.24 5.79972 21.06 10.2497 21.84C11.3997 22.04 12.5197 22.04 13.5897 21.86C13.8997 21.81 14.0797 21.47 13.9597 21.19C13.6597 20.51 13.4997 19.76 13.4997 18.99C13.4997 17.3 14.2497 15.74 15.5697 14.7C16.5397 13.92 17.7597 13.49 18.9997 13.49C19.7797 13.49 20.5197 13.65 21.1897 13.95C21.4797 14.08 21.8097 13.89 21.8697 13.58C22.0497 12.52 22.0497 11.4 21.8497 10.25ZM14.4997 13.57L13.2997 14.26L12.0997 14.95C10.6097 15.81 9.38972 15.11 9.38972 13.38V12V10.61C9.38972 8.89004 10.6097 8.18004 12.0997 9.04004L13.2997 9.73004L14.4997 10.42C15.9897 11.3 15.9897 12.7 14.4997 13.57Z" fill="white"/>
</svg>
