<svg width="24" height="24" viewBox="0 0 24 24" fill="none" xmlns="http://www.w3.org/2000/svg">
<path d="M19.6297 7.24003C19.9297 7.71003 19.7697 8.34003 19.2897 8.63003L18.6997 8.98003L5.58967 16.84C5.10967 17.13 4.47967 16.97 4.19967 16.48C3.19967 14.74 2.74967 12.62 3.13967 10.4C3.79967 6.63003 6.89967 3.63003 10.6897 3.09003C14.4397 2.56003 17.8297 4.36003 19.6297 7.24003Z" fill="white"/>
<path d="M20.8902 13.43C20.2102 17.68 16.4502 20.93 12.1402 21C10.2402 21.03 8.48015 20.48 7.02015 19.49C6.40015 19.08 6.42015 18.16 7.06015 17.78L19.4701 10.49C20.1201 10.11 20.9202 10.55 20.9802 11.3C21.0302 12 21.0002 12.71 20.8902 13.43Z" fill="white"/>
</svg>
