<svg width="24" height="24" viewBox="0 0 24 24" fill="none" xmlns="http://www.w3.org/2000/svg">
<path d="M21.7497 17.98C21.7497 17.96 21.7397 17.94 21.7397 17.92C21.7297 17.84 21.7197 17.76 21.6897 17.69C21.6497 17.6 21.5997 17.53 21.5397 17.46C21.5397 17.46 21.5397 17.45 21.5297 17.45C21.4597 17.38 21.3797 17.33 21.2897 17.29C21.1997 17.25 21.0997 17.23 20.9997 17.23L16.3297 17.25C16.3297 17.25 16.3297 17.25 16.3197 17.25C15.7197 17.25 15.1397 16.97 14.7797 16.49L13.5597 14.92C13.3097 14.59 12.8397 14.53 12.5097 14.79C12.1797 15.05 12.1197 15.51 12.3797 15.84L13.5997 17.41C14.2497 18.25 15.2697 18.75 16.3297 18.75H16.3397L19.1897 18.74L18.4797 19.45C18.1897 19.74 18.1897 20.22 18.4797 20.51C18.6297 20.66 18.8197 20.73 19.0097 20.73C19.1997 20.73 19.3897 20.66 19.5397 20.51L21.5397 18.51C21.6097 18.44 21.6597 18.36 21.6997 18.27C21.7297 18.17 21.7497 18.07 21.7497 17.98Z" fill="white"/>
<path d="M8.42 6.69001C7.77 5.79001 6.73 5.26001 5.62 5.26001C5.61 5.26001 5.61 5.26001 5.6 5.26001L3 5.27001C2.59 5.27001 2.25 5.61001 2.25 6.02001C2.25 6.43001 2.59 6.77001 3 6.77001L5.61 6.76001H5.62C6.25 6.76001 6.84 7.06001 7.2 7.57001L8.28 9.07001C8.43 9.27001 8.66 9.38001 8.89 9.38001C9.04 9.38001 9.2 9.33001 9.33 9.24001C9.67 8.99001 9.74 8.52001 9.5 8.19001L8.42 6.69001Z" fill="white"/>
<path d="M21.74 6.07997C21.74 6.05997 21.75 6.03997 21.75 6.02997C21.75 5.92997 21.73 5.82997 21.69 5.73997C21.65 5.64997 21.6 5.56997 21.53 5.49997L19.53 3.49997C19.24 3.20997 18.76 3.20997 18.47 3.49997C18.18 3.78997 18.18 4.26997 18.47 4.55997L19.18 5.26997L16.45 5.25997C16.44 5.25997 16.44 5.25997 16.43 5.25997C15.28 5.25997 14.2 5.82997 13.56 6.79997L7.17 16.38C6.81 16.92 6.2 17.25 5.55 17.25H5.54L3 17.23C2.59 17.23 2.25 17.56 2.25 17.98C2.25 18.39 2.58 18.73 3 18.73L5.55 18.74C5.56 18.74 5.56 18.74 5.57 18.74C6.73 18.74 7.8 18.17 8.44 17.2L14.83 7.61997C15.19 7.07997 15.8 6.74997 16.45 6.74997H16.46L21 6.76997C21.1 6.76997 21.19 6.74997 21.29 6.70997C21.38 6.66997 21.46 6.61997 21.53 6.54997C21.53 6.54997 21.53 6.53997 21.54 6.53997C21.6 6.46997 21.66 6.39997 21.69 6.30997C21.72 6.23997 21.73 6.15997 21.74 6.07997Z" fill="white"/>
</svg>
