<svg width="24" height="24" viewBox="0 0 24 24" fill="none" xmlns="http://www.w3.org/2000/svg">
<path d="M6.36 7.78003H2V11.25H6.36V7.78003Z" fill="white"/>
<path d="M6.36039 6.29V2.13C4.08039 2.55 2.59039 4.02 2.15039 6.28H6.33039C6.34039 6.28 6.35039 6.29 6.36039 6.29Z" fill="white"/>
<path d="M6.36 16.31V12.75H2V16.28H6.24C6.28 16.28 6.32 16.3 6.36 16.31Z" fill="white"/>
<path d="M21.8504 6.27999C21.4204 4.08999 20.0204 2.64999 17.8604 2.17999V6.27999H21.8504Z" fill="white"/>
<path d="M16.3604 11.25V2.01C16.3104 2 16.2504 2 16.1904 2H7.86035V11.25H16.3604Z" fill="white"/>
<path d="M22.0004 12.75H17.8604V16.28H22.0004V12.75Z" fill="white"/>
<path d="M17.8604 21.82C20.0004 21.35 21.4004 19.93 21.8404 17.78H17.8604V21.82Z" fill="white"/>
<path d="M6.24016 17.78H2.16016C2.62016 20 4.10016 21.45 6.36016 21.87V17.76C6.32016 17.77 6.28016 17.78 6.24016 17.78Z" fill="white"/>
<path d="M22.0004 7.78003H17.8604V11.25H22.0004V7.78003Z" fill="white"/>
<path d="M7.86035 12.75V22H16.1904C16.2504 22 16.3104 22 16.3604 21.99V12.75H7.86035V12.75Z" fill="white"/>
</svg>
