<svg width="24" height="24" viewBox="0 0 24 24" fill="none" xmlns="http://www.w3.org/2000/svg">
<path d="M21.98 15.65C21.16 14.64 19.91 14 18.5 14C17.44 14 16.46 14.37 15.69 14.99C14.65 15.81 14 17.08 14 18.5C14 19.91 14.64 21.16 15.65 21.98C16.42 22.62 17.42 23 18.5 23C19.64 23 20.67 22.57 21.47 21.88C22.4 21.05 23 19.85 23 18.5C23 17.42 22.62 16.42 21.98 15.65ZM19.53 18.78C19.53 19.04 19.39 19.29 19.17 19.42L17.76 20.26C17.64 20.33 17.51 20.37 17.37 20.37C17.12 20.37 16.87 20.24 16.73 20.01C16.52 19.65 16.63 19.19 16.99 18.98L18.03 18.36V17.1C18.03 16.69 18.37 16.35 18.78 16.35C19.19 16.35 19.53 16.69 19.53 17.1V18.78Z" fill="white"/>
<path d="M14.7295 5.86V2.5C14.7295 2.22 14.5095 2 14.2295 2H9.76953C9.48953 2 9.26953 2.22 9.26953 2.5V5.86C9.26953 6.14 9.48953 6.36 9.76953 6.36H14.2295C14.5095 6.36 14.7295 6.14 14.7295 5.86Z" fill="white"/>
<path d="M7.25047 2.02003C4.69047 2.18003 2.94047 3.50003 2.29047 5.70003C2.19047 6.03003 2.43047 6.36003 2.77047 6.36003H7.27047C7.55047 6.36003 7.77047 6.14003 7.77047 5.86003V2.52003C7.77047 2.24003 7.53047 2.00003 7.25047 2.02003Z" fill="white"/>
<path d="M16.7505 2.01002C19.3105 2.17002 21.0605 3.49002 21.7105 5.69002C21.8105 6.02002 21.5705 6.35002 21.2305 6.35002H16.7305C16.4505 6.35002 16.2305 6.13002 16.2305 5.85002V2.51002C16.2305 2.23002 16.4705 1.99002 16.7505 2.01002Z" fill="white"/>
<path d="M22 8.35998V12.74C22 13.11 21.61 13.35 21.28 13.18C20.44 12.74 19.48 12.5 18.5 12.5C16.89 12.5 15.32 13.16 14.2 14.31C13.1 15.43 12.5 16.92 12.5 18.5C12.5 19.31 12.82 20.35 13.22 21.22C13.38 21.57 13.14 22 12.75 22H7.81C4.6 22 2 19.4 2 16.19V8.35998C2 8.07998 2.22 7.85999 2.5 7.85999H21.5C21.78 7.85999 22 8.07998 22 8.35998Z" fill="white"/>
</svg>
