<svg width="24" height="24" viewBox="0 0 24 24" fill="none" xmlns="http://www.w3.org/2000/svg">
<path d="M18.0003 16.75C17.8403 16.75 17.6903 16.7 17.5503 16.6C17.2203 16.35 17.1503 15.88 17.4003 15.55C18.6603 13.87 18.9303 11.64 18.1203 9.70995C17.9603 9.32995 18.1403 8.88995 18.5203 8.72995C18.9003 8.56995 19.3403 8.74995 19.5003 9.12995C20.5203 11.55 20.1703 14.3599 18.6003 16.4599C18.4503 16.6499 18.2303 16.75 18.0003 16.75Z" fill="white"/>
<path d="M19.8304 19.25C19.6704 19.25 19.5204 19.2 19.3804 19.1C19.0504 18.85 18.9804 18.38 19.2304 18.05C21.3704 15.2 21.8404 11.38 20.4604 8.08995C20.3004 7.70995 20.4804 7.26995 20.8604 7.10995C21.2404 6.94996 21.6804 7.12996 21.8404 7.50996C23.4304 11.29 22.8904 15.67 20.4304 18.95C20.2904 19.15 20.0604 19.25 19.8304 19.25Z" fill="white"/>
<path d="M14.0405 12.96C14.6705 12.33 15.7505 12.78 15.7505 13.67V16.6C15.7505 18.32 15.1305 19.61 14.0205 20.23C13.5705 20.48 13.0705 20.6 12.5505 20.6C11.7505 20.6 10.8905 20.33 10.0105 19.78L9.37047 19.38C8.83047 19.04 8.74047 18.28 9.19047 17.83L14.0405 12.96Z" fill="white"/>
<path d="M21.77 2.23C21.47 1.93 20.98 1.93 20.68 2.23L15.73 7.18C15.67 5.58 15.07 4.38 14.01 3.79C12.89 3.17 11.46 3.33 10 4.24L7.09 6.06C6.89 6.18 6.66 6.25 6.43 6.25H5.5H5C2.58 6.25 1.25 7.58 1.25 10V14C1.25 16.42 2.58 17.75 5 17.75H5.16L2.22 20.69C1.92 20.99 1.92 21.48 2.22 21.78C2.38 21.92 2.57 22 2.77 22C2.97 22 3.16 21.92 3.31 21.77L21.77 3.31C22.08 3.01 22.08 2.53 21.77 2.23Z" fill="white"/>
</svg>
