<svg width="24" height="24" viewBox="0 0 24 24" fill="none" xmlns="http://www.w3.org/2000/svg">
<path d="M15.7204 9.69002C13.6704 7.63002 10.3304 7.63002 8.28035 9.69002C6.22035 11.75 6.22035 15.08 8.28035 17.13C10.3404 19.19 13.6704 19.19 15.7204 17.13C17.7804 15.07 17.7804 11.74 15.7204 9.69002ZM12.5304 13.94L10.9404 15.53C10.7904 15.68 10.6004 15.75 10.4104 15.75C10.2204 15.75 10.0204 15.68 9.88035 15.53C9.59035 15.24 9.59035 14.76 9.88035 14.46L11.4704 12.87C11.7604 12.58 12.2404 12.58 12.5404 12.87C12.8304 13.17 12.8304 13.65 12.5304 13.94Z" fill="white"/>
<path d="M19.6001 5.80997C19.3801 5.58997 19.1001 5.46997 18.7901 5.46997C18.4801 5.46997 18.2001 5.58997 17.9801 5.79997C17.5301 6.24997 17.5301 6.96997 17.9801 7.41997C18.2001 7.63997 18.4801 7.75997 18.7901 7.75997C19.1001 7.75997 19.3801 7.63997 19.6001 7.42997C19.8201 7.20997 19.9401 6.92997 19.9401 6.61997C19.9401 6.30997 19.8201 6.01997 19.6001 5.80997Z" fill="white"/>
<path d="M6.01957 19.39C5.79957 19.17 5.51957 19.05 5.20957 19.05C4.89957 19.05 4.61957 19.17 4.39957 19.38C4.17957 19.6 4.05957 19.88 4.05957 20.19C4.05957 20.5 4.17957 20.78 4.39957 21C4.61957 21.22 4.91957 21.33 5.20957 21.33C5.49957 21.33 5.79957 21.22 6.01957 20.99C6.45957 20.56 6.45957 19.83 6.01957 19.39Z" fill="white"/>
<path d="M22.4096 12.6C22.1996 12.38 21.9096 12.27 21.5996 12.26C21.2896 12.26 21.0096 12.38 20.7896 12.6C20.3396 13.05 20.3396 13.77 20.7896 14.22C21.0096 14.44 21.3096 14.55 21.5996 14.55C21.8896 14.55 22.1896 14.44 22.4096 14.22C22.8596 13.77 22.8596 13.04 22.4096 12.6Z" fill="white"/>
<path d="M3.21043 12.6C2.77043 12.16 2.04043 12.15 1.59043 12.6C1.14043 13.05 1.14043 13.77 1.59043 14.22C1.81043 14.44 2.11043 14.55 2.40043 14.55C2.69043 14.55 2.99043 14.44 3.21043 14.22C3.65043 13.77 3.65043 13.04 3.21043 12.6Z" fill="white"/>
<path d="M19.6001 19.39C19.1501 18.94 18.4301 18.94 17.9801 19.39C17.5301 19.84 17.5301 20.56 17.9801 21.01C18.2001 21.23 18.5001 21.34 18.7901 21.34C19.0801 21.34 19.3801 21.23 19.6001 21.01C19.8201 20.79 19.9401 20.5 19.9401 20.2C19.9401 19.89 19.8201 19.6 19.6001 19.39Z" fill="white"/>
<path d="M6.01957 5.80997C5.79957 5.58997 5.51957 5.46997 5.20957 5.46997C4.89957 5.46997 4.61957 5.58997 4.39957 5.79997C4.17957 6.01997 4.05957 6.29997 4.05957 6.60997C4.05957 6.91997 4.17957 7.20997 4.39957 7.41997C4.61957 7.63997 4.89957 7.75997 5.20957 7.75997C5.51957 7.75997 5.79957 7.63997 6.01957 7.42997C6.45957 6.97997 6.45957 6.24997 6.01957 5.80997Z" fill="white"/>
<path d="M12.8096 2.99998C12.8096 2.98998 12.8096 2.98998 12.8096 2.99998C12.3596 2.54998 11.6396 2.54998 11.1896 2.99998C10.9696 3.21998 10.8496 3.50998 10.8496 3.80998C10.8496 4.11998 10.9696 4.39998 11.1796 4.61998C11.3996 4.83998 11.6796 4.95998 11.9896 4.95998C12.2996 4.95998 12.5796 4.83998 12.7996 4.61998C13.2596 4.16998 13.2596 3.43998 12.8096 2.99998Z" fill="white"/>
</svg>
