<svg width="24" height="24" viewBox="0 0 24 24" fill="none" xmlns="http://www.w3.org/2000/svg">
<path d="M19.27 3.64999L14.17 8.74999H3.2C2.54 8.74999 2 8.20999 2 7.54999V7.53999C2 5.24999 3.85 3.39999 6.14 3.39999H17.85C18.35 3.39999 18.83 3.48999 19.27 3.64999Z" fill="white"/>
<path d="M12.67 10.25L7.17 15.75H6C5.59 15.75 5.25 16.09 5.25 16.5C5.25 16.81 5.45 17.09 5.73 17.19L3.38 19.54C2.53 18.79 2 17.69 2 16.46V11.45C2 10.79 2.54 10.25 3.2 10.25H12.67V10.25Z" fill="white"/>
<path d="M21.9997 11V16.46C21.9997 18.75 20.1497 20.6 17.8597 20.6H8.80968C7.91968 20.6 7.46968 19.52 8.09968 18.89L9.44968 17.54C9.63968 17.35 9.88968 17.25 10.1597 17.25H14.4997C14.9097 17.25 15.2497 16.91 15.2497 16.5C15.2497 16.09 14.9097 15.75 14.4997 15.75H13.6597C12.7697 15.75 12.3197 14.67 12.9497 14.04L16.4097 10.58C16.7897 10.21 17.2997 10 17.8297 10H20.9997C21.5497 10 21.9997 10.45 21.9997 11Z" fill="white"/>
<path d="M21.7699 2.23C21.4699 1.93 20.9799 1.93 20.6799 2.23L2.22988 20.69C1.92988 20.99 1.92988 21.48 2.22988 21.78C2.37988 21.92 2.56988 22 2.76988 22C2.96988 22 3.15988 21.92 3.30988 21.77L21.7699 3.31C22.0799 3.01 22.0799 2.53 21.7699 2.23Z" fill="white"/>
<path d="M21.7696 3.31L20.6096 4.47L16.3296 8.75L3.30957 21.77C3.15957 21.92 2.96957 22 2.76957 22C2.56957 22 2.37957 21.92 2.22957 21.77C1.91957 21.47 1.91957 20.99 2.22957 20.69L3.37957 19.54L5.72957 17.19L19.2696 3.65L20.6896 2.23C20.9896 1.92 21.4696 1.92 21.7696 2.23C22.0796 2.53 22.0796 3.01 21.7696 3.31Z" fill="white"/>
<path d="M21.9996 7.40999C21.9996 6.51999 20.9196 6.06999 20.2896 6.69999L19.9996 6.99999L19.7096 7.28999C19.0796 7.91999 19.5196 8.99999 20.4096 8.99999H20.9996C21.5496 8.99999 21.9996 8.54999 21.9996 7.99999V7.40999Z" fill="white"/>
</svg>
