<svg width="24" height="24" viewBox="0 0 24 24" fill="none" xmlns="http://www.w3.org/2000/svg">
<path d="M18.9004 15.03C16.6904 15.03 14.9004 16.82 14.9004 19.03C14.9004 21.24 16.6904 23.03 18.9004 23.03C21.1104 23.03 22.9004 21.24 22.9004 19.03C22.9004 16.82 21.1104 15.03 18.9004 15.03ZM20.5004 20.68C20.3504 20.83 20.1604 20.9 19.9704 20.9C19.7804 20.9 19.5904 20.83 19.4404 20.68L18.9104 20.15L18.3604 20.7C18.2104 20.85 18.0204 20.92 17.8304 20.92C17.6404 20.92 17.4504 20.85 17.3004 20.7C17.0104 20.41 17.0104 19.93 17.3004 19.64L17.8504 19.09L17.3204 18.56C17.0304 18.27 17.0304 17.79 17.3204 17.5C17.6104 17.21 18.0904 17.21 18.3804 17.5L18.9104 18.03L19.4104 17.53C19.7004 17.24 20.1804 17.24 20.4704 17.53C20.7604 17.82 20.7604 18.3 20.4704 18.59L19.9704 19.09L20.5004 19.62C20.7904 19.91 20.7904 20.39 20.5004 20.68Z" fill="white"/>
<path d="M22 7.55V8C22 8.55 21.55 9 21 9H3C2.45 9 2 8.55 2 8V7.54C2 5.25 3.85 3.4 6.14 3.4H17.85C20.14 3.4 22 5.26 22 7.55Z" fill="white"/>
<path d="M2 11.5V16.46C2 18.75 3.85 20.6 6.14 20.6H12.4C12.98 20.6 13.48 20.11 13.43 19.53C13.29 18 13.78 16.34 15.14 15.02C15.7 14.47 16.39 14.05 17.14 13.81C18.39 13.41 19.6 13.46 20.67 13.82C21.32 14.04 22 13.57 22 12.88V11.49C22 10.94 21.55 10.49 21 10.49H3C2.45 10.5 2 10.95 2 11.5ZM8 17.25H6C5.59 17.25 5.25 16.91 5.25 16.5C5.25 16.09 5.59 15.75 6 15.75H8C8.41 15.75 8.75 16.09 8.75 16.5C8.75 16.91 8.41 17.25 8 17.25Z" fill="white"/>
</svg>
