<svg width="24" height="24" viewBox="0 0 24 24" fill="none" xmlns="http://www.w3.org/2000/svg">
<path d="M22 21.25C22 21.66 21.66 22 21.25 22H2.75C2.34 22 2 21.66 2 21.25C2 20.84 2.34 20.5 2.75 20.5H21.25C21.66 20.5 22 20.84 22 21.25Z" fill="white"/>
<path d="M15.3904 4.52001L4.65043 15.26C4.24043 15.67 3.58043 15.67 3.18043 15.26H3.17043C1.78043 13.86 1.78043 11.6 3.17043 10.21L10.3204 3.06001C11.7204 1.66001 13.9804 1.66001 15.3804 3.06001C15.7904 3.45001 15.7904 4.12001 15.3904 4.52001Z" fill="white"/>
<path d="M20.8204 8.49001L17.7704 5.44001C17.3604 5.03001 16.7004 5.03001 16.3004 5.44001L5.56043 16.18C5.15043 16.58 5.15043 17.24 5.56043 17.65L8.61043 20.71C10.0104 22.1 12.2704 22.1 13.6704 20.71L20.8104 13.56C22.2304 12.16 22.2304 9.89001 20.8204 8.49001ZM12.7604 17.52L11.5504 18.74C11.3004 18.99 10.8904 18.99 10.6304 18.74C10.3804 18.49 10.3804 18.08 10.6304 17.82L11.8504 16.6C12.0904 16.36 12.5104 16.36 12.7604 16.6C13.0104 16.85 13.0104 17.28 12.7604 17.52ZM16.7304 13.55L14.2904 16C14.0404 16.24 13.6304 16.24 13.3704 16C13.1204 15.75 13.1204 15.34 13.3704 15.08L15.8204 12.63C16.0604 12.39 16.4804 12.39 16.7304 12.63C16.9804 12.89 16.9804 13.3 16.7304 13.55Z" fill="white"/>
</svg>
