<svg width="24" height="24" viewBox="0 0 24 24" fill="none" xmlns="http://www.w3.org/2000/svg">
<path d="M8.25864 21.2448C8.90561 20.5978 9.27728 19.7719 9.37364 18.9185C9.50441 17.7828 9.12586 16.6059 8.25864 15.7387C7.74244 15.2225 7.10923 14.8783 6.44161 14.72C5.16831 14.3965 3.75736 14.7338 2.75248 15.7387C2.05733 16.4338 1.67878 17.3217 1.6306 18.2371C1.59619 18.6294 1.6306 19.0355 1.73385 19.4278C1.89215 20.0954 2.23628 20.7286 2.75248 21.2448C4.27356 22.7659 6.73756 22.7659 8.25864 21.2448ZM6.96469 17.7759C7.36389 17.7759 7.69426 18.1063 7.69426 18.5055C7.68738 18.9116 7.36389 19.2351 6.95781 19.2419L6.23513 19.2351L6.24201 19.9302C6.23513 20.3363 5.91164 20.6598 5.50556 20.6667C5.09948 20.6598 4.776 20.3363 4.76911 19.9302L4.776 19.2351L4.05331 19.2419C3.64723 19.2351 3.32375 18.9116 3.31687 18.5055C3.32375 18.3059 3.40634 18.127 3.53711 17.9962C3.66788 17.8654 3.84683 17.7828 4.04643 17.7759L4.776 17.7759L4.776 17.0188C4.776 16.8124 4.85859 16.6334 4.98936 16.5026C5.12013 16.3719 5.29908 16.2893 5.50556 16.2893C5.90476 16.2893 6.23513 16.6196 6.23513 17.0188L6.23513 17.7759L6.96469 17.7759Z" fill="white"/>
<path d="M15.0952 3.84553V7.5443H13.6352V3.84553C13.6352 3.58273 13.4016 3.45619 13.2458 3.45619C13.1972 3.45619 13.1485 3.46592 13.0998 3.48539L5.38108 6.39574C4.8652 6.59041 4.53426 7.07709 4.53426 7.6319V8.28406C3.6485 8.94594 3.07422 10.0069 3.07422 11.2041V7.6319C3.07422 6.47361 3.78477 5.44184 4.8652 5.03303L12.5937 2.11295C12.8078 2.03508 13.0317 1.99615 13.2458 1.99615C14.2192 1.99615 15.0952 2.78457 15.0952 3.84553Z" fill="white"/>
<path d="M21.5691 14.1153V15.0886C21.5691 15.3514 21.3647 15.5656 21.0921 15.5753H19.671C19.1551 15.5753 18.6879 15.1957 18.649 14.6895C18.6198 14.3878 18.7366 14.1055 18.9313 13.9108C19.1065 13.7259 19.3498 13.6286 19.6126 13.6286H21.0824C21.3647 13.6383 21.5691 13.8524 21.5691 14.1153Z" fill="white"/>
<path d="M19.6019 12.605H20.5947C21.1301 12.605 21.5681 12.167 21.5681 11.6317V11.2034C21.5681 9.18852 19.9231 7.54354 17.9082 7.54354H6.73405C5.9067 7.54354 5.14748 7.81608 4.53426 8.28329C3.6485 8.94518 3.07422 10.0061 3.07422 11.2034V12.936C3.07422 13.3058 3.46356 13.5394 3.81397 13.4226C4.35905 13.2377 4.93334 13.1404 5.50762 13.1404C8.4569 13.1404 10.8611 15.5446 10.8611 18.4938C10.8611 19.1947 10.6762 19.9636 10.3842 20.645C10.2284 20.9954 10.4718 21.4139 10.8514 21.4139H17.9082C19.9231 21.4139 21.5681 19.7689 21.5681 17.7541V17.5692C21.5681 17.0338 21.1301 16.5958 20.5947 16.5958H19.7479C18.8135 16.5958 17.918 16.0215 17.6746 15.1163C17.4799 14.3765 17.7136 13.6562 18.2002 13.189C18.5604 12.8192 19.0568 12.605 19.6019 12.605ZM14.2679 12.4103H9.40106C9.00198 12.4103 8.67104 12.0794 8.67104 11.6803C8.67104 11.2812 9.00198 10.9503 9.40106 10.9503H14.2679C14.6669 10.9503 14.9979 11.2812 14.9979 11.6803C14.9979 12.0794 14.6669 12.4103 14.2679 12.4103Z" fill="white"/>
</svg>
