<svg width="24" height="24" viewBox="0 0 24 24" fill="none" xmlns="http://www.w3.org/2000/svg">
<path d="M17.1897 4.96C17.1897 4.97 17.1897 4.97 17.1897 4.98C16.9397 4.97 16.6897 4.96 16.4197 4.96H8.71973L9.78973 3.9C10.7697 2.91 11.8497 2 13.0997 2C14.3597 2 15.4397 2.91 16.4197 3.9L16.9797 4.46C17.1197 4.59 17.1897 4.77 17.1897 4.96Z" fill="white"/>
<path d="M20.84 13.17C21.23 13.17 21.54 12.85 21.54 12.45V11.57C21.54 7.64001 20.34 6.45001 16.42 6.45001H10.12H7.57996C3.65996 6.45001 2.45996 7.65001 2.45996 11.57V12C2.45996 12.4 2.76996 12.71 3.15996 12.71C3.99996 12.71 4.66996 13.39 4.66996 14.22C4.66996 15.05 3.99996 15.74 3.15996 15.74C2.76996 15.74 2.45996 16.05 2.45996 16.45V16.88C2.45996 20.81 3.65996 22 7.57996 22H10.11H16.41C20.33 22 21.53 20.8 21.53 16.88C21.53 16.49 21.22 16.17 20.83 16.17C19.99 16.17 19.32 15.5 19.32 14.67C19.33 13.84 20 13.17 20.84 13.17ZM10.82 18.86C10.82 19.25 10.5 19.57 10.11 19.57C9.71996 19.57 9.39996 19.25 9.39996 18.86V16.18C9.39996 15.79 9.71996 15.47 10.11 15.47C10.5 15.47 10.82 15.79 10.82 16.18V18.86ZM10.82 12.27C10.82 12.66 10.5 12.98 10.11 12.98C9.71996 12.98 9.39996 12.66 9.39996 12.27V9.59001C9.39996 9.20001 9.71996 8.88001 10.11 8.88001C10.5 8.88001 10.82 9.20001 10.82 9.59001V12.27Z" fill="white"/>
</svg>
