<svg width="24" height="24" viewBox="0 0 24 24" fill="none" xmlns="http://www.w3.org/2000/svg">
<path d="M22.0002 12.62V14.68C22.0002 15.24 21.5402 15.7 20.9702 15.7H19.0402C17.9602 15.7 16.9702 14.91 16.8802 13.83C16.8202 13.2 17.0602 12.61 17.4802 12.2C17.8502 11.82 18.3602 11.6 18.9202 11.6H20.9702C21.5402 11.6 22.0002 12.06 22.0002 12.62Z" fill="white"/>
<path d="M15.38 13.96C15.29 12.91 15.67 11.88 16.43 11.13C17.07 10.48 17.96 10.1 18.92 10.1H19.49C19.77 10.1 20 9.87 19.96 9.59C19.69 7.65 18.01 6.15 16 6.15H6C3.79 6.15 2 7.94 2 10.15V17.15C2 19.36 3.79 21.15 6 21.15H16C18.02 21.15 19.69 19.65 19.96 17.71C20 17.43 19.77 17.2 19.49 17.2H19.04C17.14 17.2 15.54 15.78 15.38 13.96ZM13 11.9H7C6.59 11.9 6.25 11.57 6.25 11.15C6.25 10.73 6.59 10.4 7 10.4H13C13.41 10.4 13.75 10.74 13.75 11.15C13.75 11.56 13.41 11.9 13 11.9Z" fill="white"/>
<path d="M14.2097 3.98C14.4697 4.25 14.2397 4.65 13.8597 4.65H6.02966C4.93966 4.65 3.91966 4.97 3.06966 5.52C2.67966 5.77 2.14966 5.5 2.33966 5.07C2.89966 3.76 4.20966 2.85 5.71966 2.85H11.3397C12.4997 2.85 13.5297 3.26 14.2097 3.98Z" fill="white"/>
</svg>
