<svg width="24" height="24" viewBox="0 0 24 24" fill="none" xmlns="http://www.w3.org/2000/svg">
<path d="M11.9402 2.21001L9.5302 7.82001H7.1202C6.7202 7.82001 6.3302 7.85001 5.9502 7.93001L6.9502 5.53001L6.9902 5.44001L7.0502 5.28001C7.0802 5.21001 7.1002 5.15001 7.1302 5.10001C8.2902 2.41001 9.5902 1.57001 11.9402 2.21001Z" fill="white"/>
<path d="M18.7301 8.08999L18.7101 8.07999C18.1101 7.90999 17.5001 7.81999 16.8801 7.81999H10.6201L12.8701 2.58999L12.9001 2.51999C13.0401 2.56999 13.1901 2.63999 13.3401 2.68999L15.5501 3.61999C16.7801 4.12999 17.6401 4.65999 18.1701 5.29999C18.2601 5.41999 18.3401 5.52999 18.4201 5.65999C18.5101 5.79999 18.5801 5.93999 18.6201 6.08999C18.6601 6.17999 18.6901 6.25999 18.7101 6.34999C18.8601 6.85999 18.8701 7.43999 18.7301 8.08999Z" fill="white"/>
<path d="M18.2902 9.52001C17.8402 9.39001 17.3702 9.32001 16.8802 9.32001H7.12023C6.44023 9.32001 5.80023 9.45001 5.20023 9.71001C3.46023 10.46 2.24023 12.19 2.24023 14.2V16.15C2.24023 16.39 2.26023 16.62 2.29023 16.86C2.51023 20.04 4.21023 21.74 7.39023 21.95C7.62023 21.98 7.85023 22 8.10023 22H15.9002C19.6002 22 21.5502 20.24 21.7402 16.74C21.7502 16.55 21.7602 16.35 21.7602 16.15V14.2C21.7602 11.99 20.2902 10.13 18.2902 9.52001ZM14.5002 16.75H9.50023C9.09023 16.75 8.75023 16.41 8.75023 16C8.75023 15.59 9.09023 15.25 9.50023 15.25H14.5002C14.9102 15.25 15.2502 15.59 15.2502 16C15.2502 16.41 14.9102 16.75 14.5002 16.75Z" fill="white"/>
</svg>
