<svg width="24" height="24" viewBox="0 0 24 24" fill="none" xmlns="http://www.w3.org/2000/svg">
<path d="M21.5 12.5H19C17.9 12.5 17 13.4 17 14.5C17 15.6 17.9 16.5 19 16.5H21.5C21.78 16.5 22 16.28 22 16V13C22 12.72 21.78 12.5 21.5 12.5Z" fill="white"/>
<path d="M5 15C3.8 15 2.73 15.53 2 16.36C1.38 17.07 1 17.99 1 19C1 19.75 1.21 20.46 1.58 21.06C2.27 22.22 3.54 23 5 23C6.01 23 6.93 22.63 7.63 22C7.94 21.74 8.21 21.42 8.42 21.06C8.79 20.46 9 19.75 9 19C9 16.79 7.21 15 5 15ZM6.6 20.58C6.45 20.73 6.26 20.8 6.07 20.8C5.88 20.8 5.69 20.73 5.54 20.58L5.01 20.05L4.46 20.6C4.31 20.75 4.12 20.82 3.93 20.82C3.74 20.82 3.55 20.75 3.4 20.6C3.11 20.31 3.11 19.83 3.4 19.54L3.95 18.99L3.42 18.46C3.13 18.17 3.13 17.69 3.42 17.4C3.71 17.11 4.19 17.11 4.48 17.4L5.01 17.93L5.51 17.43C5.8 17.14 6.28 17.14 6.57 17.43C6.86 17.72 6.86 18.2 6.57 18.49L6.07 18.99L6.6 19.52C6.89 19.81 6.89 20.28 6.6 20.58Z" fill="white"/>
<path d="M16.5302 5.4C16.8302 5.69 16.5802 6.14 16.1602 6.14L7.88021 6.13C7.40021 6.13 7.16021 5.55 7.50021 5.21L9.25021 3.45C10.7302 1.98 13.1202 1.98 14.6002 3.45L16.4902 5.36C16.5002 5.37 16.5202 5.39 16.5302 5.4Z" fill="white"/>
<path d="M21.8704 18.66C21.2604 20.72 19.5004 22 17.1004 22H10.6004C10.2104 22 9.96035 21.57 10.1204 21.21C10.4204 20.51 10.6104 19.72 10.6104 19C10.6104 15.97 8.14035 13.5 5.11035 13.5C4.35035 13.5 3.61035 13.66 2.93035 13.96C2.56035 14.12 2.11035 13.87 2.11035 13.47V12C2.11035 9.28 3.75035 7.38 6.30035 7.06C6.55035 7.02 6.82035 7 7.10035 7H17.1004C17.3604 7 17.6104 7.01 17.8504 7.05C19.8704 7.28 21.3304 8.51 21.8704 10.34C21.9704 10.67 21.7304 11 21.3904 11H19.1004C16.9304 11 15.2104 12.98 15.6804 15.23C16.0104 16.87 17.5304 18 19.2004 18H21.3904C21.7404 18 21.9704 18.34 21.8704 18.66Z" fill="white"/>
</svg>
