<svg width="24" height="24" viewBox="0 0 24 24" fill="none" xmlns="http://www.w3.org/2000/svg">
<path d="M11.9402 2.21001L9.5302 7.82001H7.1202C6.7202 7.82001 6.3302 7.85001 5.9502 7.93001L6.9502 5.53001L6.9902 5.44001L7.0502 5.28001C7.0802 5.21001 7.1002 5.15001 7.1302 5.10001C8.2902 2.41001 9.5902 1.57001 11.9402 2.21001Z" fill="white"/>
<path d="M18.7301 8.08999L18.7101 8.07999C18.1101 7.90999 17.5001 7.81999 16.8801 7.81999H10.6201L12.8701 2.58999L12.9001 2.51999C13.0401 2.56999 13.1901 2.63999 13.3401 2.68999L15.5501 3.61999C16.7801 4.12999 17.6401 4.65999 18.1701 5.29999C18.2601 5.41999 18.3401 5.52999 18.4201 5.65999C18.5101 5.79999 18.5801 5.93999 18.6201 6.08999C18.6601 6.17999 18.6901 6.25999 18.7101 6.34999C18.8601 6.85999 18.8701 7.43999 18.7301 8.08999Z" fill="white"/>
<path d="M12.5195 17.66H12.7695C13.0695 17.66 13.3195 17.39 13.3195 17.06C13.3195 16.64 13.1995 16.58 12.9395 16.48L12.5195 16.33V17.66Z" fill="white"/>
<path d="M18.2902 9.52001C17.8402 9.39001 17.3702 9.32001 16.8802 9.32001H7.12023C6.44023 9.32001 5.80023 9.45001 5.20023 9.71001C3.46023 10.46 2.24023 12.19 2.24023 14.2V16.15C2.24023 16.39 2.26023 16.62 2.29023 16.86C2.51023 20.04 4.21023 21.74 7.39023 21.95C7.62023 21.98 7.85023 22 8.10023 22H15.9002C19.6002 22 21.5502 20.24 21.7402 16.74C21.7502 16.55 21.7602 16.35 21.7602 16.15V14.2C21.7602 11.99 20.2902 10.13 18.2902 9.52001ZM13.2802 15.5C13.7402 15.66 14.3602 16 14.3602 17.06C14.3602 17.97 13.6502 18.7 12.7702 18.7H12.5202V18.92C12.5202 19.21 12.2902 19.44 12.0002 19.44C11.7102 19.44 11.4802 19.21 11.4802 18.92V18.7H11.3902C10.4302 18.7 9.64023 17.89 9.64023 16.89C9.64023 16.6 9.87023 16.37 10.1602 16.37C10.4502 16.37 10.6802 16.6 10.6802 16.89C10.6802 17.31 11.0002 17.66 11.3902 17.66H11.4802V15.97L10.7202 15.7C10.2602 15.54 9.64023 15.2 9.64023 14.14C9.64023 13.23 10.3502 12.5 11.2302 12.5H11.4802V12.28C11.4802 11.99 11.7102 11.76 12.0002 11.76C12.2902 11.76 12.5202 11.99 12.5202 12.28V12.5H12.6102C13.5702 12.5 14.3602 13.31 14.3602 14.31C14.3602 14.6 14.1302 14.83 13.8402 14.83C13.5502 14.83 13.3202 14.6 13.3202 14.31C13.3202 13.89 13.0002 13.54 12.6102 13.54H12.5202V15.23L13.2802 15.5Z" fill="white"/>
<path d="M10.6797 14.14C10.6797 14.56 10.7997 14.62 11.0597 14.72L11.4797 14.87V13.54H11.2297C10.9197 13.54 10.6797 13.81 10.6797 14.14Z" fill="white"/>
</svg>
