<svg width="24" height="24" viewBox="0 0 24 24" fill="none" xmlns="http://www.w3.org/2000/svg">
<path d="M1.22986 21.6817L1.98986 20.9217C1.58986 20.3217 1.35986 19.6017 1.35986 18.8317C1.35986 16.7217 3.06986 15.0117 5.17986 15.0117C7.28986 15.0117 8.99986 16.7117 8.99986 18.8217C8.99986 20.9317 7.28986 22.6417 5.17986 22.6417C4.40986 22.6417 3.68986 22.4117 3.08986 22.0117L2.32986 22.7717C2.16986 22.9217 1.96986 23.0017 1.76986 23.0017C1.56986 23.0017 1.36986 22.9217 1.21986 22.7717C0.919859 22.4717 0.919859 21.9817 1.22986 21.6817Z" fill="white"/>
<path d="M21.5 12.5H19C17.9 12.5 17 13.4 17 14.5C17 15.6 17.9 16.5 19 16.5H21.5C21.78 16.5 22 16.28 22 16V13C22 12.72 21.78 12.5 21.5 12.5Z" fill="white"/>
<path d="M16.5302 5.4C16.8302 5.69 16.5802 6.14 16.1602 6.14L7.88021 6.13C7.40021 6.13 7.16021 5.55 7.50021 5.21L9.25021 3.45C10.7302 1.98 13.1202 1.98 14.6002 3.45L16.4902 5.36C16.5002 5.37 16.5202 5.39 16.5302 5.4Z" fill="white"/>
<path d="M21.8704 18.66C21.2604 20.72 19.5004 22 17.1004 22H10.6004C10.2104 22 9.96035 21.57 10.1204 21.21C10.4204 20.51 10.6104 19.72 10.6104 19C10.6104 15.97 8.14035 13.5 5.11035 13.5C4.35035 13.5 3.61035 13.66 2.93035 13.96C2.56035 14.12 2.11035 13.87 2.11035 13.47V12C2.11035 9.28 3.75035 7.38 6.30035 7.06C6.55035 7.02 6.82035 7 7.10035 7H17.1004C17.3604 7 17.6104 7.01 17.8504 7.05C19.8704 7.28 21.3304 8.51 21.8704 10.34C21.9704 10.67 21.7304 11 21.3904 11H19.1004C16.9304 11 15.2104 12.98 15.6804 15.23C16.0104 16.87 17.5304 18 19.2004 18H21.3904C21.7404 18 21.9704 18.34 21.8704 18.66Z" fill="white"/>
</svg>
