<svg width="24" height="24" viewBox="0 0 24 24" fill="none" xmlns="http://www.w3.org/2000/svg">
<path d="M21.2695 9.18005C20.9795 8.72005 20.6695 8.29005 20.3495 7.89005C19.9795 7.42005 19.2795 7.38005 18.8595 7.80005L15.8595 10.8001C16.0795 11.4601 16.1195 12.2201 15.9195 13.0101C15.5695 14.4201 14.4295 15.5601 13.0195 15.9101C12.2295 16.1101 11.4695 16.0701 10.8095 15.8501C10.8095 15.8501 9.37946 17.2801 8.34946 18.3101C7.84946 18.8101 8.00946 19.6901 8.67946 19.9501C9.74946 20.3601 10.8595 20.5701 11.9995 20.5701C13.7795 20.5701 15.5095 20.0501 17.0895 19.0801C18.6995 18.0801 20.1495 16.61 21.3195 14.74C22.2695 13.23 22.2195 10.6901 21.2695 9.18005Z" fill="white"/>
<path d="M14.0206 9.97989L9.98062 14.0199C9.47062 13.4999 9.14062 12.7799 9.14062 11.9999C9.14062 10.4299 10.4206 9.13989 12.0006 9.13989C12.7806 9.13989 13.5006 9.46989 14.0206 9.97989Z" fill="white"/>
<path d="M18.25 5.74993L14.86 9.13993C14.13 8.39993 13.12 7.95993 12 7.95993C9.76 7.95993 7.96 9.76993 7.96 11.9999C7.96 13.1199 8.41 14.1299 9.14 14.8599L5.76 18.2499H5.75C4.64 17.3499 3.62 16.1999 2.75 14.8399C1.75 13.2699 1.75 10.7199 2.75 9.14993C3.91 7.32993 5.33 5.89993 6.91 4.91993C8.49 3.95993 10.22 3.42993 12 3.42993C14.23 3.42993 16.39 4.24993 18.25 5.74993Z" fill="white"/>
<path d="M14.8601 12.0001C14.8601 13.5701 13.5801 14.8601 12.0001 14.8601C11.9401 14.8601 11.8901 14.8601 11.8301 14.8401L14.8401 11.8301C14.8601 11.8901 14.8601 11.9401 14.8601 12.0001Z" fill="white"/>
<path d="M21.7709 2.22988C21.4709 1.92988 20.9809 1.92988 20.6809 2.22988L2.23086 20.6899C1.93086 20.9899 1.93086 21.4799 2.23086 21.7799C2.38086 21.9199 2.57086 21.9999 2.77086 21.9999C2.97086 21.9999 3.16086 21.9199 3.31086 21.7699L21.7709 3.30988C22.0809 3.00988 22.0809 2.52988 21.7709 2.22988Z" fill="white"/>
</svg>
