<svg width="24" height="24" viewBox="0 0 24 24" fill="none" xmlns="http://www.w3.org/2000/svg">
<path d="M22 9.75C21.59 9.75 21.25 9.41 21.25 9V7C21.25 4.42 19.58 2.75 17 2.75H15C14.59 2.75 14.25 2.41 14.25 2C14.25 1.59 14.59 1.25 15 1.25H17C20.44 1.25 22.75 3.56 22.75 7V9C22.75 9.41 22.41 9.75 22 9.75Z" fill="white"/>
<path d="M2 9.75C1.59 9.75 1.25 9.41 1.25 9V7C1.25 3.56 3.56 1.25 7 1.25H9C9.41 1.25 9.75 1.59 9.75 2C9.75 2.41 9.41 2.75 9 2.75H7C4.42 2.75 2.75 4.42 2.75 7V9C2.75 9.41 2.41 9.75 2 9.75Z" fill="white"/>
<path d="M17 22.75H15C14.59 22.75 14.25 22.41 14.25 22C14.25 21.59 14.59 21.25 15 21.25H17C19.58 21.25 21.25 19.58 21.25 17V15C21.25 14.59 21.59 14.25 22 14.25C22.41 14.25 22.75 14.59 22.75 15V17C22.75 20.44 20.44 22.75 17 22.75Z" fill="white"/>
<path d="M9 22.75H7C3.56 22.75 1.25 20.44 1.25 17V15C1.25 14.59 1.59 14.25 2 14.25C2.41 14.25 2.75 14.59 2.75 15V17C2.75 19.58 4.42 21.25 7 21.25H9C9.41 21.25 9.75 21.59 9.75 22C9.75 22.41 9.41 22.75 9 22.75Z" fill="white"/>
<path d="M11.9996 9.87012C11.5096 9.87012 11.0996 10.2701 11.0996 10.7701V13.2401C11.0996 13.7401 11.4996 14.1401 11.9996 14.1401C12.4996 14.1401 12.8996 13.7401 12.8996 13.2401V10.7701C12.8996 10.2701 12.4896 9.87012 11.9996 9.87012Z" fill="white"/>
<path d="M15.5298 7.39993C15.1898 7.05993 14.7998 6.76993 14.3798 6.52993C14.2398 6.45993 14.0898 6.38993 13.9398 6.31993C13.7898 6.25993 13.6398 6.19993 13.4798 6.15993C13.3198 6.10993 13.1598 6.06993 12.9998 6.02993C12.9898 6.02993 12.9698 6.02993 12.9598 6.01993C12.6498 5.95993 12.3298 5.92993 12.0098 5.92993H11.9898C11.6698 5.92993 11.3598 5.95993 11.0498 6.01993C11.0098 6.02993 10.9698 6.02993 10.9398 6.04993C10.7998 6.07993 10.6598 6.10993 10.5198 6.15993C10.3498 6.19993 10.1798 6.26993 10.0098 6.33993C9.87977 6.39993 9.74977 6.46993 9.62977 6.52993C9.47977 6.60993 9.34977 6.69993 9.20977 6.78993C8.94977 6.96993 8.69977 7.16993 8.46977 7.39993C8.35977 7.50993 8.24977 7.62993 8.14977 7.74993C8.04977 7.87993 7.94977 7.99993 7.85977 8.13993C7.76977 8.26993 7.68977 8.40993 7.60977 8.54993C7.22977 9.25993 7.00977 10.0699 7.00977 10.9299V13.0699C7.00977 14.7999 7.88977 16.3199 9.20977 17.2099C9.32977 17.2999 9.45977 17.3699 9.58977 17.4499L10.1398 17.7099C10.4198 17.8199 10.7098 17.9099 10.9998 17.9699C11.3198 18.0299 11.6498 18.0699 11.9898 18.0699C11.9998 18.0699 11.9998 18.0699 12.0098 18.0699C12.3498 18.0699 12.6798 18.0299 12.9998 17.9699C13.2998 17.9099 13.5898 17.8199 13.8698 17.7099C14.0598 17.6299 14.2398 17.5399 14.4098 17.4499C15.9498 16.5999 16.9898 14.9499 16.9898 13.0699V10.9299C16.9898 9.54993 16.4298 8.29993 15.5298 7.39993ZM14.3998 13.2399C14.3998 14.5599 13.3198 15.6399 11.9998 15.6399C10.6798 15.6399 9.59977 14.5599 9.59977 13.2399V10.7699C9.59977 9.44993 10.6798 8.36993 11.9998 8.36993C13.3198 8.36993 14.3998 9.44993 14.3998 10.7699V13.2399Z" fill="white"/>
</svg>
