<svg width="24" height="24" viewBox="0 0 24 24" fill="none" xmlns="http://www.w3.org/2000/svg">
<path d="M13.6308 15.72C13.6308 16.62 12.9008 17.35 12.0008 17.35C11.3608 17.35 10.8108 16.98 10.5508 16.45L12.7308 14.27C13.2608 14.53 13.6308 15.08 13.6308 15.72Z" fill="white"/>
<path d="M21.7691 2.23C21.4691 1.93 20.9791 1.93 20.6791 2.23L17.8691 5.04C17.0991 3.02 15.1291 2 11.9991 2C6.36914 2 5.71914 5.58 5.71914 8.28V9.53C5.72914 9.53 5.73914 9.53 5.74914 9.53C2.91914 9.87 1.99914 11.28 1.99914 14.79V16.65C1.99914 18.25 2.18914 19.41 2.66914 20.24L2.21914 20.69C1.91914 20.99 1.91914 21.48 2.21914 21.78C2.37914 21.92 2.56914 22 2.76914 22C2.96914 22 3.15914 21.92 3.30914 21.77L21.7691 3.31C22.0791 3.01 22.0791 2.53 21.7691 2.23ZM7.34914 9.44C7.26914 9.44 7.19914 9.44 7.11914 9.44V8.28C7.11914 5.35 7.94914 3.4 11.9991 3.4C15.3991 3.4 16.4691 4.7 16.7691 6.15L13.4791 9.44H7.34914V9.44Z" fill="white"/>
<path d="M22.0005 14.79V16.65C22.0005 20.75 20.7505 22 16.6505 22H7.41054C6.52054 22 6.08054 20.92 6.71054 20.29L9.53054 17.47C9.60054 17.57 9.68054 17.66 9.76054 17.75C10.4605 18.51 11.5005 18.91 12.6505 18.67C12.7405 18.65 12.8305 18.63 12.9205 18.59C13.0105 18.57 13.0905 18.54 13.1705 18.5C13.3705 18.43 13.5605 18.32 13.7405 18.19C13.8105 18.15 13.8705 18.1 13.9205 18.05C14.0705 17.93 14.2105 17.79 14.3305 17.64C14.3805 17.59 14.4305 17.53 14.4705 17.46C14.6005 17.28 14.7105 17.09 14.7805 16.89C14.8205 16.81 14.8505 16.73 14.8705 16.64C14.9105 16.55 14.9305 16.46 14.9505 16.37C15.1905 15.22 14.7905 14.18 14.0305 13.48C13.9505 13.4 13.8505 13.32 13.7505 13.25L16.8705 10.13C16.9205 10.08 16.9605 10.04 17.0105 9.99998C17.4105 9.66998 17.9205 9.50998 18.4305 9.54998C18.5205 9.55998 18.6205 9.56998 18.7105 9.58998C18.8805 9.61998 19.0505 9.65998 19.2105 9.69998C19.3705 9.73998 19.5205 9.78998 19.6705 9.83998C19.9605 9.94998 20.2105 10.08 20.4405 10.23C20.6705 10.38 20.8605 10.56 21.0405 10.77C21.1305 10.88 21.2205 11 21.2905 11.13C21.3605 11.24 21.4205 11.36 21.4805 11.49C21.5405 11.62 21.5905 11.76 21.6405 11.9C21.7005 12.07 21.7505 12.26 21.7905 12.46C21.8305 12.6 21.8505 12.75 21.8805 12.91C21.9005 13.06 21.9205 13.22 21.9405 13.39C21.9805 13.81 22.0005 14.28 22.0005 14.79Z" fill="white"/>
</svg>
