<svg width="24" height="24" viewBox="0 0 24 24" fill="none" xmlns="http://www.w3.org/2000/svg">
<path d="M11.9991 14.3801C13.3136 14.3801 14.3791 13.3146 14.3791 12.0001C14.3791 10.6857 13.3136 9.62012 11.9991 9.62012C10.6847 9.62012 9.61914 10.6857 9.61914 12.0001C9.61914 13.3146 10.6847 14.3801 11.9991 14.3801Z" fill="white"/>
<path d="M20.0003 18.75C19.8403 18.75 19.6903 18.7 19.5503 18.6C19.2203 18.35 19.1503 17.88 19.4003 17.55C20.6103 15.94 21.2503 14.02 21.2503 12C21.2503 9.98003 20.6103 8.06003 19.4003 6.45003C19.1503 6.12003 19.2203 5.65003 19.5503 5.40003C19.8803 5.15003 20.3503 5.22003 20.6003 5.55003C22.0103 7.42003 22.7503 9.65003 22.7503 12C22.7503 14.35 22.0103 16.58 20.6003 18.45C20.4503 18.65 20.2303 18.75 20.0003 18.75Z" fill="white"/>
<path d="M4 18.75C3.77 18.75 3.55 18.65 3.4 18.45C1.99 16.58 1.25 14.35 1.25 12C1.25 9.65003 1.99 7.42003 3.4 5.55003C3.65 5.22003 4.12 5.15003 4.45 5.40003C4.78 5.65003 4.85 6.12003 4.6 6.45003C3.39 8.06003 2.75 9.98003 2.75 12C2.75 14.02 3.39 15.94 4.6 17.55C4.85 17.88 4.78 18.35 4.45 18.6C4.32 18.7 4.16 18.75 4 18.75Z" fill="white"/>
<path d="M16.7991 16.3499C16.6391 16.3499 16.4891 16.2999 16.3491 16.1999C16.0191 15.9499 15.9491 15.4799 16.1991 15.1499C16.8891 14.2399 17.2491 13.1499 17.2491 11.9999C17.2491 10.8499 16.8891 9.75993 16.1991 8.84993C15.9491 8.51993 16.0191 8.04993 16.3491 7.79993C16.6791 7.54993 17.1491 7.61993 17.3991 7.94993C18.2791 9.12993 18.7491 10.5299 18.7491 11.9999C18.7491 13.4699 18.2791 14.8799 17.3991 16.0499C17.2491 16.2499 17.0291 16.3499 16.7991 16.3499Z" fill="white"/>
<path d="M7.2 16.3499C6.97 16.3499 6.75 16.2499 6.6 16.0499C5.72 14.8799 5.25 13.4699 5.25 11.9999C5.25 10.5299 5.72 9.11993 6.6 7.94993C6.85 7.61993 7.32 7.54993 7.65 7.79993C7.98 8.04993 8.05 8.51993 7.8 8.84993C7.11 9.75993 6.75 10.8499 6.75 11.9999C6.75 13.1499 7.11 14.2399 7.8 15.1499C8.05 15.4799 7.98 15.9499 7.65 16.1999C7.52 16.2999 7.36 16.3499 7.2 16.3499Z" fill="white"/>
</svg>
