<svg width="24" height="24" viewBox="0 0 24 24" fill="none" xmlns="http://www.w3.org/2000/svg">
<path d="M18.5408 4.16989L13.0408 2.10989C12.4708 1.89989 11.5408 1.89989 10.9708 2.10989L5.47078 4.16989C4.41078 4.56989 3.55078 5.80989 3.55078 6.93989V15.0399C3.55078 15.8499 4.08078 16.9199 4.73078 17.3999L10.2308 21.5099C11.2008 22.2399 12.7908 22.2399 13.7608 21.5099L19.2608 17.3999C19.9108 16.9099 20.4408 15.8499 20.4408 15.0399V6.93989C20.4508 5.80989 19.5908 4.56989 18.5408 4.16989ZM12.7508 12.8699V15.4999C12.7508 15.9099 12.4108 16.2499 12.0008 16.2499C11.5908 16.2499 11.2508 15.9099 11.2508 15.4999V12.8699C10.2408 12.5499 9.50078 11.6099 9.50078 10.4999C9.50078 9.11989 10.6208 7.99989 12.0008 7.99989C13.3808 7.99989 14.5008 9.11989 14.5008 10.4999C14.5008 11.6199 13.7608 12.5499 12.7508 12.8699Z" fill="white"/>
</svg>
