<svg width="24" height="24" viewBox="0 0 24 24" fill="none" xmlns="http://www.w3.org/2000/svg">
<path d="M18.5408 4.12009L13.0408 2.06009C12.4708 1.85009 11.5408 1.85009 10.9708 2.06009L5.47078 4.12009C4.41078 4.52009 3.55078 5.76009 3.55078 6.89009V14.9901C3.55078 15.8001 4.08078 16.8701 4.73078 17.3501L10.2308 21.4601C11.2008 22.1901 12.7908 22.1901 13.7608 21.4601L19.2608 17.3501C19.9108 16.8601 20.4408 15.8001 20.4408 14.9901V6.89009C20.4508 5.76009 19.5908 4.52009 18.5408 4.12009ZM14.6808 13.9701C14.5308 14.1201 14.3408 14.1901 14.1508 14.1901C13.9608 14.1901 13.7708 14.1201 13.6208 13.9701L12.0308 12.3801L10.3908 14.0201C10.2408 14.1701 10.0508 14.2401 9.86078 14.2401C9.67078 14.2401 9.48078 14.1701 9.33078 14.0201C9.04078 13.7301 9.04078 13.2501 9.33078 12.9601L10.9708 11.3201L9.37078 9.72009C9.08078 9.43009 9.08078 8.95009 9.37078 8.66009C9.66078 8.37009 10.1408 8.37009 10.4308 8.66009L12.0208 10.2501L13.5708 8.70009C13.8608 8.41009 14.3408 8.41009 14.6308 8.70009C14.9208 8.99009 14.9208 9.47009 14.6308 9.76009L13.0808 11.3101L14.6708 12.9001C14.9708 13.2001 14.9708 13.6701 14.6808 13.9701Z" fill="white"/>
</svg>
