<svg width="24" height="24" viewBox="0 0 24 24" fill="none" xmlns="http://www.w3.org/2000/svg">
<path d="M18.5408 4.12009L13.0408 2.06009C12.4708 1.85009 11.5408 1.85009 10.9708 2.06009L5.47078 4.12009C4.41078 4.52009 3.55078 5.76009 3.55078 6.89009V14.9901C3.55078 15.8001 4.08078 16.8701 4.73078 17.3501L10.2308 21.4601C11.2008 22.1901 12.7908 22.1901 13.7608 21.4601L19.2608 17.3501C19.9108 16.8601 20.4408 15.8001 20.4408 14.9901V6.89009C20.4508 5.76009 19.5908 4.52009 18.5408 4.12009ZM15.4808 9.72009L11.1808 14.0201C11.0308 14.1701 10.8408 14.2401 10.6508 14.2401C10.4608 14.2401 10.2708 14.1701 10.1208 14.0201L8.52078 12.4001C8.23078 12.1101 8.23078 11.6301 8.52078 11.3401C8.81078 11.0501 9.29078 11.0501 9.58078 11.3401L10.6608 12.4201L14.4308 8.65009C14.7208 8.36009 15.2008 8.36009 15.4908 8.65009C15.7808 8.94009 15.7808 9.43009 15.4808 9.72009Z" fill="white"/>
</svg>
