<svg width="24" height="24" viewBox="0 0 24 24" fill="none" xmlns="http://www.w3.org/2000/svg">
<path d="M20.6804 13.9099V13.8999C19.8004 12.9699 18.5704 12.3999 17.2004 12.3999C14.5504 12.3999 12.4004 14.5499 12.4004 17.1999C12.4004 18.4299 12.8704 19.5499 13.6304 20.3999C14.5104 21.3799 15.7804 21.9999 17.2004 21.9999C19.8504 21.9999 22.0004 19.8499 22.0004 17.1999C22.0004 15.9299 21.5004 14.7699 20.6804 13.9099ZM18.9904 18.0099H17.9504V19.0999C17.9504 19.5099 17.6104 19.8499 17.2004 19.8499C16.7904 19.8499 16.4504 19.5099 16.4504 19.0999V18.0099H15.4104C14.9904 18.0099 14.6604 17.6799 14.6604 17.2599C14.6604 16.8499 14.9804 16.5199 15.4004 16.5099H16.4504V15.5099C16.4504 15.4899 16.4504 15.4699 16.4604 15.4499C16.4804 15.0699 16.8104 14.7599 17.2004 14.7599C17.6004 14.7599 17.9304 15.0799 17.9504 15.4799V16.5099H18.9904C19.4104 16.5099 19.7404 16.8499 19.7404 17.2599C19.7404 17.6799 19.4104 18.0099 18.9904 18.0099Z" fill="white"/>
<path d="M22 8.72989C22 9.91989 21.81 11.0199 21.48 12.0399C21.42 12.2499 21.17 12.3099 20.99 12.1799C19.9 11.3699 18.57 10.9399 17.2 10.9399C13.73 10.9399 10.9 13.7699 10.9 17.2399C10.9 18.3199 11.18 19.3799 11.71 20.3199C11.87 20.5999 11.68 20.9599 11.38 20.8499C8.97 20.0299 4.1 17.0399 2.52 12.0399C2.19 11.0199 2 9.91989 2 8.72989C2 5.63989 4.49 3.13989 7.56 3.13989C9.37 3.13989 10.99 4.01989 12 5.36989C13.01 4.01989 14.63 3.13989 16.44 3.13989C19.51 3.13989 22 5.63989 22 8.72989Z" fill="white"/>
</svg>
