<svg width="24" height="24" viewBox="0 0 24 24" fill="none" xmlns="http://www.w3.org/2000/svg">
<path d="M20.6904 13.9199C20.6804 13.9199 20.6804 13.9099 20.6804 13.9099V13.8999C19.8004 12.9799 18.5704 12.3999 17.2004 12.3999C14.5504 12.3999 12.4004 14.5499 12.4004 17.1999C12.4004 18.4299 12.8704 19.5499 13.6304 20.3999C14.5104 21.3799 15.7804 21.9999 17.2004 21.9999C19.8504 21.9999 22.0004 19.8499 22.0004 17.1999C22.0004 15.9299 21.5004 14.7799 20.6904 13.9199ZM19.0104 19.0699C18.8704 19.2099 18.6704 19.2899 18.4804 19.2899C18.2904 19.2899 18.1004 19.2099 17.9504 19.0699L17.2104 18.3299L16.4504 19.0999C16.3004 19.2399 16.1104 19.3199 15.9204 19.3199C15.8204 19.3199 15.7304 19.2999 15.6404 19.2599C15.5504 19.2299 15.4604 19.1699 15.3904 19.0999C15.0904 18.7999 15.0904 18.3299 15.3904 18.0399L16.1504 17.2699L15.4204 16.5299C15.1204 16.2399 15.1204 15.7599 15.4204 15.4699C15.7104 15.1799 16.1804 15.1799 16.4804 15.4699L17.2104 16.2099L17.9204 15.4999C18.2204 15.2099 18.6904 15.2099 18.9804 15.4999C19.1504 15.6699 19.2204 15.8899 19.1904 16.1099C19.1804 16.2799 19.1104 16.4399 18.9804 16.5599L18.2704 17.2699L19.0104 18.0099C19.3104 18.2999 19.3104 18.7699 19.0104 19.0699Z" fill="white"/>
<path d="M22 8.72989C22 9.91989 21.81 11.0199 21.48 12.0399C21.42 12.2499 21.17 12.3099 20.99 12.1799C19.9 11.3699 18.57 10.9399 17.2 10.9399C13.73 10.9399 10.9 13.7699 10.9 17.2399C10.9 18.3199 11.18 19.3799 11.71 20.3199C11.87 20.5999 11.68 20.9599 11.38 20.8499C8.97 20.0299 4.1 17.0399 2.52 12.0399C2.19 11.0199 2 9.91989 2 8.72989C2 5.63989 4.49 3.13989 7.56 3.13989C9.37 3.13989 10.99 4.01989 12 5.36989C13.01 4.01989 14.63 3.13989 16.44 3.13989C19.51 3.13989 22 5.63989 22 8.72989Z" fill="white"/>
</svg>
