<svg width="24" height="24" viewBox="0 0 24 24" fill="none" xmlns="http://www.w3.org/2000/svg">
<path d="M21.5599 10.7401L20.1999 9.16006C19.9399 8.86006 19.7299 8.30006 19.7299 7.90006V6.20006C19.7299 5.14006 18.8599 4.27006 17.7999 4.27006H16.0999C15.7099 4.27006 15.1399 4.06006 14.8399 3.80006L13.2599 2.44006C12.5699 1.85006 11.4399 1.85006 10.7399 2.44006L9.16988 3.81006C8.86988 4.06006 8.29988 4.27006 7.90988 4.27006H6.17988C5.11988 4.27006 4.24988 5.14006 4.24988 6.20006V7.91006C4.24988 8.30006 4.03988 8.86006 3.78988 9.16006L2.43988 10.7501C1.85988 11.4401 1.85988 12.5601 2.43988 13.2501L3.78988 14.8401C4.03988 15.1401 4.24988 15.7001 4.24988 16.0901V17.8001C4.24988 18.8601 5.11988 19.7301 6.17988 19.7301H7.90988C8.29988 19.7301 8.86988 19.9401 9.16988 20.2001L10.7499 21.5601C11.4399 22.1501 12.5699 22.1501 13.2699 21.5601L14.8499 20.2001C15.1499 19.9401 15.7099 19.7301 16.1099 19.7301H17.8099C18.8699 19.7301 19.7399 18.8601 19.7399 17.8001V16.1001C19.7399 15.7101 19.9499 15.1401 20.2099 14.8401L21.5699 13.2601C22.1499 12.5701 22.1499 11.4301 21.5599 10.7401ZM16.6799 12.0001L15.5099 15.5601C15.3599 16.1501 14.7299 16.6301 14.0899 16.6301H12.2399C11.9199 16.6301 11.4699 16.5201 11.2699 16.3201L9.79988 15.1701C9.76988 15.8101 9.47988 16.0801 8.76988 16.0801H8.28988C7.54988 16.0801 7.24988 15.7901 7.24988 15.0901V10.3101C7.24988 9.61006 7.54988 9.32006 8.28988 9.32006H8.77988C9.51988 9.32006 9.81988 9.61006 9.81988 10.3101V10.6701L11.7599 7.79006C11.9599 7.48006 12.4699 7.26006 12.8999 7.43006C13.3699 7.59006 13.6699 8.11006 13.5699 8.57006L13.3299 10.1301C13.3099 10.2701 13.3399 10.4001 13.4299 10.5001C13.5099 10.5901 13.6299 10.6501 13.7599 10.6501H15.7099C16.0899 10.6501 16.4099 10.8001 16.5999 11.0701C16.7699 11.3301 16.7999 11.6601 16.6799 12.0001Z" fill="white"/>
</svg>
