<svg width="24" height="24" viewBox="0 0 24 24" fill="none" xmlns="http://www.w3.org/2000/svg">
<path d="M13.15 15.3699C12.93 15.0499 12.54 14.8699 12.09 14.8699H9.76C9.61 14.8699 9.46 14.8099 9.37 14.6899C9.27 14.5699 9.23 14.4199 9.25 14.2499L9.54 12.3899C9.66 11.8399 9.29 11.2099 8.74 11.0199C8.22 10.8299 7.62 11.0899 7.37 11.4599L5.06 14.8999V14.4699C5.06 13.6299 4.7 13.2899 3.82 13.2899H3.24C2.36 13.2999 2 13.6399 2 14.4799V20.1899C2 21.0299 2.36 21.3699 3.24 21.3699H3.82C4.66 21.3699 5.01 21.0399 5.04 20.2799L6.79 21.6299C7.04 21.8699 7.57 21.9999 7.95 21.9999H10.16C10.92 21.9999 11.68 21.4299 11.86 20.7299L13.26 16.4799C13.41 16.0699 13.37 15.6799 13.15 15.3699Z" fill="white"/>
<path d="M21.1098 2.60998H20.5298C19.6898 2.60998 19.3398 2.93998 19.2998 3.69998L17.5498 2.34998C17.3098 2.10998 16.7698 1.97998 16.3898 1.97998H14.1798C13.4198 1.97998 12.6598 2.54998 12.4798 3.24998L11.0798 7.49998C10.9298 7.90998 10.9798 8.29998 11.1898 8.60998C11.4098 8.92998 11.7998 9.10998 12.2498 9.10998H14.5798C14.7298 9.10998 14.8798 9.16998 14.9698 9.28998C15.0698 9.40998 15.1098 9.55998 15.0898 9.72998L14.7998 11.59C14.6798 12.14 15.0498 12.77 15.5998 12.96C16.1198 13.15 16.7198 12.89 16.9698 12.52L19.2798 9.07998V9.50998C19.2798 10.35 19.6398 10.69 20.5198 10.69H21.0998C21.9798 10.69 22.3398 10.35 22.3398 9.50998V3.77998C22.3498 2.94998 21.9898 2.60998 21.1098 2.60998Z" fill="white"/>
</svg>
