<svg width="24" height="24" viewBox="0 0 24 24" fill="none" xmlns="http://www.w3.org/2000/svg">
<path d="M18.7998 9.90991C17.6698 9.90991 16.6598 10.4599 16.0298 11.2999C15.3998 10.4599 14.3898 9.90991 13.2598 9.90991C11.3498 9.90991 9.7998 11.4699 9.7998 13.3899C9.7998 14.1299 9.9198 14.8199 10.1198 15.4499C11.0998 18.5599 14.1398 20.4299 15.6398 20.9399C15.8498 21.0099 16.1998 21.0099 16.4098 20.9399C17.9098 20.4299 20.9498 18.5699 21.9298 15.4499C22.1398 14.8099 22.2498 14.1299 22.2498 13.3899C22.2598 11.4699 20.7098 9.90991 18.7998 9.90991Z" fill="white"/>
<path d="M20.75 8.3401C20.75 8.5701 20.52 8.7201 20.3 8.6601C18.95 8.3101 17.47 8.6001 16.35 9.4001C16.13 9.5601 15.83 9.5601 15.62 9.4001C14.83 8.8201 13.87 8.5001 12.86 8.5001C10.28 8.5001 8.18 10.6101 8.18 13.2101C8.18 16.0301 9.53 18.1401 10.89 19.5501C10.96 19.6201 10.9 19.7401 10.81 19.7001C8.08 18.7701 2 14.9101 2 8.3401C2 5.4401 4.33 3.1001 7.21 3.1001C8.92 3.1001 10.43 3.9201 11.38 5.1901C12.34 3.9201 13.85 3.1001 15.55 3.1001C18.42 3.1001 20.75 5.4401 20.75 8.3401Z" fill="white"/>
</svg>
