<svg width="24" height="24" viewBox="0 0 24 24" fill="none" xmlns="http://www.w3.org/2000/svg">
<path d="M11.1307 15.8799C10.8807 15.8799 10.6307 15.7499 10.4907 15.5199C10.2807 15.1699 10.3907 14.6999 10.7507 14.4899L11.6407 13.9599V12.8799C11.6407 12.4699 11.9807 12.1299 12.3907 12.1299C12.8007 12.1299 13.1407 12.4699 13.1407 12.8799V14.3799C13.1407 14.6399 13.0007 14.8899 12.7807 15.0199L11.5307 15.7699C11.3907 15.8399 11.2607 15.8799 11.1307 15.8799Z" fill="white"/>
<path d="M21.0891 6.98002C20.2391 6.04002 18.8291 5.57002 16.7591 5.57002H16.5191V5.53002C16.5191 3.85002 16.5191 1.77002 12.7591 1.77002H11.2391C7.47906 1.77002 7.47906 3.85002 7.47906 5.53002V5.57002H7.23906C5.16906 5.57002 3.74906 6.04002 2.90906 6.98002C1.91906 8.09002 1.94906 9.56002 2.04906 10.57L2.05906 10.64L2.12814 11.446C2.14134 11.5999 2.22488 11.7392 2.3546 11.8232C2.63829 12.0068 2.94012 12.1995 3.22906 12.36C3.36906 12.45 3.51906 12.53 3.66906 12.61C4.79906 13.23 6.00906 13.72 7.24906 14.06C7.27906 16.65 9.39906 18.75 11.9991 18.75C14.6191 18.75 16.7491 16.62 16.7491 14V13.96C18.0091 13.58 19.2191 13.05 20.3491 12.39C20.4091 12.36 20.4491 12.33 20.4991 12.3C20.8939 12.0854 21.3035 11.8045 21.6772 11.5395C21.7931 11.4573 21.868 11.3293 21.8837 11.1881L21.8991 11.05L21.9491 10.58C21.9591 10.52 21.9591 10.47 21.9691 10.4C22.0491 9.40002 22.0291 8.02002 21.0891 6.98002ZM8.90906 5.53002C8.90906 3.83002 8.90906 3.19002 11.2391 3.19002H12.7591C15.0891 3.19002 15.0891 3.83002 15.0891 5.53002V5.57002H8.90906V5.53002ZM11.9991 17.25C10.3491 17.25 8.97906 16.01 8.77906 14.41C8.75906 14.28 8.74906 14.14 8.74906 14C8.74906 12.21 10.2091 10.75 11.9991 10.75C13.7891 10.75 15.2491 12.21 15.2491 14C15.2491 14.12 15.2391 14.23 15.2291 14.34V14.35C15.0491 15.98 13.6691 17.25 11.9991 17.25Z" fill="white"/>
<path d="M21.0396 13.7301C21.2883 13.5919 21.611 13.7922 21.5851 14.0755L21.2296 17.9601C21.0196 19.9601 20.1996 22.0001 15.7996 22.0001H8.17961C3.77961 22.0001 2.95961 19.9601 2.75961 17.9701L2.41374 14.2668C2.38689 13.9793 2.6944 13.785 2.94961 13.9201C3.72961 14.3501 4.53961 14.7301 5.36961 15.0301C5.67961 15.1401 5.89961 15.4001 5.98961 15.7201C6.73961 18.3201 9.15961 20.2501 11.9996 20.2501C14.8896 20.2501 17.3296 18.2801 18.0396 15.5801C18.1196 15.2601 18.3396 15.0001 18.6496 14.8801C19.4896 14.5501 20.2896 14.1601 21.0396 13.7301Z" fill="white"/>
</svg>
