<svg width="24" height="24" viewBox="0 0 24 24" fill="none" xmlns="http://www.w3.org/2000/svg">
<path d="M15.0002 22.75C14.7302 22.75 14.4802 22.6 14.3502 22.37C14.2202 22.13 14.2202 21.85 14.3602 21.61L15.4102 19.86C15.6202 19.51 16.0802 19.39 16.4402 19.6C16.8002 19.81 16.9102 20.27 16.7002 20.63L16.4302 21.08C19.1902 20.43 21.2602 17.95 21.2602 14.99C21.2602 14.58 21.6002 14.24 22.0102 14.24C22.4202 14.24 22.7602 14.58 22.7602 14.99C22.7502 19.27 19.2702 22.75 15.0002 22.75Z" fill="white"/>
<path d="M2 9.75C1.59 9.75 1.25 9.41 1.25 9C1.25 4.73 4.73 1.25 9 1.25C9.27 1.25 9.52 1.4 9.65 1.63C9.78 1.87 9.78 2.15 9.64 2.39L8.59 4.14C8.38 4.49 7.92 4.61 7.56 4.39C7.21 4.18 7.09 3.72 7.31 3.36L7.58 2.91C4.81 3.56 2.75 6.04 2.75 9C2.75 9.41 2.41 9.75 2 9.75Z" fill="white"/>
<path d="M16.4002 8.20996L12.6402 6.17996C12.2402 5.96996 11.7702 5.96996 11.3702 6.17996L7.60016 8.20996C7.33016 8.35996 7.16016 8.64996 7.16016 8.96996C7.16016 9.29996 7.33016 9.58996 7.60016 9.73996L11.3602 11.77C11.5602 11.88 11.7802 11.93 12.0002 11.93C12.2202 11.93 12.4402 11.88 12.6402 11.77L16.4002 9.73996C16.6702 9.58996 16.8402 9.29996 16.8402 8.96996C16.8402 8.64996 16.6702 8.35996 16.4002 8.20996Z" fill="white"/>
<path d="M10.74 12.4699L7.24 10.7199C6.97 10.5899 6.66 10.5999 6.4 10.7599C6.15 10.9199 6 11.1899 6 11.4899V14.7999C6 15.3699 6.32 15.8899 6.83 16.1399L10.33 17.8899C10.45 17.9499 10.58 17.9799 10.72 17.9799C10.88 17.9799 11.03 17.9399 11.17 17.8499C11.43 17.6899 11.58 17.4199 11.58 17.1199V13.8099C11.57 13.2399 11.26 12.7299 10.74 12.4699Z" fill="white"/>
<path d="M17.5899 10.7599C17.3299 10.5999 17.0199 10.5899 16.7499 10.7199L13.2499 12.4699C12.7399 12.7299 12.4199 13.2399 12.4199 13.8099V17.1199C12.4199 17.4199 12.5699 17.6899 12.8299 17.8499C12.9699 17.9399 13.1199 17.9799 13.2799 17.9799C13.4099 17.9799 13.5399 17.9499 13.6699 17.8899L17.1699 16.1399C17.6799 15.8799 17.9999 15.3699 17.9999 14.7999V11.4899C17.9999 11.1899 17.8499 10.9199 17.5899 10.7599Z" fill="white"/>
</svg>
