<svg width="24" height="24" viewBox="0 0 24 24" fill="none" xmlns="http://www.w3.org/2000/svg">
<path d="M17.6005 5.31003L11.9505 2.27003C11.3505 1.95003 10.6405 1.95003 10.0405 2.27003L4.40047 5.31003C3.99047 5.54003 3.73047 5.98003 3.73047 6.46003C3.73047 6.95003 3.98047 7.39003 4.40047 7.61003L10.0505 10.65C10.3505 10.81 10.6805 10.89 11.0005 10.89C11.3205 10.89 11.6605 10.81 11.9505 10.65L17.6005 7.61003C18.0105 7.39003 18.2705 6.95003 18.2705 6.46003C18.2705 5.98003 18.0105 5.54003 17.6005 5.31003Z" fill="white"/>
<path d="M9.12 11.7101L3.87 9.09009C3.46 8.88009 3 8.91009 2.61 9.14009C2.23 9.38009 2 9.79009 2 10.2401V15.2001C2 16.0601 2.48 16.8301 3.25 17.2201L8.5 19.8401C8.68 19.9301 8.88 19.9801 9.08 19.9801C9.31 19.9801 9.55 19.9101 9.76 19.7901C10.14 19.5501 10.37 19.1401 10.37 18.6901V13.7301C10.36 12.8701 9.88 12.1001 9.12 11.7101Z" fill="white"/>
<path d="M20.0006 10.2401V12.7001C19.5206 12.5601 19.0106 12.5001 18.5006 12.5001C17.1406 12.5001 15.8106 12.9701 14.7606 13.8101C13.3206 14.9401 12.5006 16.6501 12.5006 18.5001C12.5006 18.9901 12.5606 19.4801 12.6906 19.9501C12.5406 19.9301 12.3906 19.8701 12.2506 19.7801C11.8706 19.5501 11.6406 19.1401 11.6406 18.6901V13.7301C11.6406 12.8701 12.1206 12.1001 12.8806 11.7101L18.1306 9.09009C18.5406 8.88009 19.0006 8.91009 19.3906 9.14009C19.7706 9.38009 20.0006 9.79009 20.0006 10.2401Z" fill="white"/>
<path d="M21.6794 15.3199C20.7894 14.4299 19.6094 13.9799 18.4394 13.9999C17.3094 14.0099 16.1794 14.4599 15.3194 15.3199C14.7194 15.9099 14.3294 16.6499 14.1394 17.4199C14.0294 17.8399 13.9894 18.2699 14.0194 18.6999V18.7499C14.0194 18.8199 14.0294 18.8799 14.0394 18.9599C14.0394 18.9599 14.0394 18.9599 14.0494 18.9699V18.9999C14.1394 19.9799 14.5594 20.9299 15.3194 21.6799C16.4794 22.8399 18.1094 23.2299 19.5794 22.8599C20.0194 22.7499 20.4494 22.5699 20.8494 22.3299C21.1494 22.1599 21.4294 21.9399 21.6794 21.6799C22.4294 20.9299 22.8594 19.9799 22.9494 18.9899C22.9594 18.9899 22.9594 18.9699 22.9594 18.9599C22.9794 18.8899 22.9794 18.8099 22.9794 18.7399C22.9794 18.7299 22.9894 18.7099 22.9894 18.6899C23.0494 17.4799 22.6094 16.2399 21.6794 15.3199ZM20.2294 20.2099C19.9394 20.4999 19.4694 20.4999 19.1694 20.2099L18.5094 19.5499L17.8294 20.2299C17.5294 20.5299 17.0594 20.5299 16.7694 20.2299C16.4694 19.9399 16.4694 19.4699 16.7694 19.1699L17.4494 18.4899L16.7894 17.8299C16.4994 17.5299 16.4994 17.0599 16.7894 16.7699C17.0894 16.4699 17.5594 16.4699 17.8594 16.7699L18.5094 17.4299L19.1394 16.7899C19.4394 16.4999 19.9094 16.4999 20.2094 16.7899C20.4994 17.0899 20.4994 17.5599 20.2094 17.8599L19.5694 18.4899L20.2294 19.1399C20.5294 19.4399 20.5294 19.9099 20.2294 20.2099Z" fill="white"/>
</svg>
