<svg width="24" height="24" viewBox="0 0 24 24" fill="none" xmlns="http://www.w3.org/2000/svg">
<path d="M17.6005 5.31003L11.9505 2.27003C11.3505 1.95003 10.6405 1.95003 10.0405 2.27003L4.40047 5.31003C3.99047 5.54003 3.73047 5.98003 3.73047 6.46003C3.73047 6.95003 3.98047 7.39003 4.40047 7.61003L10.0505 10.65C10.3505 10.81 10.6805 10.89 11.0005 10.89C11.3205 10.89 11.6605 10.81 11.9505 10.65L17.6005 7.61003C18.0105 7.39003 18.2705 6.95003 18.2705 6.46003C18.2705 5.98003 18.0105 5.54003 17.6005 5.31003Z" fill="white"/>
<path d="M9.12 11.7101L3.87 9.09009C3.46 8.88009 3 8.91009 2.61 9.14009C2.23 9.38009 2 9.79009 2 10.2401V15.2001C2 16.0601 2.48 16.8301 3.25 17.2201L8.5 19.8401C8.68 19.9301 8.88 19.9801 9.08 19.9801C9.31 19.9801 9.55 19.9101 9.76 19.7901C10.14 19.5501 10.37 19.1401 10.37 18.6901V13.7301C10.36 12.8701 9.88 12.1001 9.12 11.7101Z" fill="white"/>
<path d="M20.0006 10.2401V12.7001C19.5206 12.5601 19.0106 12.5001 18.5006 12.5001C17.1406 12.5001 15.8106 12.9701 14.7606 13.8101C13.3206 14.9401 12.5006 16.6501 12.5006 18.5001C12.5006 18.9901 12.5606 19.4801 12.6906 19.9501C12.5406 19.9301 12.3906 19.8701 12.2506 19.7801C11.8706 19.5501 11.6406 19.1401 11.6406 18.6901V13.7301C11.6406 12.8701 12.1206 12.1001 12.8806 11.7101L18.1306 9.09009C18.5406 8.88009 19.0006 8.91009 19.3906 9.14009C19.7706 9.38009 20.0006 9.79009 20.0006 10.2401Z" fill="white"/>
<path d="M22.58 21.4999L21.74 20.6599C22.18 19.9999 22.44 19.1999 22.44 18.3499C22.44 16.0199 20.55 14.1299 18.22 14.1299C15.89 14.1299 14 16.0199 14 18.3499C14 20.6799 15.89 22.5699 18.22 22.5699C19.07 22.5699 19.87 22.3099 20.53 21.8699L21.37 22.7099C21.54 22.8799 21.75 22.9599 21.97 22.9599C22.19 22.9599 22.41 22.8799 22.57 22.7099C22.91 22.3699 22.91 21.8299 22.58 21.4999Z" fill="white"/>
</svg>
