<svg width="24" height="24" viewBox="0 0 24 24" fill="none" xmlns="http://www.w3.org/2000/svg">
<path d="M20.1004 6.94C20.1004 7.48 19.8104 7.97 19.3504 8.22L17.6104 9.16L16.1304 9.95L13.0604 11.61C12.7304 11.79 12.3704 11.88 12.0004 11.88C11.6304 11.88 11.2704 11.79 10.9404 11.61L4.65039 8.22C4.19039 7.97 3.90039 7.48 3.90039 6.94C3.90039 6.4 4.19039 5.91 4.65039 5.66L6.62039 4.6L8.19039 3.75L10.9404 2.27C11.6004 1.91 12.4004 1.91 13.0604 2.27L19.3504 5.66C19.8104 5.91 20.1004 6.4 20.1004 6.94Z" fill="white"/>
<path d="M9.9007 12.7899L4.0507 9.8699C3.6007 9.6399 3.0807 9.6699 2.6507 9.9299C2.2207 10.1899 1.9707 10.6499 1.9707 11.1499V16.6799C1.9707 17.6399 2.5007 18.4999 3.3607 18.9299L9.2107 21.8499C9.4107 21.9499 9.6307 21.9999 9.8507 21.9999C10.1107 21.9999 10.3707 21.9299 10.6007 21.7799C11.0307 21.5199 11.2807 21.0599 11.2807 20.5599V15.0299C11.2907 14.0799 10.7607 13.2199 9.9007 12.7899Z" fill="white"/>
<path d="M22.0309 11.1499V16.6799C22.0309 17.6299 21.5009 18.4899 20.6409 18.9199L14.7909 21.8499C14.5909 21.9499 14.3709 21.9999 14.1509 21.9999C13.8909 21.9999 13.6309 21.9299 13.3909 21.7799C12.9709 21.5199 12.7109 21.0599 12.7109 20.5599V15.0399C12.7109 14.0799 13.2409 13.2199 14.1009 12.7899L16.2509 11.7199L17.7509 10.9699L19.9509 9.86988C20.4009 9.63988 20.9209 9.65988 21.3509 9.92988C21.7709 10.1899 22.0309 10.6499 22.0309 11.1499Z" fill="white"/>
<path d="M17.6091 9.16L16.1291 9.95L6.61914 4.6L8.18914 3.75L17.3691 8.93C17.4691 8.99 17.5491 9.07 17.6091 9.16Z" fill="white"/>
<path d="M17.75 10.97V13.24C17.75 13.65 17.41 13.99 17 13.99C16.59 13.99 16.25 13.65 16.25 13.24V11.72L17.75 10.97Z" fill="white"/>
</svg>
