<svg width="24" height="24" viewBox="0 0 24 24" fill="none" xmlns="http://www.w3.org/2000/svg">
<path d="M15.0002 22.75C14.7302 22.75 14.4802 22.6 14.3502 22.37C14.2202 22.14 14.2202 21.85 14.3602 21.62L15.4102 19.87C15.6202 19.51 16.0802 19.4 16.4402 19.61C16.8002 19.82 16.9102 20.28 16.7002 20.64L16.4302 21.09C19.1902 20.44 21.2602 17.96 21.2602 15C21.2602 14.59 21.6002 14.25 22.0102 14.25C22.4202 14.25 22.7602 14.59 22.7602 15C22.7502 19.27 19.2702 22.75 15.0002 22.75Z" fill="white"/>
<path d="M2 9.75C1.59 9.75 1.25 9.41 1.25 9C1.25 4.73 4.73 1.25 9 1.25C9.27 1.25 9.52 1.4 9.65 1.63C9.78 1.86 9.78 2.15 9.64 2.38L8.59 4.14C8.38 4.49 7.92 4.61 7.56 4.39C7.21 4.18 7.09 3.72 7.31 3.36L7.58 2.91C4.81 3.56 2.75 6.04 2.75 9C2.75 9.41 2.41 9.75 2 9.75Z" fill="white"/>
<path d="M10.6709 13.8499L7.53094 12.1599C7.20094 11.9799 6.80094 11.9799 6.47094 12.1599L3.33094 13.8499C3.10094 13.9699 2.96094 14.2199 2.96094 14.4899C2.96094 14.7599 3.10094 15.0099 3.33094 15.1299L6.47094 16.8199C6.64094 16.9099 6.82094 16.9499 7.00094 16.9499C7.18094 16.9499 7.36094 16.9099 7.53094 16.8199L10.6709 15.1299C10.9009 15.0099 11.0409 14.7599 11.0409 14.4899C11.0409 14.2199 10.8909 13.9799 10.6709 13.8499Z" fill="white"/>
<path d="M5.95 17.4099L3.03 15.9499C2.81 15.8399 2.55 15.8499 2.33 15.9799C2.13 16.1099 2 16.3399 2 16.5899V19.3499C2 19.8299 2.26 20.2599 2.69 20.4699L5.61 21.9299C5.71 21.9699 5.82 21.9999 5.93 21.9999C6.06 21.9999 6.19 21.9599 6.31 21.8899C6.52 21.7599 6.65 21.5299 6.65 21.2799V18.5199C6.65 18.0499 6.38 17.6199 5.95 17.4099Z" fill="white"/>
<path d="M11.6596 15.9799C11.4496 15.8499 11.1896 15.8399 10.9596 15.9499L8.03961 17.4099C7.60961 17.6199 7.34961 18.0499 7.34961 18.5299V21.2899C7.34961 21.5399 7.47961 21.7699 7.68961 21.8999C7.80961 21.9599 7.93961 21.9999 8.06961 21.9999C8.17961 21.9999 8.28961 21.9699 8.38961 21.9199L11.3096 20.4599C11.7396 20.2499 11.9996 19.8199 11.9996 19.3399V16.5799C11.9996 16.3399 11.8696 16.1099 11.6596 15.9799Z" fill="white"/>
<path d="M20.6709 3.82988L17.5309 2.13988C17.2009 1.95988 16.8009 1.95988 16.4709 2.13988L13.3309 3.82988C13.1009 3.94988 12.9609 4.19988 12.9609 4.46988C12.9609 4.73988 13.1009 4.98988 13.3309 5.10988L16.4709 6.79988C16.6409 6.88988 16.8209 6.92988 17.0009 6.92988C17.1809 6.92988 17.3609 6.88988 17.5309 6.79988L20.6709 5.10988C20.9009 4.98988 21.0409 4.73988 21.0409 4.46988C21.0409 4.18988 20.8909 3.94988 20.6709 3.82988Z" fill="white"/>
<path d="M15.95 7.38011L13.03 5.92011C12.81 5.81011 12.55 5.82011 12.33 5.95011C12.13 6.08011 12 6.31011 12 6.56011V9.32011C12 9.80011 12.26 10.2301 12.69 10.4401L15.61 11.9001C15.71 11.9501 15.82 11.9801 15.93 11.9801C16.06 11.9801 16.19 11.9401 16.31 11.8701C16.52 11.7401 16.65 11.5101 16.65 11.2601V8.50011C16.65 8.02011 16.38 7.59011 15.95 7.38011Z" fill="white"/>
<path d="M21.6596 5.95011C21.4496 5.82011 21.1896 5.81011 20.9596 5.92011L18.0396 7.38011C17.6096 7.59011 17.3496 8.02011 17.3496 8.50011V11.2601C17.3496 11.5101 17.4796 11.7401 17.6896 11.8701C17.8096 11.9401 17.9396 11.9801 18.0696 11.9801C18.1796 11.9801 18.2896 11.9501 18.3896 11.9001L21.3096 10.4401C21.7396 10.2201 21.9996 9.79011 21.9996 9.32011V6.56011C21.9996 6.31011 21.8696 6.08011 21.6596 5.95011Z" fill="white"/>
</svg>
