<svg width="24" height="24" viewBox="0 0 24 24" fill="none" xmlns="http://www.w3.org/2000/svg">
<path d="M14.3498 2H9.64977C8.60977 2 7.75977 2.84 7.75977 3.88V4.82C7.75977 5.86 8.59977 6.7 9.63977 6.7H14.3498C15.3898 6.7 16.2298 5.86 16.2298 4.82V3.88C16.2398 2.84 15.3898 2 14.3498 2Z" fill="white"/>
<path d="M17.2391 4.82C17.2391 6.41 15.9391 7.71 14.3491 7.71H9.64906C8.05906 7.71 6.75906 6.41 6.75906 4.82C6.75906 4.26 6.15906 3.91 5.65906 4.17C4.24906 4.92 3.28906 6.41 3.28906 8.12V17.53C3.28906 19.99 5.29906 22 7.75906 22H16.2391C18.6991 22 20.7091 19.99 20.7091 17.53V8.12C20.7091 6.41 19.7491 4.92 18.3391 4.17C17.8391 3.91 17.2391 4.26 17.2391 4.82ZM15.7491 17C15.7491 17.41 15.4091 17.75 14.9991 17.75H11.9991C11.5891 17.75 11.2491 17.41 11.2491 17C11.2491 16.59 11.5891 16.25 11.9991 16.25H13.1891L8.46906 11.53C8.17906 11.24 8.17906 10.76 8.46906 10.47C8.75906 10.18 9.23906 10.18 9.52906 10.47L14.2491 15.19V14C14.2491 13.59 14.5891 13.25 14.9991 13.25C15.4091 13.25 15.7491 13.59 15.7491 14V17Z" fill="white"/>
</svg>
