<svg width="24" height="24" viewBox="0 0 24 24" fill="none" xmlns="http://www.w3.org/2000/svg">
<path d="M14.3498 2H9.64977C8.60977 2 7.75977 2.84 7.75977 3.88V4.82C7.75977 5.86 8.59977 6.7 9.63977 6.7H14.3498C15.3898 6.7 16.2298 5.86 16.2298 4.82V3.88C16.2398 2.84 15.3898 2 14.3498 2Z" fill="white"/>
<path d="M17.2391 4.82C17.2391 6.41 15.9391 7.71 14.3491 7.71H9.64906C8.05906 7.71 6.75906 6.41 6.75906 4.82C6.75906 4.26 6.15906 3.91 5.65906 4.17C4.24906 4.92 3.28906 6.41 3.28906 8.12V17.53C3.28906 19.99 5.29906 22 7.75906 22H16.2391C18.6991 22 20.7091 19.99 20.7091 17.53V8.12C20.7091 6.41 19.7491 4.92 18.3391 4.17C17.8391 3.91 17.2391 4.26 17.2391 4.82ZM15.5291 17.53C15.3791 17.68 15.1891 17.75 14.9991 17.75C14.8091 17.75 14.6191 17.68 14.4691 17.53L9.74906 12.81V14C9.74906 14.41 9.40906 14.75 8.99906 14.75C8.58906 14.75 8.24906 14.41 8.24906 14V11C8.24906 10.59 8.58906 10.25 8.99906 10.25H11.9991C12.4091 10.25 12.7491 10.59 12.7491 11C12.7491 11.41 12.4091 11.75 11.9991 11.75H10.8091L15.5291 16.47C15.8191 16.76 15.8191 17.24 15.5291 17.53Z" fill="white"/>
</svg>
