<svg width="24" height="24" viewBox="0 0 24 24" fill="none" xmlns="http://www.w3.org/2000/svg">
<path d="M20.7091 8.12V17.53C20.7091 19.99 18.6991 22 16.2391 22H7.75906C5.29906 22 3.28906 19.99 3.28906 17.53V8.12C3.28906 6.41 4.24906 4.92 5.65906 4.17C6.14906 3.91 6.75906 4.26 6.75906 4.82C6.75906 6.41 8.05906 7.71 9.64906 7.71H14.3491C15.9391 7.71 17.2391 6.41 17.2391 4.82C17.2391 4.26 17.8391 3.91 18.3391 4.17C19.7491 4.92 20.7091 6.41 20.7091 8.12Z" fill="white"/>
<path d="M14.3498 2H9.64977C8.60977 2 7.75977 2.84 7.75977 3.88V4.82C7.75977 5.86 8.59977 6.7 9.63977 6.7H14.3498C15.3898 6.7 16.2298 5.86 16.2298 4.82V3.88C16.2398 2.84 15.3898 2 14.3498 2Z" fill="white"/>
</svg>
