<svg width="24" height="24" viewBox="0 0 24 24" fill="none" xmlns="http://www.w3.org/2000/svg">
<path d="M19.9994 19.26H10.9294C10.4794 19.26 10.1094 18.89 10.1094 18.44C10.1094 17.99 10.4794 17.62 10.9294 17.62H19.9994C20.4494 17.62 20.8194 17.99 20.8194 18.44C20.8194 18.9 20.4494 19.26 19.9994 19.26Z" fill="white"/>
<path d="M19.9994 12.97H10.9294C10.4794 12.97 10.1094 12.6 10.1094 12.15C10.1094 11.7 10.4794 11.33 10.9294 11.33H19.9994C20.4494 11.33 20.8194 11.7 20.8194 12.15C20.8194 12.6 20.4494 12.97 19.9994 12.97Z" fill="white"/>
<path d="M19.9994 6.67H10.9294C10.4794 6.67 10.1094 6.3 10.1094 5.85C10.1094 5.4 10.4794 5.03 10.9294 5.03H19.9994C20.4494 5.03 20.8194 5.4 20.8194 5.85C20.8194 6.3 20.4494 6.67 19.9994 6.67Z" fill="white"/>
<path d="M4.90969 8.03001C4.68969 8.03001 4.47969 7.94001 4.32969 7.79001L3.41969 6.88001C3.09969 6.56001 3.09969 6.04001 3.41969 5.72001C3.73969 5.40001 4.25969 5.40001 4.57969 5.72001L4.90969 6.05001L7.04969 3.91001C7.36969 3.59001 7.88969 3.59001 8.20969 3.91001C8.52969 4.23001 8.52969 4.75001 8.20969 5.07001L5.48969 7.79001C5.32969 7.94001 5.12969 8.03001 4.90969 8.03001Z" fill="white"/>
<path d="M4.90969 14.33C4.69969 14.33 4.48969 14.25 4.32969 14.09L3.41969 13.18C3.09969 12.86 3.09969 12.34 3.41969 12.02C3.73969 11.7 4.25969 11.7 4.57969 12.02L4.90969 12.35L7.04969 10.21C7.36969 9.89 7.88969 9.89 8.20969 10.21C8.52969 10.53 8.52969 11.05 8.20969 11.37L5.48969 14.09C5.32969 14.25 5.11969 14.33 4.90969 14.33Z" fill="white"/>
<path d="M4.90969 20.33C4.69969 20.33 4.48969 20.25 4.32969 20.09L3.41969 19.18C3.09969 18.86 3.09969 18.34 3.41969 18.02C3.73969 17.7 4.25969 17.7 4.57969 18.02L4.90969 18.35L7.04969 16.21C7.36969 15.89 7.88969 15.89 8.20969 16.21C8.52969 16.53 8.52969 17.05 8.20969 17.37L5.48969 20.09C5.32969 20.25 5.11969 20.33 4.90969 20.33Z" fill="white"/>
</svg>
