<svg width="24" height="24" viewBox="0 0 24 24" fill="none" xmlns="http://www.w3.org/2000/svg">
<path d="M15.08 11.34H8.92C8.28 11.34 7.65 11.08 7.2 10.62C7.06 10.48 6.94 10.33 6.84 10.16C6.66 9.86004 6.34 9.67004 5.99 9.67004H3.5C2.95 9.67004 2.5 10.12 2.5 10.67V17.5C2.5 19.99 4.51 22 7 22H17C19.49 22 21.5 19.99 21.5 17.5V10.67C21.5 10.12 21.05 9.67004 20.5 9.67004H18C17.64 9.67004 17.32 9.87004 17.14 10.18C16.72 10.87 15.95 11.34 15.08 11.34Z" fill="white"/>
<path d="M17 2H7C4.51 2 2.5 4.01 2.5 6.5V7.17C2.5 7.72 2.95 8.17 3.5 8.17H6C6.36 8.17 6.68 7.97 6.86 7.66C7.28 6.97 8.05 6.5 8.92 6.5H14.91C15.52 6.5 16.4 6.82 16.82 7.25C16.95 7.38 17.05 7.52 17.15 7.67C17.33 7.97 17.65 8.17 18.01 8.17H20.51C21.06 8.17 21.51 7.72 21.51 7.17V6.5C21.5 4.01 19.49 2 17 2Z" fill="white"/>
</svg>
