<svg width="24" height="24" viewBox="0 0 24 24" fill="none" xmlns="http://www.w3.org/2000/svg">
<path d="M12 11.53C9.24 11.53 7 13.77 7 16.53C7 17.27 7.16 17.97 7.46 18.59C7.54 18.77 7.63 18.94 7.73 19.1C8.59 20.55 10.18 21.53 12 21.53C13.82 21.53 15.41 20.55 16.27 19.1C16.37 18.94 16.46 18.77 16.54 18.59C16.84 17.97 17 17.27 17 16.53C17 13.77 14.76 11.53 12 11.53ZM14.07 16.1L11.94 18.07C11.8 18.2 11.61 18.27 11.43 18.27C11.24 18.27 11.05 18.2 10.9 18.05L9.91 17.06C9.62 16.77 9.62 16.29 9.91 16C10.2 15.71 10.68 15.71 10.97 16L11.45 16.48L13.05 15C13.36 14.72 13.83 14.74 14.11 15.04C14.39 15.34 14.37 15.81 14.07 16.1Z" fill="white"/>
<path d="M20.2003 17.07C19.8403 17.39 19.4503 17.66 19.0303 17.88C18.6703 18.06 18.3103 17.71 18.3703 17.31C18.4103 17.02 18.4303 16.72 18.4303 16.41C18.4303 12.83 15.5103 9.91003 11.9303 9.91003C8.35032 9.91003 5.43031 12.83 5.43031 16.41C5.43031 16.87 5.48031 17.31 5.57031 17.74C5.64031 18.09 5.37031 18.44 5.02031 18.35C1.07031 17.39 1.05031 11.31 5.47031 11H5.52031C2.31031 2.07003 15.8503 -1.49997 17.4003 7.88003C21.7303 8.43003 23.4803 14.2 20.2003 17.07Z" fill="white"/>
</svg>
