<svg width="24" height="24" viewBox="0 0 24 24" fill="none" xmlns="http://www.w3.org/2000/svg">
<path d="M12 11.53C9.24 11.53 7 13.77 7 16.53C7 17.27 7.16 17.97 7.46 18.59C7.54 18.77 7.63 18.94 7.73 19.1C8.59 20.55 10.18 21.53 12 21.53C13.82 21.53 15.41 20.55 16.27 19.1C16.37 18.94 16.46 18.77 16.54 18.59C16.84 17.97 17 17.27 17 16.53C17 13.77 14.76 11.53 12 11.53ZM13.5 18.14C13.35 18.29 13.16 18.36 12.97 18.36C12.78 18.36 12.59 18.29 12.44 18.14L11.91 17.61L11.36 18.16C11.21 18.31 11.02 18.38 10.83 18.38C10.64 18.38 10.45 18.31 10.3 18.16C10.01 17.87 10.01 17.39 10.3 17.1L10.85 16.55L10.32 16.02C10.03 15.73 10.03 15.25 10.32 14.96C10.61 14.67 11.09 14.67 11.38 14.96L11.91 15.49L12.41 14.99C12.7 14.7 13.18 14.7 13.47 14.99C13.76 15.28 13.76 15.76 13.47 16.05L12.97 16.55L13.5 17.08C13.79 17.38 13.79 17.85 13.5 18.14Z" fill="white"/>
<path d="M20.2003 17.29C19.8403 17.61 19.4503 17.88 19.0303 18.1C18.6703 18.28 18.3103 17.93 18.3703 17.53C18.4103 17.24 18.4303 16.94 18.4303 16.63C18.4303 13.05 15.5103 10.13 11.9303 10.13C8.35032 10.13 5.43031 13.05 5.43031 16.63C5.43031 17.09 5.48031 17.53 5.57031 17.96C5.64031 18.31 5.37031 18.66 5.02031 18.57C1.07031 17.61 1.05031 11.53 5.47031 11.21H5.52031C2.31031 2.28996 15.8503 -1.28004 17.4003 8.09996C21.7303 8.64996 23.4803 14.42 20.2003 17.29Z" fill="white"/>
</svg>
