<svg width="24" height="24" viewBox="0 0 24 24" fill="none" xmlns="http://www.w3.org/2000/svg">
<path d="M8.11028 11.85C5.29028 12.05 5.30028 16.15 8.11028 16.35H14.7803C15.5903 16.36 16.3703 16.05 16.9703 15.51C18.9503 13.78 17.8903 10.31 15.2903 9.98001C14.3603 4.34001 6.21028 6.48001 8.14028 11.85" fill="white"/>
<path d="M9 22.75C4.73 22.75 1.25 19.27 1.25 15C1.25 14.59 1.59 14.25 2 14.25C2.41 14.25 2.75 14.59 2.75 15C2.75 17.96 4.81 20.44 7.58 21.09L7.31 20.64C7.1 20.28 7.21 19.82 7.57 19.61C7.92 19.4 8.39 19.51 8.6 19.87L9.65 21.62C9.79 21.85 9.79 22.14 9.66 22.37C9.52 22.6 9.27 22.75 9 22.75Z" fill="white"/>
<path d="M22.0004 9.75C21.5904 9.75 21.2504 9.41 21.2504 9C21.2504 6.04 19.1904 3.56 16.4204 2.91L16.6904 3.36C16.9004 3.72 16.7904 4.18 16.4304 4.39C16.0804 4.6 15.6104 4.49 15.4004 4.13L14.3504 2.38C14.2104 2.15 14.2104 1.86 14.3404 1.63C14.4804 1.4 14.7304 1.25 15.0004 1.25C19.2704 1.25 22.7504 4.73 22.7504 9C22.7504 9.41 22.4104 9.75 22.0004 9.75Z" fill="white"/>
</svg>
