<svg width="24" height="24" viewBox="0 0 24 24" fill="none" xmlns="http://www.w3.org/2000/svg">
<path d="M20 6V6.24H14.87C11.9 6.24 10.52 7.62 10.52 10.59V15.7H9.75V19.25H10.52V20.75H4.95C4.54 20.75 4.2 20.41 4.2 20C4.2 19.59 4.54 19.25 4.95 19.25H8.25V15.7H6C2.87 15.7 2.03 14.93 2 11.9V6C2 2.8 2.8 2 6 2H16C19.2 2 20 2.8 20 6Z" fill="white"/>
<path d="M19.9995 7.78999C19.7495 7.75999 19.4595 7.73999 19.1495 7.73999H14.8695C12.7295 7.73999 12.0195 8.44999 12.0195 10.59V19.25C12.0295 19.87 12.0995 20.36 12.2495 20.75C12.5995 21.66 13.3895 22 14.8695 22H19.1495C21.2895 22 21.9995 21.29 21.9995 19.15V10.59C21.9995 8.75999 21.4795 7.97999 19.9995 7.78999ZM17.0095 10.09C17.8795 10.09 18.5795 10.79 18.5795 11.66C18.5795 12.53 17.8795 13.23 17.0095 13.23C16.1395 13.23 15.4395 12.53 15.4395 11.66C15.4395 10.79 16.1395 10.09 17.0095 10.09ZM17.0095 19.15C15.8295 19.15 14.8695 18.19 14.8695 17.01C14.8695 16.52 15.0395 16.06 15.3195 15.7C15.7095 15.2 16.3195 14.87 17.0095 14.87C17.5495 14.87 18.0395 15.07 18.4095 15.39C18.8595 15.79 19.1495 16.37 19.1495 17.01C19.1495 18.19 18.1895 19.15 17.0095 19.15Z" fill="white"/>
<path d="M19.9995 7.78999C19.7495 7.75999 19.4595 7.73999 19.1495 7.73999H14.8695C12.7295 7.73999 12.0195 8.44999 12.0195 10.59V19.25C12.0295 19.87 12.0995 20.36 12.2495 20.75C12.5995 21.66 13.3895 22 14.8695 22H19.1495C21.2895 22 21.9995 21.29 21.9995 19.15V10.59C21.9995 8.75999 21.4795 7.97999 19.9995 7.78999ZM17.0095 10.09C17.8795 10.09 18.5795 10.79 18.5795 11.66C18.5795 12.53 17.8795 13.23 17.0095 13.23C16.1395 13.23 15.4395 12.53 15.4395 11.66C15.4395 10.79 16.1395 10.09 17.0095 10.09ZM17.0095 19.15C15.8295 19.15 14.8695 18.19 14.8695 17.01C14.8695 16.52 15.0395 16.06 15.3195 15.7C15.7095 15.2 16.3195 14.87 17.0095 14.87C17.5495 14.87 18.0395 15.07 18.4095 15.39C18.8595 15.79 19.1495 16.37 19.1495 17.01C19.1495 18.19 18.1895 19.15 17.0095 19.15Z" fill="white"/>
</svg>
