<svg width="24" height="24" viewBox="0 0 24 24" fill="none" xmlns="http://www.w3.org/2000/svg">
<path d="M14.8396 10.9L20.4996 7.10996C21.0696 6.72996 21.2196 5.94996 20.8396 5.38996L19.0196 2.67996C18.6396 2.10996 17.8596 1.95996 17.2996 2.33996L11.6396 6.12996L14.8396 10.9Z" fill="white"/>
<path d="M14.5197 10.42L12.7597 11.6L10.0897 13.39L9.73969 13.62L9.57969 13.38L7.33969 10.04L7.17969 9.79998L11.9597 6.59998L14.5197 10.42Z" fill="white"/>
<path d="M5.6401 16.02L9.5901 13.38L7.3501 10.04L3.4001 12.68C2.9401 12.99 2.8201 13.61 3.1301 14.07L4.2601 15.75C4.5601 16.21 5.1801 16.33 5.6401 16.02Z" fill="white"/>
<path d="M16.5604 21.81C16.4604 21.85 16.3504 21.88 16.2504 21.88C15.9604 21.88 15.6904 21.71 15.5604 21.43L11.8304 13.19L8.05038 21.44C7.92038 21.71 7.65038 21.88 7.36038 21.88C7.26038 21.88 7.15038 21.85 7.05038 21.81C6.68038 21.63 6.51038 21.19 6.68038 20.81L10.0904 13.39L12.7604 11.6L16.9304 20.82C17.1004 21.19 16.9304 21.64 16.5604 21.81Z" fill="white"/>
</svg>
