<svg width="24" height="24" viewBox="0 0 24 24" fill="none" xmlns="http://www.w3.org/2000/svg">
<path d="M13.1797 11.86C12.7797 11.86 12.4197 11.64 12.2497 11.28L10.7997 8.38997L10.3797 9.16997C10.1497 9.59997 9.68973 9.86997 9.19973 9.86997H8.46973C8.05973 9.86997 7.71973 9.52997 7.71973 9.11997C7.71973 8.70997 8.05973 8.36997 8.46973 8.36997H9.10973L9.89973 6.90997C10.0897 6.56997 10.4697 6.33997 10.8297 6.35997C11.2197 6.35997 11.5697 6.58997 11.7497 6.92997L13.1797 9.78997L13.5197 9.09997C13.7497 8.63997 14.1997 8.35997 14.7197 8.35997H15.5297C15.9397 8.35997 16.2797 8.69997 16.2797 9.10997C16.2797 9.51997 15.9397 9.85997 15.5297 9.85997H14.8197L14.1097 11.27C13.9297 11.64 13.5797 11.86 13.1797 11.86Z" fill="white"/>
<path d="M2.74982 18.65C2.33982 18.65 1.99982 18.31 1.99982 17.9V12.2C1.94982 9.49005 2.95982 6.93005 4.83982 5.01005C6.71982 3.10005 9.23982 2.05005 11.9498 2.05005C17.4898 2.05005 21.9998 6.56005 21.9998 12.1V17.8C21.9998 18.21 21.6598 18.55 21.2498 18.55C20.8398 18.55 20.4998 18.21 20.4998 17.8V12.1C20.4998 7.39005 16.6698 3.55005 11.9498 3.55005C9.63982 3.55005 7.49982 4.44005 5.90982 6.06005C4.30982 7.69005 3.45982 9.86005 3.49982 12.18V17.89C3.49982 18.31 3.16982 18.65 2.74982 18.65Z" fill="white"/>
<path d="M5.94 12.45H5.81C3.71 12.45 2 14.16 2 16.26V18.14C2 20.24 3.71 21.95 5.81 21.95H5.94C8.04 21.95 9.75 20.24 9.75 18.14V16.26C9.75 14.16 8.04 12.45 5.94 12.45Z" fill="white"/>
<path d="M18.19 12.45H18.06C15.96 12.45 14.25 14.16 14.25 16.26V18.14C14.25 20.24 15.96 21.95 18.06 21.95H18.19C20.29 21.95 22 20.24 22 18.14V16.26C22 14.16 20.29 12.45 18.19 12.45Z" fill="white"/>
</svg>
