<svg width="24" height="24" viewBox="0 0 24 24" fill="none" xmlns="http://www.w3.org/2000/svg">
<path d="M6 7C4 7 3 8 3 10V15C3 17 4 18 6 18L8 16V15H9L17 7H6ZM7 11.75C6.59 11.75 6.25 11.41 6.25 11C6.25 10.59 6.59 10.25 7 10.25H9C9.41 10.25 9.75 10.59 9.75 11C9.75 11.41 9.41 11.75 9 11.75H7Z" fill="white"/>
<path d="M9 15L8 16V15H9Z" fill="white"/>
<path d="M17 5V7H7V5C7 3.34 8.34 2 10 2H14C15.66 2 17 3.34 17 5Z" fill="white"/>
<path d="M22.5304 1.46994C22.2404 1.17994 21.7604 1.17994 21.4704 1.46994L1.47043 21.4699C1.18043 21.7599 1.18043 22.2399 1.47043 22.5299C1.62043 22.6799 1.81043 22.7499 2.00043 22.7499C2.19043 22.7499 2.38043 22.6799 2.53043 22.5299L22.5304 2.52994C22.8204 2.23994 22.8204 1.75994 22.5304 1.46994Z" fill="white"/>
<path d="M17.0001 14.25H12.9572C12.8246 14.25 12.6974 14.3027 12.6037 14.3964L12.0001 15L11.2501 15.75L8.80011 18.2C8.16011 18.84 8.03011 20 8.55011 20.74C9.09011 21.5 9.99011 22 11.0001 22H13.0001C14.6601 22 16.0001 20.66 16.0001 19V15.75H17.0001C17.4101 15.75 17.7501 15.41 17.7501 15C17.7501 14.59 17.4101 14.25 17.0001 14.25Z" fill="white"/>
<path d="M19.02 7.98L15.46 11.54C14.83 12.17 15.28 13.25 16.17 13.25H16.91C17.78 13.25 18.59 13.84 18.73 14.7C18.8812 15.6153 18.313 16.439 17.4934 16.6795C17.2284 16.7572 17 16.9739 17 17.25V17.5C17 17.7761 17.2239 18 17.5 18H18C19.66 18 21 16.66 21 15V10C21 9.21 20.84 8.57 20.53 8.09C20.19 7.58 19.45 7.55 19.02 7.98Z" fill="white"/>
</svg>
