<svg width="24" height="24" viewBox="0 0 24 24" fill="none" xmlns="http://www.w3.org/2000/svg">
<path d="M16.0103 20.97C16.0159 21.5261 15.5666 21.98 15.0104 21.98H8.99374C8.44406 21.98 7.99743 21.5364 7.99376 20.9867L7.98047 19C7.98047 17.9 8.87047 17 9.98047 17H13.9905C15.0905 17 15.9805 17.89 15.9905 18.99L16.0103 20.97Z" fill="white"/>
<path d="M18.5 9.99999V12.17C18.5 12.7 18.71 13.21 19.09 13.59L19.91 14.41C20.29 14.79 20.5 15.3 20.5 15.83V17C20.5 19.3012 19.5911 20.9936 17.6057 21.6661C17.3045 21.7682 17.0089 21.5303 17.0078 21.2123L17 18.98C16.98 17.34 15.63 16 14 16H9.99C8.33 16 6.99 17.35 6.99 19V21.2242C6.99 21.5416 6.69629 21.7804 6.3949 21.6807C4.386 21.0159 3.5 19.313 3.5 17V6.99999C3.5 4.59395 4.45179 2.83377 6.64523 2.2365C6.94579 2.15465 7.2259 2.39621 7.22143 2.70767L7.19 4.89999C7.18 5.36999 7.35 5.81999 7.67 6.15999C8 6.49999 8.43 6.68999 8.94 6.69999C9.45417 6.69999 9.91203 6.48723 10.2245 6.14093C10.3367 6.01655 10.5516 6.01154 10.67 6.12999C10.99 6.46999 11.43 6.66999 11.94 6.67999C12.4543 6.67999 12.9235 6.45393 13.2436 6.09006C13.3488 5.97049 13.5642 5.96095 13.67 6.07999C13.99 6.41999 14.43 6.61999 14.94 6.62999C15.9 6.62999 16.67 5.87999 16.69 4.90999L16.7297 2.68663C16.7351 2.38233 17.0106 2.15136 17.3047 2.22954C19.5087 2.81531 20.5 4.58717 20.5 6.99999V7.99999C20.5 8.54999 20.05 8.99999 19.5 8.99999C18.95 8.99999 18.5 9.44999 18.5 9.99999Z" fill="white"/>
<path d="M9.22788 2.0033C9.50858 2.00149 9.73577 2.23107 9.73103 2.51174L9.68967 4.96C9.67967 5.37 9.34967 5.7 8.93967 5.7H8.92968C8.50968 5.69 8.17967 5.35 8.18967 4.93V2.50679C8.18967 2.2319 8.41157 2.00857 8.68645 2.00679L9.22788 2.0033Z" fill="white"/>
<path d="M12.2311 2C12.5106 2 12.7358 2.22906 12.7311 2.50847L12.6897 4.95C12.6797 5.35 12.3497 5.68 11.9397 5.68H11.9297C11.5097 5.67 11.1797 5.33 11.1897 4.92L11.1897 2.5C11.1897 2.22386 11.4135 2 11.6897 2H12.2311Z" fill="white"/>
<path d="M15.2341 2.00682C15.5124 2.00858 15.7357 2.23723 15.7309 2.51549L15.6897 4.89001C15.6797 5.30001 15.3497 5.63001 14.9397 5.63001H14.9297C14.5097 5.62001 14.1797 5.28001 14.1897 4.87001V2.5034C14.1897 2.22603 14.4155 2.00167 14.6928 2.00341L15.2341 2.00682Z" fill="white"/>
</svg>
