<svg width="24" height="24" viewBox="0 0 24 24" fill="none" xmlns="http://www.w3.org/2000/svg">
<path d="M21.6297 14.66L21.2197 16.52C20.5097 19.72 17.9997 22 14.3797 22H9.61974C5.99974 22 3.48974 19.72 2.77974 16.52L2.36974 14.66C2.16974 13.75 2.70974 12.72 3.57974 12.37L4.99974 11.8L10.5097 9.59005C10.9897 9.40005 11.4997 9.30005 11.9997 9.30005C12.4997 9.30005 13.0097 9.40005 13.4897 9.59005L18.9997 11.8L20.4197 12.37C21.2897 12.72 21.8297 13.75 21.6297 14.66Z" fill="white"/>
<path d="M19 8V9.44C19 9.79 18.64 10.04 18.31 9.9L14.04 8.19C12.73 7.68 11.27 7.68 9.95 8.2L5.69 9.91C5.36 10.05 5 9.8 5 9.45V8C5 6.35 6.35 5 8 5H16C17.65 5 19 6.35 19 8Z" fill="white"/>
<path d="M14.5 5H9.5V3C9.5 2.45 9.95 2 10.5 2H13.5C14.05 2 14.5 2.45 14.5 3V5Z" fill="white"/>
</svg>
