<svg width="24" height="24" viewBox="0 0 24 24" fill="none" xmlns="http://www.w3.org/2000/svg">
<path d="M18.7099 9.49C18.6099 9.49 18.5099 9.47001 18.4099 9.43001C18.0299 9.26001 17.8599 8.82 18.0199 8.44C18.2099 8.01 18.0999 7.38 17.7499 6.86C17.3999 6.33 16.8699 5.97 16.3899 6C15.9499 6 15.6399 5.67 15.6299 5.26C15.6299 4.84 15.9599 4.51 16.3699 4.5C17.3999 4.48 18.3699 5.07 18.9999 6.02C19.6399 6.98 19.7899 8.13 19.3999 9.03C19.2799 9.32 18.9999 9.49 18.7099 9.49Z" fill="white"/>
<path d="M21.8201 10.4801C21.7501 10.4801 21.6901 10.4701 21.6201 10.4501C21.2201 10.3401 20.9901 9.9301 21.1001 9.5301C21.4801 8.1701 21.1601 6.5501 20.2501 5.1901C19.3401 3.8301 17.9601 2.9201 16.5501 2.7501C16.1401 2.7001 15.8501 2.3301 15.9001 1.9201C15.9501 1.5101 16.3301 1.2101 16.7301 1.2701C18.5601 1.4901 20.3401 2.6501 21.4901 4.3701C22.6401 6.0901 23.0301 8.1701 22.5401 9.9501C22.4501 10.2601 22.1501 10.4801 21.8201 10.4801Z" fill="white"/>
<path d="M17.1199 11.78C17.1199 12.08 16.8699 12.33 16.5699 12.33H3.42988C3.12988 12.33 2.87988 12.08 2.87988 11.78C2.87988 11.48 3.12988 11.23 3.42988 11.23H4.16988L4.44988 9.90996C4.70988 8.62996 5.25988 7.45996 7.43988 7.45996H12.5699C14.7499 7.45996 15.2899 8.63996 15.5599 9.90996L15.8399 11.23H16.5799C16.8699 11.23 17.1199 11.48 17.1199 11.78Z" fill="white"/>
<path d="M17.4296 15.9099C17.3196 14.7099 16.9996 13.4199 14.6596 13.4199H5.33956C2.99956 13.4199 2.67956 14.7099 2.56956 15.9099L2.15956 20.3599C2.10956 20.9099 2.28956 21.4699 2.66956 21.8899C3.05956 22.3099 3.59956 22.5499 4.18956 22.5499H5.55956C6.73956 22.5499 6.96956 21.8699 7.11956 21.4299L7.26956 20.9899C7.43956 20.4899 7.47956 20.3599 8.13956 20.3599H11.8796C12.5396 20.3599 12.5596 20.4299 12.7496 20.9899L12.8996 21.4299C13.0496 21.8799 13.2696 22.5499 14.4596 22.5499H15.8296C16.4096 22.5499 16.9596 22.3099 17.3496 21.8899C17.7296 21.4699 17.9096 20.9199 17.8596 20.3599L17.4296 15.9099ZM7.80956 17.4299H5.61956C5.31956 17.4299 5.06956 17.1799 5.06956 16.8799C5.06956 16.5799 5.31956 16.3299 5.61956 16.3299H7.80956C8.10956 16.3299 8.35956 16.5799 8.35956 16.8799C8.35956 17.1799 8.10956 17.4299 7.80956 17.4299ZM14.3796 17.4299H12.1896C11.8896 17.4299 11.6396 17.1799 11.6396 16.8799C11.6396 16.5799 11.8896 16.3299 12.1896 16.3299H14.3796C14.6796 16.3299 14.9296 16.5799 14.9296 16.8799C14.9296 17.1799 14.6796 17.4299 14.3796 17.4299Z" fill="white"/>
</svg>
