<svg width="24" height="24" viewBox="0 0 24 24" fill="none" xmlns="http://www.w3.org/2000/svg">
<path d="M18.6704 2H16.7704C14.5904 2 13.4404 3.15 13.4404 5.33V7.23C13.4404 9.41 14.5904 10.56 16.7704 10.56H18.6704C20.8504 10.56 22.0004 9.41 22.0004 7.23V5.33C22.0004 3.15 20.8504 2 18.6704 2Z" fill="white"/>
<path d="M7.24 13.4299H5.34C3.15 13.4299 2 14.5799 2 16.7599V18.6599C2 20.8499 3.15 21.9999 5.33 21.9999H7.23C9.41 21.9999 10.56 20.8499 10.56 18.6699V16.7699C10.57 14.5799 9.42 13.4299 7.24 13.4299Z" fill="white"/>
<path d="M6.29 10.58C8.6593 10.58 10.58 8.6593 10.58 6.29C10.58 3.9207 8.6593 2 6.29 2C3.9207 2 2 3.9207 2 6.29C2 8.6593 3.9207 10.58 6.29 10.58Z" fill="white"/>
<path d="M17.7099 21.9999C20.0792 21.9999 21.9999 20.0792 21.9999 17.7099C21.9999 15.3406 20.0792 13.4199 17.7099 13.4199C15.3406 13.4199 13.4199 15.3406 13.4199 17.7099C13.4199 20.0792 15.3406 21.9999 17.7099 21.9999Z" fill="white"/>
</svg>
