<svg width="24" height="24" viewBox="0 0 24 24" fill="none" xmlns="http://www.w3.org/2000/svg">
<path d="M21.2995 7.57993H15.7195C15.3295 7.57993 15.0195 7.26993 15.0195 6.87993C15.0195 6.48993 15.3295 6.17993 15.7195 6.17993H21.2995C21.6895 6.17993 21.9995 6.48993 21.9995 6.87993C21.9995 7.26993 21.6895 7.57993 21.2995 7.57993Z" fill="white"/>
<path d="M6.42 7.57993H2.7C2.31 7.57993 2 7.26993 2 6.87993C2 6.48993 2.31 6.17993 2.7 6.17993H6.42C6.81 6.17993 7.12 6.48993 7.12 6.87993C7.12 7.26993 6.8 7.57993 6.42 7.57993Z" fill="white"/>
<path d="M10.1404 10.8299C12.322 10.8299 14.0904 9.06146 14.0904 6.87993C14.0904 4.69841 12.322 2.92993 10.1404 2.92993C7.95891 2.92993 6.19043 4.69841 6.19043 6.87993C6.19043 9.06146 7.95891 10.8299 10.1404 10.8299Z" fill="white"/>
<path d="M21.2999 17.8099H17.5799C17.1899 17.8099 16.8799 17.4999 16.8799 17.1099C16.8799 16.7199 17.1899 16.4099 17.5799 16.4099H21.2999C21.6899 16.4099 21.9999 16.7199 21.9999 17.1099C21.9999 17.4999 21.6899 17.8099 21.2999 17.8099Z" fill="white"/>
<path d="M8.28 17.8099H2.7C2.31 17.8099 2 17.4999 2 17.1099C2 16.7199 2.31 16.4099 2.7 16.4099H8.28C8.67 16.4099 8.98 16.7199 8.98 17.1099C8.98 17.4999 8.66 17.8099 8.28 17.8099Z" fill="white"/>
<path d="M13.8602 21.0699C16.0417 21.0699 17.8102 19.3014 17.8102 17.1199C17.8102 14.9384 16.0417 13.1699 13.8602 13.1699C11.6786 13.1699 9.91016 14.9384 9.91016 17.1199C9.91016 19.3014 11.6786 21.0699 13.8602 21.0699Z" fill="white"/>
</svg>
